<?xml version="1.0" encoding="UTF-8"?><svg xmlns="http://www.w3.org/2000/svg" viewBox="0 0 839 599.36"><defs><style>.e{stroke-width:5px;}.e,.f,.g,.h{stroke-miterlimit:10;}.e,.g{stroke:#e6e6e6;}.e,.g,.h{fill:none;}.f{fill:#fff;stroke:gray;}.h{stroke:#0071bc;stroke-width:2px;}.i{fill:#404040;}.j{fill:#666;}</style></defs><g id="a"/><g id="b"><g id="c"><g id="d"><g><rect class="f" x=".5" y=".5" width="838" height="598.36"/><g><path class="j" d="M49.28,111.57h-7.24v-5.29h21.12v5.29h-7.21v18.29h-6.67v-18.29Z"/><path class="j" d="M62.35,120.7c0-5.49,4.35-9.4,10.31-9.4s10.31,3.91,10.31,9.4-4.28,9.47-10.31,9.47-10.31-3.94-10.31-9.47Zm14.15,0c0-2.76-1.65-4.31-3.84-4.31s-3.84,1.55-3.84,4.31,1.68,4.38,3.84,4.38,3.84-1.58,3.84-4.38Z"/><path class="j" d="M84.79,115.07c0-2.29,1.68-3.77,3.84-3.77s3.84,1.48,3.84,3.77-1.65,3.81-3.84,3.81-3.84-1.58-3.84-3.81Zm0,11.29c0-2.29,1.68-3.77,3.84-3.77s3.84,1.48,3.84,3.77-1.65,3.81-3.84,3.81-3.84-1.58-3.84-3.81Z"/><path class="i" d="M212.01,127.54l1.85-4.11c1.99,1.45,4.95,2.46,7.78,2.46,3.23,0,4.55-1.08,4.55-2.53,0-4.41-13.71-1.38-13.71-10.14,0-4.01,3.23-7.34,9.94-7.34,2.96,0,6,.71,8.19,2.09l-1.68,4.14c-2.19-1.25-4.45-1.85-6.54-1.85-3.23,0-4.48,1.21-4.48,2.7,0,4.35,13.71,1.35,13.71,10.01,0,3.94-3.27,7.31-10.01,7.31-3.74,0-7.51-1.11-9.6-2.73Z"/><path class="i" d="M251.03,119.52v10.34h-4.92v-2.26c-.98,1.65-2.86,2.53-5.53,2.53-4.25,0-6.77-2.36-6.77-5.49s2.26-5.42,7.78-5.42h4.18c0-2.26-1.35-3.57-4.18-3.57-1.92,0-3.91,.64-5.22,1.68l-1.89-3.67c1.99-1.42,4.92-2.19,7.82-2.19,5.53,0,8.73,2.56,8.73,8.05Zm-5.26,4.62v-1.85h-3.6c-2.46,0-3.23,.91-3.23,2.12,0,1.31,1.11,2.19,2.96,2.19,1.75,0,3.27-.81,3.87-2.46Z"/><path class="i" d="M286.4,119.49v10.38h-5.26v-9.57c0-2.93-1.31-4.28-3.44-4.28-2.36,0-4.01,1.52-4.01,4.75v9.1h-5.26v-9.57c0-2.93-1.25-4.28-3.44-4.28-2.32,0-3.98,1.52-3.98,4.75v9.1h-5.26v-18.13h5.02v2.09c1.35-1.55,3.37-2.36,5.69-2.36,2.53,0,4.68,.98,5.96,2.96,1.45-1.85,3.81-2.96,6.54-2.96,4.31,0,7.41,2.49,7.41,8.02Z"/><path class="i" d="M316.36,113.96l-11.22,4.11,11.22,4.08v4.21l-16.04-6.1v-4.38l16.04-6.1v4.18Z"/><path class="i" d="M319.09,128.18l1.75-3.77c1.62,1.04,4.08,1.75,6.3,1.75,2.43,0,3.34-.64,3.34-1.65,0-2.96-10.95,.07-10.95-7.18,0-3.44,3.1-5.86,8.39-5.86,2.49,0,5.26,.57,6.97,1.58l-1.75,3.74c-1.79-1.01-3.57-1.35-5.22-1.35-2.36,0-3.37,.74-3.37,1.68,0,3.1,10.95,.1,10.95,7.24,0,3.37-3.13,5.76-8.56,5.76-3.07,0-6.17-.84-7.85-1.95Z"/><path class="i" d="M354.77,119.52v10.34h-4.92v-2.26c-.98,1.65-2.86,2.53-5.53,2.53-4.25,0-6.77-2.36-6.77-5.49s2.26-5.42,7.78-5.42h4.18c0-2.26-1.35-3.57-4.18-3.57-1.92,0-3.91,.64-5.22,1.68l-1.89-3.67c1.99-1.42,4.92-2.19,7.82-2.19,5.53,0,8.73,2.56,8.73,8.05Zm-5.26,4.62v-1.85h-3.6c-2.46,0-3.23,.91-3.23,2.12,0,1.31,1.11,2.19,2.96,2.19,1.75,0,3.27-.81,3.87-2.46Z"/><path class="i" d="M390.14,119.49v10.38h-5.26v-9.57c0-2.93-1.31-4.28-3.44-4.28-2.36,0-4.01,1.52-4.01,4.75v9.1h-5.26v-9.57c0-2.93-1.25-4.28-3.44-4.28-2.32,0-3.98,1.52-3.98,4.75v9.1h-5.26v-18.13h5.02v2.09c1.35-1.55,3.37-2.36,5.69-2.36,2.53,0,4.68,.98,5.96,2.96,1.45-1.85,3.81-2.96,6.54-2.96,4.31,0,7.41,2.49,7.41,8.02Z"/><path class="i" d="M425.99,120.63c0,6.03-2.76,9.47-6.91,9.47-2.29,0-3.91-1.01-4.62-2.93-1.18,1.89-3.1,2.93-5.76,2.93-4.35,0-7.78-3.44-7.78-8.52s3.4-8.49,7.78-8.49c2.22,0,3.98,.77,5.19,2.22v-1.99h4.58v10.92c0,1.62,.71,2.16,1.62,2.16,1.55,0,2.49-1.79,2.49-5.69,0-6.84-5.05-11.56-12.53-11.56s-12.53,5.12-12.53,12.16,4.92,12.26,12.4,12.26c2.12,0,4.51-.44,6.64-1.48l1.08,3.1c-2.05,1.04-5.05,1.62-7.71,1.62-9.74,0-16.17-6.6-16.17-15.5s6.5-15.36,16.31-15.36,15.94,6.23,15.94,14.69Zm-12.03,.94c0-2.93-1.79-4.58-4.21-4.58s-4.18,1.72-4.18,4.58,1.72,4.65,4.18,4.65,4.21-1.68,4.21-4.65Z"/><path class="i" d="M448.27,119.49v10.38h-5.26v-9.57c0-2.93-1.35-4.28-3.67-4.28-2.53,0-4.35,1.55-4.35,4.89v8.96h-5.26v-18.13h5.02v2.12c1.42-1.55,3.54-2.39,6-2.39,4.28,0,7.51,2.49,7.51,8.02Z"/><path class="i" d="M451.87,120.8c0-5.46,4.21-9.33,9.97-9.33s9.94,3.87,9.94,9.33-4.18,9.33-9.94,9.33-9.97-3.87-9.97-9.33Zm14.59,0c0-3.13-1.99-5.02-4.62-5.02s-4.65,1.89-4.65,5.02,2.02,5.02,4.65,5.02,4.62-1.89,4.62-5.02Z"/><path class="i" d="M486.98,128.99c-1.08,.77-2.66,1.15-4.28,1.15-4.28,0-6.77-2.19-6.77-6.5v-7.45h-2.8v-4.04h2.8v-4.41h5.26v4.41h4.51v4.04h-4.51v7.38c0,1.55,.84,2.39,2.26,2.39,.77,0,1.55-.24,2.12-.67l1.42,3.71Z"/><path class="i" d="M508.07,111.74v15.09c0,6.74-3.64,9.84-10.18,9.84-3.44,0-6.77-.84-8.89-2.49l2.09-3.77c1.55,1.25,4.08,2.06,6.4,2.06,3.71,0,5.32-1.68,5.32-4.95v-.77c-1.38,1.52-3.37,2.26-5.73,2.26-5.02,0-9.06-3.47-9.06-8.76s4.04-8.76,9.06-8.76c2.53,0,4.62,.84,6,2.59v-2.32h4.99Zm-5.19,8.49c0-2.66-1.99-4.45-4.75-4.45s-4.78,1.79-4.78,4.45,2.02,4.45,4.78,4.45,4.75-1.79,4.75-4.45Z"/><path class="i" d="M543.58,119.49v10.38h-5.26v-9.57c0-2.93-1.31-4.28-3.44-4.28-2.36,0-4.01,1.52-4.01,4.75v9.1h-5.26v-9.57c0-2.93-1.25-4.28-3.44-4.28-2.32,0-3.98,1.52-3.98,4.75v9.1h-5.26v-18.13h5.02v2.09c1.35-1.55,3.37-2.36,5.69-2.36,2.53,0,4.68,.98,5.96,2.96,1.45-1.85,3.81-2.96,6.54-2.96,4.31,0,7.41,2.49,7.41,8.02Z"/><path class="i" d="M564.34,119.52v10.34h-4.92v-2.26c-.98,1.65-2.86,2.53-5.53,2.53-4.25,0-6.77-2.36-6.77-5.49s2.26-5.42,7.78-5.42h4.18c0-2.26-1.35-3.57-4.18-3.57-1.92,0-3.91,.64-5.22,1.68l-1.89-3.67c1.99-1.42,4.92-2.19,7.82-2.19,5.53,0,8.73,2.56,8.73,8.05Zm-5.26,4.62v-1.85h-3.6c-2.46,0-3.23,.91-3.23,2.12,0,1.31,1.11,2.19,2.96,2.19,1.75,0,3.27-.81,3.87-2.46Z"/><path class="i" d="M568.45,106.28c0-1.65,1.31-2.93,3.27-2.93s3.27,1.21,3.27,2.83c0,1.75-1.31,3.03-3.27,3.03s-3.27-1.28-3.27-2.93Zm.64,5.46h5.26v18.13h-5.26v-18.13Z"/><path class="i" d="M579.23,104.86h5.26v25h-5.26v-25Z"/><path class="i" d="M588.09,126.83c0-1.95,1.45-3.23,3.27-3.23s3.27,1.28,3.27,3.23-1.45,3.3-3.27,3.3-3.27-1.38-3.27-3.3Z"/><path class="i" d="M596.62,120.8c0-5.46,4.21-9.33,10.11-9.33,3.81,0,6.81,1.65,8.12,4.62l-4.08,2.19c-.98-1.72-2.43-2.49-4.08-2.49-2.66,0-4.75,1.85-4.75,5.02s2.09,5.02,4.75,5.02c1.65,0,3.1-.74,4.08-2.49l4.08,2.22c-1.31,2.9-4.31,4.58-8.12,4.58-5.9,0-10.11-3.87-10.11-9.33Z"/><path class="i" d="M616.29,120.8c0-5.46,4.21-9.33,9.97-9.33s9.94,3.87,9.94,9.33-4.18,9.33-9.94,9.33-9.97-3.87-9.97-9.33Zm14.59,0c0-3.13-1.99-5.02-4.62-5.02s-4.65,1.89-4.65,5.02,2.02,5.02,4.65,5.02,4.62-1.89,4.62-5.02Z"/><path class="i" d="M670.34,119.49v10.38h-5.26v-9.57c0-2.93-1.31-4.28-3.44-4.28-2.36,0-4.01,1.52-4.01,4.75v9.1h-5.26v-9.57c0-2.93-1.25-4.28-3.44-4.28-2.33,0-3.98,1.52-3.98,4.75v9.1h-5.26v-18.13h5.02v2.09c1.35-1.55,3.37-2.36,5.69-2.36,2.53,0,4.68,.98,5.96,2.96,1.45-1.85,3.81-2.96,6.54-2.96,4.31,0,7.41,2.49,7.41,8.02Z"/><path class="i" d="M690.75,115.88v4.38l-16.04,6.1v-4.21l11.22-4.08-11.22-4.11v-4.18l16.04,6.1Z"/></g><line class="g" x1="40.6" y1="154.7" x2="798.4" y2="154.7"/><line class="g" x1="30.6" y1="485.7" x2="788.4" y2="485.7"/><g><path class="j" d="M50.93,38.43v5.19h10.41v5.15h-10.41v8.09h-6.67v-23.58h18.5v5.15h-11.83Z"/><path class="j" d="M77.48,38.3v5.76c-.57-.07-.98-.1-1.45-.1-2.59,0-4.38,1.31-4.38,4.51v8.39h-6.4v-18.26h6.1v2.19c1.31-1.65,3.44-2.49,6.13-2.49Z"/><path class="j" d="M78.8,47.7c0-5.49,4.35-9.4,10.31-9.4s10.31,3.91,10.31,9.4-4.28,9.47-10.31,9.47-10.31-3.94-10.31-9.47Zm14.15,0c0-2.76-1.65-4.31-3.84-4.31s-3.84,1.55-3.84,4.31,1.68,4.38,3.84,4.38,3.84-1.58,3.84-4.38Z"/><path class="j" d="M133.55,46.42v10.44h-6.4v-9.4c0-2.63-1.08-3.74-2.76-3.74-1.85,0-3.2,1.25-3.2,4.08v9.06h-6.4v-9.4c0-2.63-1.04-3.74-2.76-3.74-1.89,0-3.23,1.25-3.23,4.08v9.06h-6.4v-18.26h6.1v1.92c1.38-1.48,3.3-2.22,5.46-2.22,2.49,0,4.62,.91,5.9,2.86,1.45-1.82,3.71-2.86,6.33-2.86,4.25,0,7.38,2.46,7.38,8.12Z"/><path class="j" d="M136.45,42.07c0-2.29,1.68-3.77,3.84-3.77s3.84,1.48,3.84,3.77-1.65,3.81-3.84,3.81-3.84-1.58-3.84-3.81Zm0,11.29c0-2.29,1.68-3.77,3.84-3.77s3.84,1.48,3.84,3.77-1.65,3.81-3.84,3.81-3.84-1.58-3.84-3.81Z"/><path class="i" d="M231.52,56.86l-4.55-6.57h-5.02v6.57h-5.46v-23.58h10.21c6.3,0,10.24,3.27,10.24,8.56,0,3.54-1.79,6.13-4.85,7.45l5.29,7.58h-5.86Zm-5.12-19.14h-4.45v8.22h4.45c3.34,0,5.02-1.55,5.02-4.11s-1.68-4.11-5.02-4.11Z"/><path class="i" d="M258.54,49.28h-13.71c.51,2.26,2.43,3.64,5.19,3.64,1.92,0,3.3-.57,4.55-1.75l2.8,3.03c-1.68,1.92-4.21,2.93-7.48,2.93-6.27,0-10.34-3.94-10.34-9.33s4.14-9.33,9.67-9.33,9.43,3.57,9.43,9.4c0,.4-.07,.98-.1,1.42Zm-13.78-3.07h8.93c-.37-2.29-2.09-3.77-4.45-3.77s-4.11,1.45-4.48,3.77Z"/><path class="i" d="M277.68,46.52v10.34h-4.92v-2.26c-.98,1.65-2.86,2.53-5.53,2.53-4.25,0-6.77-2.36-6.77-5.49s2.26-5.42,7.78-5.42h4.18c0-2.26-1.35-3.57-4.18-3.57-1.92,0-3.91,.64-5.22,1.68l-1.89-3.67c1.99-1.42,4.92-2.19,7.82-2.19,5.53,0,8.73,2.56,8.73,8.05Zm-5.26,4.62v-1.85h-3.6c-2.46,0-3.23,.91-3.23,2.12,0,1.31,1.11,2.19,2.96,2.19,1.75,0,3.27-.81,3.87-2.46Z"/><path class="i" d="M281.29,47.8c0-5.46,4.21-9.33,10.11-9.33,3.81,0,6.81,1.65,8.12,4.62l-4.08,2.19c-.98-1.72-2.43-2.49-4.08-2.49-2.66,0-4.75,1.85-4.75,5.02s2.09,5.02,4.75,5.02c1.65,0,3.1-.74,4.08-2.49l4.08,2.22c-1.31,2.9-4.31,4.58-8.12,4.58-5.9,0-10.11-3.87-10.11-9.33Z"/><path class="i" d="M320.94,46.49v10.38h-5.26v-9.57c0-2.93-1.35-4.28-3.67-4.28-2.53,0-4.35,1.55-4.35,4.89v8.96h-5.26V31.86h5.26v8.76c1.42-1.42,3.44-2.16,5.76-2.16,4.28,0,7.51,2.49,7.51,8.02Z"/><path class="i" d="M343.55,49.28h-13.71c.51,2.26,2.43,3.64,5.19,3.64,1.92,0,3.3-.57,4.55-1.75l2.8,3.03c-1.68,1.92-4.21,2.93-7.48,2.93-6.27,0-10.34-3.94-10.34-9.33s4.14-9.33,9.67-9.33,9.43,3.57,9.43,9.4c0,.4-.07,.98-.1,1.42Zm-13.78-3.07h8.93c-.37-2.29-2.09-3.77-4.45-3.77s-4.11,1.45-4.48,3.77Z"/><path class="i" d="M358.41,38.47v4.85c-.44-.03-.77-.07-1.18-.07-2.9,0-4.82,1.58-4.82,5.05v8.56h-5.26v-18.13h5.02v2.39c1.28-1.75,3.44-2.66,6.23-2.66Z"/><path class="i" d="M386.91,40.96l-11.22,4.11,11.22,4.08v4.21l-16.04-6.1v-4.38l16.04-6.1v4.18Z"/><path class="i" d="M389.64,55.18l1.75-3.77c1.62,1.04,4.08,1.75,6.3,1.75,2.43,0,3.33-.64,3.33-1.65,0-2.96-10.95,.07-10.95-7.18,0-3.44,3.1-5.86,8.39-5.86,2.49,0,5.26,.57,6.97,1.58l-1.75,3.74c-1.79-1.01-3.57-1.35-5.22-1.35-2.36,0-3.37,.74-3.37,1.68,0,3.1,10.95,.1,10.95,7.24,0,3.37-3.13,5.76-8.56,5.76-3.07,0-6.17-.84-7.85-1.95Z"/><path class="i" d="M425.32,46.52v10.34h-4.92v-2.26c-.98,1.65-2.86,2.53-5.53,2.53-4.25,0-6.77-2.36-6.77-5.49s2.26-5.42,7.78-5.42h4.18c0-2.26-1.35-3.57-4.18-3.57-1.92,0-3.91,.64-5.22,1.68l-1.89-3.67c1.99-1.42,4.92-2.19,7.82-2.19,5.53,0,8.73,2.56,8.73,8.05Zm-5.26,4.62v-1.85h-3.61c-2.46,0-3.23,.91-3.23,2.12,0,1.31,1.11,2.19,2.96,2.19,1.75,0,3.27-.81,3.88-2.46Z"/><path class="i" d="M460.7,46.49v10.38h-5.26v-9.57c0-2.93-1.31-4.28-3.44-4.28-2.36,0-4.01,1.52-4.01,4.75v9.1h-5.26v-9.57c0-2.93-1.25-4.28-3.44-4.28-2.32,0-3.98,1.52-3.98,4.75v9.1h-5.26v-18.13h5.02v2.09c1.35-1.55,3.37-2.36,5.69-2.36,2.53,0,4.68,.98,5.96,2.96,1.45-1.85,3.81-2.96,6.54-2.96,4.31,0,7.41,2.49,7.41,8.02Z"/><path class="i" d="M496.55,47.63c0,6.03-2.76,9.47-6.91,9.47-2.29,0-3.91-1.01-4.62-2.93-1.18,1.89-3.1,2.93-5.76,2.93-4.35,0-7.78-3.44-7.78-8.52s3.4-8.49,7.78-8.49c2.22,0,3.98,.77,5.19,2.22v-1.99h4.58v10.92c0,1.62,.71,2.16,1.62,2.16,1.55,0,2.49-1.79,2.49-5.69,0-6.84-5.05-11.56-12.53-11.56s-12.53,5.12-12.53,12.16,4.92,12.26,12.4,12.26c2.12,0,4.52-.44,6.64-1.48l1.08,3.1c-2.06,1.04-5.05,1.62-7.72,1.62-9.74,0-16.17-6.6-16.17-15.5s6.5-15.36,16.31-15.36,15.94,6.23,15.94,14.69Zm-12.03,.94c0-2.93-1.79-4.58-4.21-4.58s-4.18,1.72-4.18,4.58,1.72,4.65,4.18,4.65,4.21-1.68,4.21-4.65Z"/><path class="i" d="M511.54,38.47v4.85c-.44-.03-.77-.07-1.18-.07-2.9,0-4.82,1.58-4.82,5.05v8.56h-5.26v-18.13h5.02v2.39c1.28-1.75,3.44-2.66,6.23-2.66Z"/><path class="i" d="M532.16,49.28h-13.71c.5,2.26,2.43,3.64,5.19,3.64,1.92,0,3.3-.57,4.55-1.75l2.8,3.03c-1.69,1.92-4.21,2.93-7.48,2.93-6.27,0-10.34-3.94-10.34-9.33s4.14-9.33,9.67-9.33,9.43,3.57,9.43,9.4c0,.4-.07,.98-.1,1.42Zm-13.78-3.07h8.93c-.37-2.29-2.09-3.77-4.45-3.77s-4.11,1.45-4.48,3.77Z"/><path class="i" d="M551.3,46.52v10.34h-4.92v-2.26c-.98,1.65-2.86,2.53-5.53,2.53-4.25,0-6.77-2.36-6.77-5.49s2.26-5.42,7.78-5.42h4.18c0-2.26-1.35-3.57-4.18-3.57-1.92,0-3.91,.64-5.22,1.68l-1.89-3.67c1.99-1.42,4.92-2.19,7.82-2.19,5.53,0,8.73,2.56,8.73,8.05Zm-5.26,4.62v-1.85h-3.61c-2.46,0-3.23,.91-3.23,2.12,0,1.31,1.11,2.19,2.96,2.19,1.75,0,3.27-.81,3.88-2.46Z"/><path class="i" d="M554.91,47.8c0-5.46,4.21-9.33,10.11-9.33,3.81,0,6.81,1.65,8.12,4.62l-4.08,2.19c-.98-1.72-2.43-2.49-4.08-2.49-2.66,0-4.75,1.85-4.75,5.02s2.09,5.02,4.75,5.02c1.65,0,3.1-.74,4.08-2.49l4.08,2.22c-1.31,2.9-4.31,4.58-8.12,4.58-5.9,0-10.11-3.87-10.11-9.33Z"/><path class="i" d="M594.56,46.49v10.38h-5.26v-9.57c0-2.93-1.35-4.28-3.67-4.28-2.53,0-4.35,1.55-4.35,4.89v8.96h-5.26V31.86h5.26v8.76c1.42-1.42,3.44-2.16,5.76-2.16,4.28,0,7.51,2.49,7.51,8.02Z"/><path class="i" d="M617.17,49.28h-13.71c.51,2.26,2.43,3.64,5.19,3.64,1.92,0,3.3-.57,4.55-1.75l2.8,3.03c-1.68,1.92-4.21,2.93-7.48,2.93-6.27,0-10.34-3.94-10.34-9.33s4.14-9.33,9.67-9.33,9.43,3.57,9.43,9.4c0,.4-.07,.98-.1,1.42Zm-13.78-3.07h8.93c-.37-2.29-2.09-3.77-4.45-3.77s-4.11,1.45-4.48,3.77Z"/><path class="i" d="M632.03,38.47v4.85c-.44-.03-.77-.07-1.18-.07-2.9,0-4.82,1.58-4.82,5.05v8.56h-5.26v-18.13h5.02v2.39c1.28-1.75,3.44-2.66,6.23-2.66Z"/><path class="i" d="M633.68,53.83c0-1.95,1.45-3.23,3.27-3.23s3.27,1.28,3.27,3.23-1.45,3.3-3.27,3.3-3.27-1.38-3.27-3.3Z"/><path class="i" d="M674.42,46.49v10.38h-5.26v-9.57c0-2.93-1.31-4.28-3.44-4.28-2.36,0-4.01,1.52-4.01,4.75v9.1h-5.26v-9.57c0-2.93-1.25-4.28-3.44-4.28-2.32,0-3.98,1.52-3.98,4.75v9.1h-5.26v-18.13h5.02v2.09c1.35-1.55,3.37-2.36,5.69-2.36,2.53,0,4.68,.98,5.96,2.96,1.45-1.85,3.81-2.96,6.54-2.96,4.31,0,7.41,2.49,7.41,8.02Z"/><path class="i" d="M696.99,49.28h-13.71c.51,2.26,2.43,3.64,5.19,3.64,1.92,0,3.3-.57,4.55-1.75l2.8,3.03c-1.68,1.92-4.21,2.93-7.48,2.93-6.27,0-10.34-3.94-10.34-9.33s4.14-9.33,9.67-9.33,9.43,3.57,9.43,9.4c0,.4-.07,.98-.1,1.42Zm-13.78-3.07h8.93c-.37-2.29-2.09-3.77-4.45-3.77s-4.11,1.45-4.48,3.77Z"/><path class="i" d="M716.3,42.88v4.38l-16.04,6.1v-4.21l11.22-4.08-11.22-4.11v-4.18l16.04,6.1Z"/></g><line class="g" x1="40.6" y1="81.7" x2="798.4" y2="81.7"/><g><path class="j" d="M42.61,200.92l2.19-4.92c2.09,1.38,5.05,2.32,7.78,2.32s3.84-.77,3.84-1.92c0-3.74-13.41-1.01-13.41-9.77,0-4.21,3.44-7.65,10.44-7.65,3.07,0,6.23,.71,8.56,2.06l-2.06,4.95c-2.26-1.21-4.48-1.82-6.54-1.82-2.8,0-3.81,.94-3.81,2.12,0,3.6,13.38,.91,13.38,9.6,0,4.11-3.44,7.61-10.44,7.61-3.87,0-7.72-1.04-9.94-2.59Z"/><path class="j" d="M84.96,184.78v18.26h-6.1v-1.95c-1.38,1.52-3.34,2.26-5.42,2.26-4.48,0-7.75-2.56-7.75-8.36v-10.21h6.4v9.16c0,2.83,1.11,3.94,3.03,3.94s3.44-1.25,3.44-4.31v-8.79h6.4Z"/><path class="j" d="M109.52,193.87c0,5.83-4.01,9.47-8.96,9.47-2.39,0-4.18-.67-5.39-2.12v1.82h-6.1v-25h6.4v8.32c1.25-1.28,2.96-1.89,5.09-1.89,4.95,0,8.96,3.6,8.96,9.4Zm-6.47,0c0-2.76-1.68-4.31-3.84-4.31s-3.84,1.55-3.84,4.31,1.68,4.38,3.84,4.38,3.84-1.58,3.84-4.38Z"/><path class="j" d="M107.27,208.93l1.62-4.55c.54,.34,1.25,.54,1.99,.54,1.11,0,1.89-.74,1.89-2.39v-17.76h6.4v17.79c0,4.45-2.73,7.31-7.45,7.31-1.68,0-3.34-.3-4.45-.94Zm4.78-29.58c0-1.92,1.55-3.4,3.91-3.4s3.91,1.38,3.91,3.3c0,2.02-1.55,3.5-3.91,3.5s-3.91-1.48-3.91-3.4Z"/><path class="j" d="M141.83,195.52h-13.27c.54,1.85,2.12,2.93,4.48,2.93,1.79,0,2.96-.51,4.21-1.58l3.37,3.5c-1.75,1.95-4.31,2.96-7.78,2.96-6.5,0-10.71-4.01-10.71-9.47s4.28-9.4,10.04-9.4c5.39,0,9.77,3.44,9.77,9.47,0,.47-.07,1.08-.1,1.58Zm-13.38-3.37h7.48c-.34-1.92-1.75-3.13-3.74-3.13s-3.37,1.21-3.74,3.13Z"/><path class="j" d="M143.76,193.87c0-5.49,4.35-9.4,10.48-9.4,4.14,0,7.31,1.85,8.56,5.02l-4.95,2.53c-.88-1.72-2.16-2.46-3.64-2.46-2.22,0-3.98,1.55-3.98,4.31s1.75,4.38,3.98,4.38c1.48,0,2.76-.74,3.64-2.46l4.95,2.53c-1.25,3.17-4.41,5.02-8.56,5.02-6.13,0-10.48-3.91-10.48-9.47Z"/><path class="j" d="M178.12,202.3c-1.11,.71-2.76,1.04-4.45,1.04-4.68,0-7.41-2.29-7.41-6.97v-6.13h-2.66v-4.78h2.66v-4.75h6.4v4.75h4.18v4.78h-4.18v6.06c0,1.35,.77,2.09,1.92,2.09,.71,0,1.42-.2,1.95-.57l1.58,4.48Z"/><path class="j" d="M179.44,188.25c0-2.29,1.68-3.77,3.84-3.77s3.84,1.48,3.84,3.77-1.65,3.81-3.84,3.81-3.84-1.58-3.84-3.81Zm0,11.29c0-2.29,1.68-3.77,3.84-3.77s3.84,1.48,3.84,3.77-1.65,3.81-3.84,3.81-3.84-1.58-3.84-3.81Z"/><path class="i" d="M232.1,179.45v23.58h-4.48l-11.76-14.32v14.32h-5.39v-23.58h4.51l11.72,14.32v-14.32h5.39Z"/><path class="i" d="M254.97,195.46h-13.71c.51,2.26,2.43,3.64,5.19,3.64,1.92,0,3.3-.57,4.55-1.75l2.8,3.03c-1.68,1.92-4.21,2.93-7.48,2.93-6.27,0-10.34-3.94-10.34-9.33s4.14-9.33,9.67-9.33,9.43,3.57,9.43,9.4c0,.4-.07,.98-.1,1.42Zm-13.78-3.07h8.93c-.37-2.29-2.09-3.77-4.45-3.77s-4.11,1.45-4.48,3.77Z"/><path class="i" d="M287.35,184.91l-6.57,18.13h-5.05l-4.08-11.25-4.21,11.25h-5.05l-6.54-18.13h4.95l4.28,12.26,4.45-12.26h4.45l4.31,12.26,4.41-12.26h4.65Z"/><path class="i" d="M314.74,203.04l-4.55-6.57h-5.02v6.57h-5.46v-23.58h10.21c6.3,0,10.24,3.27,10.24,8.56,0,3.54-1.79,6.13-4.85,7.45l5.29,7.58h-5.86Zm-5.12-19.14h-4.45v8.22h4.45c3.34,0,5.02-1.55,5.02-4.11s-1.68-4.11-5.02-4.11Z"/><path class="i" d="M341.77,195.46h-13.71c.51,2.26,2.43,3.64,5.19,3.64,1.92,0,3.3-.57,4.55-1.75l2.8,3.03c-1.68,1.92-4.21,2.93-7.48,2.93-6.27,0-10.34-3.94-10.34-9.33s4.14-9.33,9.67-9.33,9.43,3.57,9.43,9.4c0,.4-.07,.98-.1,1.42Zm-13.78-3.07h8.93c-.37-2.29-2.09-3.77-4.45-3.77s-4.11,1.45-4.48,3.77Z"/><path class="i" d="M360.9,192.69v10.34h-4.92v-2.26c-.98,1.65-2.86,2.53-5.53,2.53-4.25,0-6.77-2.36-6.77-5.49s2.26-5.42,7.78-5.42h4.18c0-2.26-1.35-3.57-4.18-3.57-1.92,0-3.91,.64-5.22,1.68l-1.89-3.67c1.99-1.42,4.92-2.19,7.82-2.19,5.53,0,8.73,2.56,8.73,8.05Zm-5.26,4.62v-1.85h-3.6c-2.46,0-3.23,.91-3.23,2.12,0,1.31,1.11,2.19,2.96,2.19,1.75,0,3.27-.81,3.87-2.46Z"/><path class="i" d="M364.51,193.97c0-5.46,4.21-9.33,10.11-9.33,3.81,0,6.81,1.65,8.12,4.62l-4.08,2.19c-.98-1.72-2.43-2.49-4.08-2.49-2.66,0-4.75,1.85-4.75,5.02s2.09,5.02,4.75,5.02c1.65,0,3.1-.74,4.08-2.49l4.08,2.22c-1.31,2.9-4.31,4.58-8.12,4.58-5.9,0-10.11-3.87-10.11-9.33Z"/><path class="i" d="M404.17,192.66v10.38h-5.26v-9.57c0-2.93-1.35-4.28-3.67-4.28-2.53,0-4.35,1.55-4.35,4.89v8.96h-5.26v-25h5.26v8.76c1.42-1.42,3.44-2.16,5.76-2.16,4.28,0,7.51,2.49,7.51,8.02Z"/><path class="i" d="M426.77,195.46h-13.71c.51,2.26,2.43,3.64,5.19,3.64,1.92,0,3.3-.57,4.55-1.75l2.8,3.03c-1.68,1.92-4.21,2.93-7.48,2.93-6.27,0-10.34-3.94-10.34-9.33s4.14-9.33,9.67-9.33,9.43,3.57,9.43,9.4c0,.4-.07,.98-.1,1.42Zm-13.78-3.07h8.93c-.37-2.29-2.09-3.77-4.45-3.77s-4.11,1.45-4.48,3.77Z"/><path class="i" d="M441.63,184.64v4.85c-.44-.03-.78-.07-1.18-.07-2.9,0-4.82,1.58-4.82,5.05v8.56h-5.26v-18.13h5.02v2.39c1.28-1.75,3.44-2.66,6.23-2.66Z"/><path class="i" d="M473.07,198.66v4.38h-18.26v-23.58h17.82v4.38h-12.4v5.12h10.95v4.25h-10.95v5.46h12.84Z"/><path class="i" d="M507.67,192.66v10.38h-5.26v-9.57c0-2.93-1.31-4.28-3.44-4.28-2.36,0-4.01,1.52-4.01,4.75v9.1h-5.26v-9.57c0-2.93-1.25-4.28-3.44-4.28-2.32,0-3.98,1.52-3.98,4.75v9.1h-5.26v-18.13h5.02v2.09c1.35-1.55,3.37-2.36,5.69-2.36,2.53,0,4.68,.98,5.96,2.96,1.45-1.85,3.81-2.96,6.54-2.96,4.31,0,7.41,2.49,7.41,8.02Z"/><path class="i" d="M528.42,192.69v10.34h-4.92v-2.26c-.98,1.65-2.86,2.53-5.53,2.53-4.25,0-6.77-2.36-6.77-5.49s2.26-5.42,7.78-5.42h4.18c0-2.26-1.35-3.57-4.18-3.57-1.92,0-3.91,.64-5.22,1.68l-1.89-3.67c1.99-1.42,4.92-2.19,7.82-2.19,5.53,0,8.73,2.56,8.73,8.05Zm-5.26,4.62v-1.85h-3.6c-2.46,0-3.23,.91-3.23,2.12,0,1.31,1.11,2.19,2.96,2.19,1.75,0,3.27-.81,3.87-2.46Z"/><path class="i" d="M532.54,179.45c0-1.65,1.31-2.93,3.27-2.93s3.27,1.21,3.27,2.83c0,1.75-1.31,3.03-3.27,3.03s-3.27-1.28-3.27-2.93Zm.64,5.46h5.26v18.13h-5.26v-18.13Z"/><path class="i" d="M543.32,178.04h5.26v25h-5.26v-25Z"/><path class="i" d="M552.18,187.91c0-1.95,1.45-3.23,3.27-3.23s3.27,1.28,3.27,3.23-1.45,3.3-3.27,3.3-3.27-1.38-3.27-3.3Zm0,12.1c0-1.95,1.45-3.23,3.27-3.23s3.27,1.28,3.27,3.23-1.45,3.3-3.27,3.3-3.27-1.38-3.27-3.3Z"/><path class="i" d="M607.84,179.45l-7.72,23.58h-5.86l-5.19-15.97-5.36,15.97h-5.83l-7.75-23.58h5.66l5.32,16.58,5.56-16.58h5.05l5.39,16.71,5.49-16.71h5.22Z"/><path class="i" d="M625.19,192.69v10.34h-4.92v-2.26c-.98,1.65-2.86,2.53-5.53,2.53-4.25,0-6.77-2.36-6.77-5.49s2.26-5.42,7.78-5.42h4.18c0-2.26-1.35-3.57-4.18-3.57-1.92,0-3.91,.64-5.22,1.68l-1.89-3.67c1.99-1.42,4.92-2.19,7.82-2.19,5.53,0,8.73,2.56,8.73,8.05Zm-5.26,4.62v-1.85h-3.61c-2.46,0-3.23,.91-3.23,2.12,0,1.31,1.11,2.19,2.96,2.19,1.75,0,3.27-.81,3.88-2.46Z"/><path class="i" d="M648.47,192.66v10.38h-5.26v-9.57c0-2.93-1.35-4.28-3.67-4.28-2.53,0-4.35,1.55-4.35,4.89v8.96h-5.26v-18.13h5.02v2.12c1.41-1.55,3.54-2.39,6-2.39,4.28,0,7.51,2.49,7.51,8.02Z"/><path class="i" d="M664.92,202.16c-1.08,.77-2.66,1.15-4.28,1.15-4.28,0-6.77-2.19-6.77-6.5v-7.45h-2.8v-4.04h2.8v-4.41h5.26v4.41h4.51v4.04h-4.51v7.38c0,1.55,.84,2.39,2.26,2.39,.77,0,1.55-.24,2.12-.67l1.42,3.71Z"/><path class="i" d="M684.96,195.46h-13.71c.5,2.26,2.43,3.64,5.19,3.64,1.92,0,3.3-.57,4.55-1.75l2.8,3.03c-1.69,1.92-4.21,2.93-7.48,2.93-6.27,0-10.34-3.94-10.34-9.33s4.14-9.33,9.67-9.33,9.43,3.57,9.43,9.4c0,.4-.07,.98-.1,1.42Zm-13.78-3.07h8.93c-.37-2.29-2.09-3.77-4.45-3.77s-4.11,1.45-4.48,3.77Z"/><path class="i" d="M707.03,178.04v25h-5.02v-2.09c-1.31,1.58-3.23,2.36-5.66,2.36-5.12,0-9.06-3.64-9.06-9.33s3.94-9.33,9.06-9.33c2.22,0,4.11,.71,5.42,2.19v-8.79h5.26Zm-5.15,15.94c0-3.13-2.02-5.02-4.62-5.02s-4.65,1.89-4.65,5.02,2.02,5.02,4.65,5.02,4.62-1.89,4.62-5.02Z"/><path class="i" d="M733.11,202.16c-1.08,.77-2.66,1.15-4.28,1.15-4.28,0-6.77-2.19-6.77-6.5v-7.45h-2.8v-4.04h2.8v-4.41h5.26v4.41h4.51v4.04h-4.51v7.38c0,1.55,.84,2.39,2.26,2.39,.77,0,1.55-.24,2.12-.67l1.42,3.71Z"/><path class="i" d="M734.15,193.97c0-5.46,4.21-9.33,9.97-9.33s9.94,3.87,9.94,9.33-4.18,9.33-9.94,9.33-9.97-3.87-9.97-9.33Zm14.59,0c0-3.13-1.99-5.02-4.62-5.02s-4.65,1.89-4.65,5.02,2.02,5.02,4.65,5.02,4.62-1.89,4.62-5.02Z"/><path class="i" d="M756.06,200.01c0-1.95,1.45-3.23,3.27-3.23s3.27,1.28,3.27,3.23-1.45,3.3-3.27,3.3-3.27-1.38-3.27-3.3Z"/><path class="i" d="M764.88,200.01c0-1.95,1.45-3.23,3.27-3.23s3.27,1.28,3.27,3.23-1.45,3.3-3.27,3.3-3.27-1.38-3.27-3.3Z"/><path class="i" d="M773.71,200.01c0-1.95,1.45-3.23,3.27-3.23s3.27,1.28,3.27,3.23-1.45,3.3-3.27,3.3-3.27-1.38-3.27-3.3Z"/></g><g><path class="j" d="M90.8,344.66l1.89-4.23c1.8,1.19,4.35,2,6.7,2s3.31-.67,3.31-1.65c0-3.22-11.54-.87-11.54-8.41,0-3.63,2.96-6.58,8.99-6.58,2.64,0,5.37,.61,7.37,1.77l-1.77,4.26c-1.94-1.04-3.86-1.57-5.63-1.57-2.41,0-3.28,.81-3.28,1.83,0,3.1,11.52,.78,11.52,8.27,0,3.54-2.96,6.56-8.99,6.56-3.34,0-6.64-.9-8.56-2.23Z"/><path class="j" d="M126.7,340.02h-11.43c.46,1.6,1.83,2.52,3.86,2.52,1.54,0,2.55-.44,3.63-1.36l2.9,3.02c-1.51,1.68-3.71,2.55-6.7,2.55-5.6,0-9.22-3.45-9.22-8.15s3.68-8.09,8.64-8.09c4.64,0,8.41,2.96,8.41,8.15,0,.41-.06,.93-.09,1.36Zm-11.52-2.9h6.44c-.29-1.65-1.51-2.7-3.22-2.7s-2.9,1.04-3.22,2.7Z"/><path class="j" d="M146.08,337.49v8.99h-5.51v-8.09c0-2.26-.99-3.22-2.58-3.22-1.77,0-3.13,1.1-3.13,3.71v7.6h-5.51v-15.72h5.25v1.71c1.25-1.31,3.02-1.97,4.99-1.97,3.68,0,6.5,2.12,6.5,6.99Z"/><path class="j" d="M166.46,324.96v21.52h-5.25v-1.57c-1.04,1.25-2.58,1.83-4.61,1.83-4.29,0-7.75-3.13-7.75-8.15s3.45-8.09,7.75-8.09c1.83,0,3.31,.52,4.35,1.62v-7.16h5.51Zm-5.42,13.63c0-2.38-1.42-3.71-3.28-3.71s-3.31,1.33-3.31,3.71,1.42,3.77,3.31,3.77,3.28-1.36,3.28-3.77Z"/><path class="j" d="M185.98,340.02h-11.43c.46,1.6,1.83,2.52,3.86,2.52,1.54,0,2.55-.44,3.63-1.36l2.9,3.02c-1.51,1.68-3.71,2.55-6.7,2.55-5.6,0-9.22-3.45-9.22-8.15s3.68-8.09,8.64-8.09c4.64,0,8.41,2.96,8.41,8.15,0,.41-.06,.93-.09,1.36Zm-11.52-2.9h6.44c-.29-1.65-1.51-2.7-3.22-2.7s-2.9,1.04-3.22,2.7Z"/><path class="j" d="M199.14,330.5v4.96c-.49-.06-.84-.09-1.25-.09-2.23,0-3.77,1.13-3.77,3.89v7.22h-5.51v-15.72h5.25v1.89c1.13-1.42,2.96-2.15,5.28-2.15Z"/><path class="j" d="M200.68,333.46c0-1.68,1.25-2.78,2.81-2.78s2.81,1.1,2.81,2.78-1.25,2.84-2.81,2.84-2.81-1.19-2.81-2.84Zm0,10.41c0-1.68,1.25-2.78,2.81-2.78s2.81,1.1,2.81,2.78-1.25,2.84-2.81,2.84-2.81-1.19-2.81-2.84Z"/><path class="j" d="M215.03,343.87l2.61-3.13c1.1,1.48,2.32,2.23,3.77,2.23,1.89,0,2.87-1.13,2.87-3.36v-9.66h-7.14v-3.77h11.81v13.17c0,5.02-2.52,7.48-7.31,7.48-2.73,0-5.13-1.04-6.61-2.96Z"/><path class="j" d="M232.72,326.18c0-1.42,1.13-2.52,2.81-2.52s2.81,1.04,2.81,2.44c0,1.51-1.13,2.61-2.81,2.61s-2.81-1.1-2.81-2.52Zm.55,4.7h4.53v15.61h-4.53v-15.61Z"/><path class="j" d="M242,324.96h4.53v21.52h-4.53v-21.52Z"/><path class="j" d="M250.73,324.96h4.53v21.52h-4.53v-21.52Z"/><path class="j" d="M267.7,338.54c0-5.34,1.31-10.12,3.63-13.58h4.32c-2.47,4.35-3.51,8.7-3.51,13.58s1.04,9.22,3.51,13.58h-4.32c-2.32-3.51-3.63-8.24-3.63-13.58Z"/><path class="j" d="M276.22,351.47l1.22-3.28c.49,.35,1.16,.55,1.91,.55,1.13,0,1.86-.73,1.86-2.26v-15.61h4.52v15.58c0,3.6-2.12,5.89-5.89,5.89-1.39,0-2.76-.26-3.63-.87Zm4.44-25.29c0-1.42,1.13-2.52,2.81-2.52s2.81,1.04,2.81,2.44c0,1.51-1.13,2.61-2.81,2.61s-2.81-1.1-2.81-2.52Z"/><path class="j" d="M289.36,326.18c0-1.42,1.13-2.52,2.81-2.52s2.81,1.04,2.81,2.44c0,1.51-1.13,2.61-2.81,2.61s-2.81-1.1-2.81-2.52Zm.55,4.7h4.53v15.61h-4.53v-15.61Z"/><path class="j" d="M298.64,324.96h4.53v21.52h-4.53v-21.52Z"/><path class="j" d="M307.37,324.96h4.53v21.52h-4.53v-21.52Z"/><path class="j" d="M342.9,338.54c0,5.19-2.38,8.15-5.95,8.15-1.97,0-3.36-.87-3.97-2.52-1.02,1.62-2.67,2.52-4.96,2.52-3.74,0-6.7-2.96-6.7-7.34s2.93-7.31,6.7-7.31c1.91,0,3.42,.67,4.47,1.91v-1.71h3.94v9.4c0,1.39,.61,1.86,1.39,1.86,1.33,0,2.15-1.54,2.15-4.9,0-5.89-4.35-9.95-10.79-9.95s-10.79,4.41-10.79,10.47,4.24,10.56,10.67,10.56c1.83,0,3.89-.38,5.71-1.28l.93,2.67c-1.77,.9-4.35,1.39-6.64,1.39-8.38,0-13.92-5.69-13.92-13.34s5.6-13.23,14.04-13.23,13.72,5.37,13.72,12.65Zm-10.36,.81c0-2.52-1.54-3.94-3.63-3.94s-3.6,1.48-3.6,3.94,1.48,4,3.6,4,3.63-1.45,3.63-4Z"/><path class="j" d="M362.07,337.55v8.93h-4.53v-8.24c0-2.52-1.16-3.68-3.16-3.68-2.18,0-3.74,1.33-3.74,4.21v7.72h-4.53v-15.61h4.32v1.83c1.22-1.33,3.05-2.06,5.16-2.06,3.68,0,6.47,2.15,6.47,6.9Z"/><path class="j" d="M365.16,338.68c0-4.7,3.63-8.04,8.59-8.04s8.56,3.34,8.56,8.04-3.6,8.03-8.56,8.03-8.59-3.34-8.59-8.03Zm12.56,0c0-2.7-1.71-4.32-3.97-4.32s-4,1.62-4,4.32,1.74,4.32,4,4.32,3.97-1.62,3.97-4.32Z"/><path class="j" d="M395.38,345.73c-.93,.67-2.29,.99-3.68,.99-3.68,0-5.83-1.89-5.83-5.6v-6.41h-2.41v-3.48h2.41v-3.8h4.52v3.8h3.89v3.48h-3.89v6.35c0,1.33,.73,2.06,1.94,2.06,.67,0,1.33-.2,1.83-.58l1.22,3.19Z"/><path class="j" d="M413.54,330.88v13c0,5.8-3.13,8.47-8.76,8.47-2.96,0-5.83-.73-7.66-2.15l1.8-3.25c1.33,1.07,3.51,1.77,5.51,1.77,3.19,0,4.58-1.45,4.58-4.26v-.67c-1.19,1.31-2.9,1.94-4.93,1.94-4.32,0-7.8-2.99-7.8-7.54s3.48-7.54,7.8-7.54c2.18,0,3.97,.73,5.16,2.23v-2h4.29Zm-4.47,7.31c0-2.29-1.71-3.83-4.09-3.83s-4.12,1.54-4.12,3.83,1.74,3.83,4.12,3.83,4.09-1.54,4.09-3.83Z"/><path class="j" d="M444.11,337.55v8.93h-4.53v-8.24c0-2.52-1.13-3.68-2.96-3.68-2.03,0-3.45,1.31-3.45,4.09v7.83h-4.52v-8.24c0-2.52-1.07-3.68-2.96-3.68-2,0-3.42,1.31-3.42,4.09v7.83h-4.53v-15.61h4.32v1.8c1.16-1.33,2.9-2.03,4.9-2.03,2.18,0,4.03,.84,5.13,2.55,1.25-1.6,3.28-2.55,5.63-2.55,3.71,0,6.38,2.15,6.38,6.9Z"/><path class="j" d="M461.97,337.58v8.91h-4.23v-1.94c-.84,1.42-2.47,2.18-4.76,2.18-3.65,0-5.83-2.03-5.83-4.73s1.94-4.67,6.7-4.67h3.6c0-1.94-1.16-3.07-3.6-3.07-1.65,0-3.36,.55-4.5,1.45l-1.62-3.16c1.71-1.22,4.24-1.89,6.73-1.89,4.76,0,7.51,2.2,7.51,6.93Zm-4.52,3.97v-1.6h-3.1c-2.12,0-2.78,.78-2.78,1.83,0,1.13,.96,1.89,2.55,1.89,1.51,0,2.81-.7,3.34-2.12Z"/><path class="j" d="M465.5,326.18c0-1.42,1.13-2.52,2.81-2.52s2.81,1.04,2.81,2.44c0,1.51-1.13,2.61-2.81,2.61s-2.81-1.1-2.81-2.52Zm.55,4.7h4.52v15.61h-4.52v-15.61Z"/><path class="j" d="M474.78,324.96h4.52v21.52h-4.52v-21.52Z"/><path class="j" d="M482.41,343.87c0-1.68,1.25-2.78,2.81-2.78s2.81,1.1,2.81,2.78-1.25,2.84-2.81,2.84-2.81-1.19-2.81-2.84Z"/><path class="j" d="M489.75,338.68c0-4.7,3.63-8.04,8.7-8.04,3.28,0,5.86,1.42,6.99,3.97l-3.51,1.89c-.84-1.48-2.09-2.15-3.51-2.15-2.29,0-4.09,1.6-4.09,4.32s1.8,4.32,4.09,4.32c1.42,0,2.67-.64,3.51-2.15l3.51,1.91c-1.13,2.49-3.71,3.94-6.99,3.94-5.08,0-8.7-3.34-8.7-8.03Z"/><path class="j" d="M506.68,338.68c0-4.7,3.62-8.04,8.59-8.04s8.56,3.34,8.56,8.04-3.6,8.03-8.56,8.03-8.59-3.34-8.59-8.03Zm12.56,0c0-2.7-1.71-4.32-3.97-4.32s-4,1.62-4,4.32,1.74,4.32,4,4.32,3.97-1.62,3.97-4.32Z"/><path class="j" d="M553.21,337.55v8.93h-4.53v-8.24c0-2.52-1.13-3.68-2.96-3.68-2.03,0-3.45,1.31-3.45,4.09v7.83h-4.53v-8.24c0-2.52-1.07-3.68-2.96-3.68-2,0-3.42,1.31-3.42,4.09v7.83h-4.52v-15.61h4.32v1.8c1.16-1.33,2.9-2.03,4.9-2.03,2.18,0,4.03,.84,5.13,2.55,1.25-1.6,3.28-2.55,5.63-2.55,3.71,0,6.38,2.15,6.38,6.9Z"/><path class="j" d="M555.46,352.11c2.49-4.35,3.54-8.7,3.54-13.58s-1.04-9.22-3.54-13.58h4.32c2.38,3.45,3.65,8.24,3.65,13.58s-1.28,10.07-3.65,13.58h-4.32Z"/><path class="j" d="M90.8,396.78l1.89-4.23c1.8,1.19,4.35,2,6.7,2s3.31-.67,3.31-1.65c0-3.22-11.54-.87-11.54-8.41,0-3.63,2.96-6.58,8.99-6.58,2.64,0,5.37,.61,7.37,1.77l-1.77,4.26c-1.94-1.04-3.86-1.57-5.63-1.57-2.41,0-3.28,.81-3.28,1.83,0,3.1,11.52,.78,11.52,8.27,0,3.54-2.96,6.56-8.99,6.56-3.34,0-6.64-.9-8.56-2.23Z"/><path class="j" d="M127.26,382.89v15.72h-5.25v-1.68c-1.19,1.31-2.87,1.94-4.67,1.94-3.86,0-6.67-2.2-6.67-7.19v-8.79h5.51v7.89c0,2.44,.96,3.39,2.61,3.39s2.96-1.07,2.96-3.71v-7.57h5.51Z"/><path class="j" d="M148.4,390.72c0,5.02-3.45,8.15-7.72,8.15-2.06,0-3.6-.58-4.64-1.83v1.57h-5.25v-21.52h5.51v7.16c1.07-1.1,2.55-1.62,4.38-1.62,4.26,0,7.72,3.1,7.72,8.09Zm-5.57,0c0-2.38-1.45-3.71-3.31-3.71s-3.31,1.33-3.31,3.71,1.45,3.77,3.31,3.77,3.31-1.36,3.31-3.77Z"/><path class="j" d="M146.45,403.69l1.39-3.92c.46,.29,1.07,.46,1.71,.46,.96,0,1.62-.64,1.62-2.06v-15.29h5.51v15.32c0,3.83-2.35,6.29-6.41,6.29-1.45,0-2.87-.26-3.83-.81Zm4.12-25.47c0-1.65,1.33-2.93,3.37-2.93s3.36,1.19,3.36,2.84c0,1.74-1.33,3.02-3.36,3.02s-3.37-1.28-3.37-2.93Z"/><path class="j" d="M176.21,392.14h-11.43c.46,1.6,1.83,2.52,3.86,2.52,1.54,0,2.55-.44,3.63-1.36l2.9,3.02c-1.51,1.68-3.71,2.55-6.7,2.55-5.6,0-9.22-3.45-9.22-8.15s3.68-8.09,8.64-8.09c4.64,0,8.41,2.96,8.41,8.15,0,.41-.06,.93-.09,1.36Zm-11.52-2.9h6.44c-.29-1.65-1.51-2.7-3.22-2.7s-2.9,1.04-3.22,2.7Z"/><path class="j" d="M177.86,390.72c0-4.73,3.74-8.09,9.02-8.09,3.57,0,6.29,1.6,7.37,4.32l-4.26,2.18c-.75-1.48-1.86-2.12-3.13-2.12-1.91,0-3.42,1.33-3.42,3.71s1.51,3.77,3.42,3.77c1.28,0,2.38-.64,3.13-2.12l4.26,2.18c-1.07,2.73-3.8,4.32-7.37,4.32-5.28,0-9.02-3.36-9.02-8.15Z"/><path class="j" d="M207.44,397.97c-.96,.61-2.38,.9-3.83,.9-4.03,0-6.38-1.97-6.38-6v-5.28h-2.29v-4.12h2.29v-4.09h5.51v4.09h3.6v4.12h-3.6v5.22c0,1.16,.67,1.8,1.65,1.8,.61,0,1.22-.17,1.68-.49l1.36,3.86Z"/><path class="j" d="M208.77,385.59c0-1.68,1.25-2.78,2.81-2.78s2.81,1.1,2.81,2.78-1.25,2.84-2.81,2.84-2.81-1.19-2.81-2.84Zm0,10.41c0-1.68,1.25-2.78,2.81-2.78s2.81,1.1,2.81,2.78-1.25,2.84-2.81,2.84-2.81-1.19-2.81-2.84Z"/><path class="j" d="M256.68,378.3l-6.64,20.3h-5.05l-4.47-13.75-4.61,13.75h-5.02l-6.67-20.3h4.87l4.58,14.27,4.79-14.27h4.35l4.64,14.39,4.73-14.39h4.5Z"/><path class="j" d="M271.62,389.7v8.91h-4.24v-1.94c-.84,1.42-2.47,2.18-4.76,2.18-3.66,0-5.83-2.03-5.83-4.73s1.94-4.67,6.7-4.67h3.6c0-1.94-1.16-3.07-3.6-3.07-1.65,0-3.36,.55-4.5,1.45l-1.62-3.16c1.71-1.22,4.23-1.89,6.73-1.89,4.76,0,7.51,2.2,7.51,6.93Zm-4.53,3.97v-1.6h-3.1c-2.12,0-2.78,.78-2.78,1.83,0,1.13,.96,1.89,2.55,1.89,1.51,0,2.81-.7,3.34-2.12Z"/><path class="j" d="M291.65,389.68v8.93h-4.53v-8.24c0-2.52-1.16-3.68-3.16-3.68-2.18,0-3.74,1.33-3.74,4.21v7.72h-4.53v-15.61h4.32v1.83c1.22-1.33,3.05-2.06,5.16-2.06,3.68,0,6.47,2.15,6.47,6.9Z"/><path class="j" d="M305.8,397.85c-.93,.67-2.29,.99-3.68,.99-3.68,0-5.83-1.89-5.83-5.6v-6.41h-2.41v-3.48h2.41v-3.8h4.52v3.8h3.89v3.48h-3.89v6.35c0,1.33,.73,2.06,1.94,2.06,.67,0,1.33-.2,1.83-.58l1.22,3.19Z"/><path class="j" d="M323.06,392.08h-11.81c.44,1.94,2.09,3.13,4.47,3.13,1.65,0,2.84-.49,3.92-1.51l2.41,2.61c-1.45,1.65-3.63,2.52-6.44,2.52-5.4,0-8.91-3.39-8.91-8.03s3.57-8.04,8.33-8.04,8.12,3.07,8.12,8.09c0,.35-.06,.84-.09,1.22Zm-11.86-2.64h7.69c-.32-1.97-1.8-3.25-3.83-3.25s-3.54,1.25-3.86,3.25Z"/><path class="j" d="M342.06,377.09v21.52h-4.32v-1.8c-1.13,1.36-2.78,2.03-4.87,2.03-4.41,0-7.8-3.13-7.8-8.03s3.39-8.04,7.8-8.04c1.91,0,3.54,.61,4.67,1.89v-7.57h4.53Zm-4.44,13.72c0-2.7-1.74-4.32-3.97-4.32s-4,1.62-4,4.32,1.74,4.32,4,4.32,3.97-1.62,3.97-4.32Z"/><path class="j" d="M364.5,397.85c-.93,.67-2.29,.99-3.68,.99-3.68,0-5.83-1.89-5.83-5.6v-6.41h-2.41v-3.48h2.41v-3.8h4.52v3.8h3.89v3.48h-3.89v6.35c0,1.33,.73,2.06,1.94,2.06,.67,0,1.33-.2,1.83-.58l1.22,3.19Z"/><path class="j" d="M365.4,390.81c0-4.7,3.63-8.04,8.59-8.04s8.56,3.34,8.56,8.04-3.6,8.03-8.56,8.03-8.59-3.34-8.59-8.03Zm12.56,0c0-2.7-1.71-4.32-3.97-4.32s-4,1.62-4,4.32,1.74,4.32,4,4.32,3.97-1.62,3.97-4.32Z"/><path class="j" d="M403.45,382.77v4.18c-.38-.03-.67-.06-1.02-.06-2.49,0-4.15,1.36-4.15,4.35v7.37h-4.53v-15.61h4.32v2.06c1.1-1.51,2.96-2.29,5.37-2.29Z"/><path class="j" d="M421.2,392.08h-11.81c.44,1.94,2.09,3.13,4.47,3.13,1.65,0,2.84-.49,3.92-1.51l2.41,2.61c-1.45,1.65-3.63,2.52-6.44,2.52-5.4,0-8.91-3.39-8.91-8.03s3.57-8.04,8.33-8.04,8.12,3.07,8.12,8.09c0,.35-.06,.84-.09,1.22Zm-11.86-2.64h7.69c-.32-1.97-1.8-3.25-3.83-3.25s-3.54,1.25-3.86,3.25Z"/><path class="j" d="M437.67,389.7v8.91h-4.24v-1.94c-.84,1.42-2.46,2.18-4.76,2.18-3.65,0-5.83-2.03-5.83-4.73s1.94-4.67,6.7-4.67h3.6c0-1.94-1.16-3.07-3.6-3.07-1.65,0-3.36,.55-4.5,1.45l-1.62-3.16c1.71-1.22,4.23-1.89,6.73-1.89,4.76,0,7.51,2.2,7.51,6.93Zm-4.53,3.97v-1.6h-3.1c-2.12,0-2.78,.78-2.78,1.83,0,1.13,.96,1.89,2.55,1.89,1.51,0,2.81-.7,3.33-2.12Z"/><path class="j" d="M440.77,390.81c0-4.7,3.63-8.04,8.7-8.04,3.28,0,5.86,1.42,6.99,3.97l-3.51,1.89c-.84-1.48-2.09-2.15-3.51-2.15-2.29,0-4.09,1.6-4.09,4.32s1.8,4.32,4.09,4.32c1.42,0,2.67-.64,3.51-2.15l3.51,1.91c-1.13,2.49-3.71,3.94-6.99,3.94-5.08,0-8.7-3.34-8.7-8.03Z"/><path class="j" d="M474.9,389.68v8.93h-4.52v-8.24c0-2.52-1.16-3.68-3.16-3.68-2.18,0-3.74,1.33-3.74,4.21v7.72h-4.52v-21.52h4.52v7.54c1.22-1.22,2.96-1.86,4.96-1.86,3.68,0,6.47,2.15,6.47,6.9Z"/><path class="j" d="M486.04,390.81c0-4.7,3.62-8.04,8.59-8.04s8.56,3.34,8.56,8.04-3.6,8.03-8.56,8.03-8.59-3.34-8.59-8.03Zm12.56,0c0-2.7-1.71-4.32-3.97-4.32s-4,1.62-4,4.32,1.74,4.32,4,4.32,3.97-1.62,3.97-4.32Z"/><path class="j" d="M521.91,383v15.61h-4.29v-1.86c-1.19,1.36-2.93,2.09-4.84,2.09-3.92,0-6.67-2.2-6.67-7.02v-8.82h4.52v8.15c0,2.61,1.16,3.77,3.16,3.77s3.6-1.33,3.6-4.21v-7.72h4.53Z"/><path class="j" d="M536.18,397.85c-.93,.67-2.29,.99-3.68,.99-3.68,0-5.83-1.89-5.83-5.6v-6.41h-2.41v-3.48h2.41v-3.8h4.53v3.8h3.89v3.48h-3.89v6.35c0,1.33,.72,2.06,1.94,2.06,.67,0,1.33-.2,1.83-.58l1.22,3.19Z"/><path class="j" d="M92.6,430.43h9.22c6.64,0,11.2,4,11.2,10.15s-4.55,10.15-11.2,10.15h-9.22v-20.3Zm8.99,16.45c4.03,0,6.67-2.41,6.67-6.29s-2.64-6.29-6.67-6.29h-4.29v12.59h4.29Z"/><path class="j" d="M131.43,444.21h-11.81c.44,1.94,2.09,3.13,4.47,3.13,1.65,0,2.84-.49,3.92-1.51l2.41,2.61c-1.45,1.65-3.63,2.52-6.44,2.52-5.4,0-8.91-3.39-8.91-8.03s3.57-8.04,8.33-8.04,8.12,3.07,8.12,8.09c0,.35-.06,.84-.09,1.22Zm-11.86-2.64h7.69c-.32-1.97-1.8-3.25-3.83-3.25s-3.54,1.25-3.86,3.25Z"/><path class="j" d="M147.9,441.83v8.91h-4.24v-1.94c-.84,1.42-2.47,2.18-4.76,2.18-3.65,0-5.83-2.03-5.83-4.73s1.94-4.67,6.7-4.67h3.6c0-1.94-1.16-3.07-3.6-3.07-1.65,0-3.36,.55-4.5,1.45l-1.62-3.16c1.71-1.22,4.23-1.89,6.73-1.89,4.76,0,7.51,2.2,7.51,6.93Zm-4.53,3.97v-1.6h-3.1c-2.12,0-2.78,.78-2.78,1.83,0,1.13,.96,1.89,2.55,1.89,1.51,0,2.81-.7,3.34-2.12Z"/><path class="j" d="M161.68,434.9v4.18c-.38-.03-.67-.06-1.02-.06-2.49,0-4.15,1.36-4.15,4.35v7.37h-4.53v-15.61h4.32v2.06c1.1-1.51,2.96-2.29,5.37-2.29Z"/><path class="j" d="M171.42,448.73l1.6-3.54c1.71,1.25,4.26,2.12,6.7,2.12,2.78,0,3.92-.93,3.92-2.18,0-3.8-11.81-1.19-11.81-8.73,0-3.45,2.78-6.32,8.56-6.32,2.55,0,5.16,.61,7.05,1.8l-1.45,3.57c-1.89-1.07-3.83-1.6-5.63-1.6-2.78,0-3.86,1.04-3.86,2.32,0,3.74,11.81,1.16,11.81,8.62,0,3.39-2.81,6.29-8.62,6.29-3.22,0-6.47-.96-8.27-2.35Z"/><path class="j" d="M205,441.83v8.91h-4.24v-1.94c-.84,1.42-2.47,2.18-4.76,2.18-3.66,0-5.83-2.03-5.83-4.73s1.94-4.67,6.7-4.67h3.6c0-1.94-1.16-3.07-3.6-3.07-1.65,0-3.36,.55-4.5,1.45l-1.62-3.16c1.71-1.22,4.23-1.89,6.73-1.89,4.76,0,7.51,2.2,7.51,6.93Zm-4.53,3.97v-1.6h-3.1c-2.12,0-2.78,.78-2.78,1.83,0,1.13,.96,1.89,2.55,1.89,1.51,0,2.81-.7,3.34-2.12Z"/><path class="j" d="M235.46,441.8v8.93h-4.53v-8.24c0-2.52-1.13-3.68-2.96-3.68-2.03,0-3.45,1.31-3.45,4.09v7.83h-4.52v-8.24c0-2.52-1.07-3.68-2.96-3.68-2,0-3.42,1.31-3.42,4.09v7.83h-4.53v-15.61h4.32v1.8c1.16-1.33,2.9-2.03,4.9-2.03,2.18,0,4.03,.84,5.13,2.55,1.25-1.6,3.28-2.55,5.63-2.55,3.71,0,6.38,2.15,6.38,6.9Z"/><path class="j" d="M238.41,448.12c0-1.68,1.25-2.78,2.81-2.78s2.81,1.1,2.81,2.78-1.25,2.84-2.81,2.84-2.81-1.19-2.81-2.84Z"/><path class="j" d="M246.01,448.12c0-1.68,1.25-2.78,2.81-2.78s2.81,1.1,2.81,2.78-1.25,2.84-2.81,2.84-2.81-1.19-2.81-2.84Z"/><path class="j" d="M253.6,448.12c0-1.68,1.25-2.78,2.81-2.78s2.81,1.1,2.81,2.78-1.25,2.84-2.81,2.84-2.81-1.19-2.81-2.84Z"/></g><line class="g" x1="40.6" y1="227.87" x2="798.4" y2="227.87"/><g><path class="j" d="M54.06,272.03v7.19h-4.7v-7.25l-7.86-13.05h4.99l5.42,9.02,5.42-9.02h4.61l-7.89,13.11Z"/><path class="j" d="M60.69,271.42c0-4.7,3.63-8.04,8.59-8.04s8.56,3.34,8.56,8.04-3.6,8.03-8.56,8.03-8.59-3.34-8.59-8.03Zm12.56,0c0-2.7-1.71-4.32-3.97-4.32s-4,1.62-4,4.32,1.74,4.32,4,4.32,3.97-1.62,3.97-4.32Z"/><path class="j" d="M96.57,263.61v15.61h-4.29v-1.86c-1.19,1.36-2.93,2.09-4.84,2.09-3.92,0-6.67-2.2-6.67-7.02v-8.82h4.52v8.15c0,2.61,1.16,3.77,3.16,3.77s3.6-1.33,3.6-4.21v-7.72h4.52Z"/><path class="j" d="M125.08,263.61v13c0,5.8-3.13,8.47-8.76,8.47-2.96,0-5.83-.73-7.66-2.15l1.8-3.25c1.33,1.07,3.51,1.77,5.51,1.77,3.19,0,4.58-1.45,4.58-4.26v-.67c-1.19,1.31-2.9,1.94-4.93,1.94-4.32,0-7.8-2.99-7.8-7.54s3.48-7.54,7.8-7.54c2.18,0,3.97,.73,5.16,2.23v-2h4.29Zm-4.47,7.31c0-2.29-1.71-3.83-4.09-3.83s-4.12,1.54-4.12,3.83,1.74,3.83,4.12,3.83,4.09-1.54,4.09-3.83Z"/><path class="j" d="M128.12,271.42c0-4.7,3.63-8.04,8.59-8.04s8.56,3.34,8.56,8.04-3.6,8.03-8.56,8.03-8.59-3.34-8.59-8.03Zm12.56,0c0-2.7-1.71-4.32-3.97-4.32s-4,1.62-4,4.32,1.74,4.32,4,4.32,3.97-1.62,3.97-4.32Z"/><path class="j" d="M158.34,278.47c-.93,.67-2.29,.99-3.68,.99-3.68,0-5.83-1.89-5.83-5.6v-6.41h-2.41v-3.48h2.41v-3.8h4.52v3.8h3.89v3.48h-3.89v6.35c0,1.33,.73,2.06,1.94,2.06,.67,0,1.33-.2,1.83-.58l1.22,3.19Z"/><path class="j" d="M179.16,278.47c-.93,.67-2.29,.99-3.68,.99-3.68,0-5.83-1.89-5.83-5.6v-6.41h-2.41v-3.48h2.41v-3.8h4.52v3.8h3.89v3.48h-3.89v6.35c0,1.33,.73,2.06,1.94,2.06,.67,0,1.33-.2,1.83-.58l1.22,3.19Z"/><path class="j" d="M181.16,258.91c0-1.42,1.13-2.52,2.81-2.52s2.81,1.04,2.81,2.44c0,1.51-1.13,2.61-2.81,2.61s-2.81-1.1-2.81-2.52Zm.55,4.7h4.53v15.61h-4.53v-15.61Z"/><path class="j" d="M207.44,271.42c0,4.9-3.39,8.03-7.77,8.03-1.94,0-3.54-.61-4.7-1.89v7.28h-4.53v-21.23h4.32v1.8c1.13-1.36,2.81-2.03,4.9-2.03,4.38,0,7.77,3.13,7.77,8.04Zm-4.58,0c0-2.7-1.71-4.32-3.97-4.32s-3.97,1.62-3.97,4.32,1.71,4.32,3.97,4.32,3.97-1.62,3.97-4.32Z"/><path class="j" d="M227.45,271.42c0,4.9-3.39,8.03-7.77,8.03-1.94,0-3.54-.61-4.7-1.89v7.28h-4.53v-21.23h4.32v1.8c1.13-1.36,2.81-2.03,4.9-2.03,4.38,0,7.77,3.13,7.77,8.04Zm-4.58,0c0-2.7-1.71-4.32-3.97-4.32s-3.97,1.62-3.97,4.32,1.71,4.32,3.97,4.32,3.97-1.62,3.97-4.32Z"/><path class="j" d="M245.66,272.69h-11.81c.44,1.94,2.09,3.13,4.47,3.13,1.65,0,2.84-.49,3.92-1.51l2.41,2.61c-1.45,1.65-3.63,2.52-6.44,2.52-5.4,0-8.91-3.39-8.91-8.03s3.57-8.04,8.33-8.04,8.12,3.07,8.12,8.09c0,.35-.06,.84-.09,1.22Zm-11.86-2.64h7.69c-.32-1.97-1.8-3.25-3.83-3.25s-3.54,1.25-3.86,3.25Z"/><path class="j" d="M264.65,257.7v21.52h-4.32v-1.8c-1.13,1.36-2.78,2.03-4.87,2.03-4.41,0-7.8-3.13-7.8-8.03s3.39-8.04,7.8-8.04c1.91,0,3.54,.61,4.67,1.89v-7.57h4.52Zm-4.44,13.72c0-2.7-1.74-4.32-3.97-4.32s-4,1.62-4,4.32,1.74,4.32,4,4.32,3.97-1.62,3.97-4.32Z"/><path class="j" d="M285.88,279.45v3.25h-2.9v-3.16c-2.87-.17-5.63-1.07-7.22-2.32l1.6-3.54c1.45,1.07,3.54,1.86,5.63,2.06v-4.84c-3.22-.78-6.82-1.86-6.82-6,0-3.07,2.23-5.71,6.82-6.24v-3.22h2.9v3.16c2.18,.17,4.29,.75,5.89,1.77l-1.45,3.57c-1.48-.84-2.99-1.33-4.44-1.51v4.93c3.22,.75,6.76,1.83,6.76,5.92,0,3.02-2.2,5.63-6.76,6.18Zm-2.9-12.82v-4.12c-1.54,.35-2.15,1.19-2.15,2.15,0,1.02,.87,1.57,2.15,1.97Zm4.99,6.99c0-1.02-.84-1.57-2.09-2v4c1.45-.32,2.09-1.07,2.09-2Z"/><path class="j" d="M294.58,269.07c0-6.7,3.71-10.5,8.7-10.5s8.7,3.8,8.7,10.5-3.68,10.5-8.7,10.5-8.7-3.8-8.7-10.5Zm12.68,0c0-4.61-1.62-6.53-3.97-6.53s-3.95,1.91-3.95,6.53,1.62,6.53,3.95,6.53,3.97-1.91,3.97-6.53Z"/><path class="j" d="M313.75,276.61c0-1.68,1.25-2.78,2.81-2.78s2.81,1.1,2.81,2.78-1.25,2.84-2.81,2.84-2.81-1.19-2.81-2.84Z"/><path class="j" d="M336.83,272.84c0,3.6-2.64,6.73-8.44,6.73-2.81,0-5.77-.78-7.75-2.18l1.86-3.6c1.54,1.16,3.65,1.83,5.77,1.83,2.35,0,3.8-.99,3.8-2.64s-1.04-2.64-4.73-2.64h-5.19l1.04-11.43h12.39v3.77h-8.47l-.32,3.86h1.65c6,0,8.38,2.7,8.38,6.29Z"/><path class="j" d="M338.74,269.07c0-6.7,3.71-10.5,8.7-10.5s8.7,3.8,8.7,10.5-3.68,10.5-8.7,10.5-8.7-3.8-8.7-10.5Zm12.68,0c0-4.61-1.62-6.53-3.97-6.53s-3.95,1.91-3.95,6.53,1.62,6.53,3.95,6.53,3.97-1.91,3.97-6.53Z"/><path class="j" d="M377.66,278.47c-.93,.67-2.29,.99-3.68,.99-3.68,0-5.83-1.89-5.83-5.6v-6.41h-2.41v-3.48h2.41v-3.8h4.52v3.8h3.89v3.48h-3.89v6.35c0,1.33,.73,2.06,1.94,2.06,.67,0,1.33-.2,1.83-.58l1.22,3.19Z"/><path class="j" d="M378.56,271.42c0-4.7,3.63-8.04,8.59-8.04s8.56,3.34,8.56,8.04-3.6,8.03-8.56,8.03-8.59-3.34-8.59-8.03Zm12.56,0c0-2.7-1.71-4.32-3.97-4.32s-4,1.62-4,4.32,1.74,4.32,4,4.32,3.97-1.62,3.97-4.32Z"/><path class="j" d="M416.61,263.38v4.18c-.38-.03-.67-.06-1.01-.06-2.5,0-4.15,1.36-4.15,4.35v7.37h-4.52v-15.61h4.32v2.06c1.1-1.51,2.96-2.29,5.37-2.29Z"/><path class="j" d="M434.36,272.69h-11.81c.43,1.94,2.09,3.13,4.47,3.13,1.65,0,2.84-.49,3.92-1.51l2.41,2.61c-1.45,1.65-3.62,2.52-6.44,2.52-5.39,0-8.91-3.39-8.91-8.03s3.57-8.04,8.33-8.04,8.12,3.07,8.12,8.09c0,.35-.06,.84-.09,1.22Zm-11.86-2.64h7.69c-.32-1.97-1.8-3.25-3.83-3.25s-3.54,1.25-3.86,3.25Z"/><path class="j" d="M436.3,271.42c0-4.7,3.62-8.04,8.7-8.04,3.28,0,5.86,1.42,6.99,3.97l-3.51,1.89c-.84-1.48-2.09-2.15-3.51-2.15-2.29,0-4.09,1.6-4.09,4.32s1.8,4.32,4.09,4.32c1.42,0,2.67-.64,3.51-2.15l3.51,1.91c-1.13,2.49-3.71,3.94-6.99,3.94-5.08,0-8.7-3.34-8.7-8.03Z"/><path class="j" d="M469.59,272.69h-11.81c.43,1.94,2.09,3.13,4.47,3.13,1.65,0,2.84-.49,3.92-1.51l2.41,2.61c-1.45,1.65-3.62,2.52-6.44,2.52-5.39,0-8.9-3.39-8.9-8.03s3.57-8.04,8.32-8.04,8.12,3.07,8.12,8.09c0,.35-.06,.84-.09,1.22Zm-11.86-2.64h7.69c-.32-1.97-1.8-3.25-3.83-3.25s-3.54,1.25-3.86,3.25Z"/><path class="j" d="M472.14,258.91c0-1.42,1.13-2.52,2.81-2.52s2.81,1.04,2.81,2.44c0,1.51-1.13,2.61-2.81,2.61s-2.81-1.1-2.81-2.52Zm.55,4.7h4.52v15.61h-4.52v-15.61Z"/><path class="j" d="M496.91,263.61l-6.58,15.61h-4.67l-6.56-15.61h4.67l4.32,10.62,4.47-10.62h4.35Z"/><path class="j" d="M513.53,272.69h-11.81c.43,1.94,2.09,3.13,4.47,3.13,1.65,0,2.84-.49,3.92-1.51l2.41,2.61c-1.45,1.65-3.62,2.52-6.44,2.52-5.39,0-8.91-3.39-8.91-8.03s3.57-8.04,8.33-8.04,8.12,3.07,8.12,8.09c0,.35-.06,.84-.09,1.22Zm-11.86-2.64h7.69c-.32-1.97-1.8-3.25-3.83-3.25s-3.54,1.25-3.86,3.25Z"/><path class="j" d="M534.9,278.47c-.93,.67-2.29,.99-3.68,.99-3.68,0-5.83-1.89-5.83-5.6v-6.41h-2.41v-3.48h2.41v-3.8h4.53v3.8h3.89v3.48h-3.89v6.35c0,1.33,.72,2.06,1.94,2.06,.67,0,1.33-.2,1.83-.58l1.22,3.19Z"/><path class="j" d="M553.4,270.29v8.93h-4.52v-8.24c0-2.52-1.16-3.68-3.16-3.68-2.18,0-3.74,1.33-3.74,4.21v7.72h-4.52v-21.52h4.52v7.54c1.22-1.22,2.96-1.86,4.96-1.86,3.68,0,6.47,2.15,6.47,6.9Z"/><path class="j" d="M572.86,272.69h-11.81c.43,1.94,2.09,3.13,4.47,3.13,1.65,0,2.84-.49,3.92-1.51l2.41,2.61c-1.45,1.65-3.62,2.52-6.44,2.52-5.39,0-8.9-3.39-8.9-8.03s3.57-8.04,8.32-8.04,8.12,3.07,8.12,8.09c0,.35-.06,.84-.09,1.22Zm-11.86-2.64h7.69c-.32-1.97-1.8-3.25-3.83-3.25s-3.54,1.25-3.86,3.25Z"/><path class="j" d="M599.37,272.69h-11.81c.43,1.94,2.09,3.13,4.47,3.13,1.65,0,2.84-.49,3.92-1.51l2.41,2.61c-1.45,1.65-3.62,2.52-6.44,2.52-5.39,0-8.9-3.39-8.9-8.03s3.57-8.04,8.32-8.04,8.12,3.07,8.12,8.09c0,.35-.06,.84-.09,1.22Zm-11.86-2.64h7.69c-.32-1.97-1.8-3.25-3.83-3.25s-3.54,1.25-3.86,3.25Z"/><path class="j" d="M628.83,270.29v8.93h-4.53v-8.24c0-2.52-1.13-3.68-2.96-3.68-2.03,0-3.45,1.31-3.45,4.09v7.83h-4.53v-8.24c0-2.52-1.07-3.68-2.96-3.68-2,0-3.42,1.31-3.42,4.09v7.83h-4.52v-15.61h4.32v1.8c1.16-1.33,2.9-2.03,4.9-2.03,2.18,0,4.03,.84,5.13,2.55,1.25-1.6,3.28-2.55,5.63-2.55,3.71,0,6.38,2.15,6.38,6.9Z"/><path class="j" d="M646.69,270.31v8.91h-4.23v-1.94c-.84,1.42-2.47,2.18-4.76,2.18-3.65,0-5.83-2.03-5.83-4.73s1.94-4.67,6.7-4.67h3.6c0-1.94-1.16-3.07-3.6-3.07-1.65,0-3.36,.55-4.5,1.45l-1.62-3.16c1.71-1.22,4.24-1.89,6.73-1.89,4.76,0,7.51,2.2,7.51,6.93Zm-4.52,3.97v-1.6h-3.1c-2.12,0-2.78,.78-2.78,1.83,0,1.13,.96,1.89,2.55,1.89,1.51,0,2.81-.7,3.34-2.12Z"/><path class="j" d="M650.23,258.91c0-1.42,1.13-2.52,2.81-2.52s2.81,1.04,2.81,2.44c0,1.51-1.13,2.61-2.81,2.61s-2.81-1.1-2.81-2.52Zm.55,4.7h4.52v15.61h-4.52v-15.61Z"/><path class="j" d="M659.51,257.7h4.52v21.52h-4.52v-21.52Z"/><path class="j" d="M693.44,271.42c0,4.9-3.39,8.03-7.77,8.03-2.09,0-3.77-.67-4.9-2.03v1.8h-4.32v-21.52h4.52v7.57c1.16-1.28,2.76-1.89,4.7-1.89,4.38,0,7.77,3.13,7.77,8.04Zm-4.58,0c0-2.7-1.71-4.32-3.97-4.32s-3.97,1.62-3.97,4.32,1.71,4.32,3.97,4.32,3.97-1.62,3.97-4.32Z"/><path class="j" d="M711.65,272.69h-11.81c.43,1.94,2.09,3.13,4.47,3.13,1.65,0,2.84-.49,3.92-1.51l2.41,2.61c-1.45,1.65-3.62,2.52-6.44,2.52-5.39,0-8.91-3.39-8.91-8.03s3.57-8.04,8.33-8.04,8.12,3.07,8.12,8.09c0,.35-.06,.84-.09,1.22Zm-11.86-2.64h7.69c-.32-1.97-1.8-3.25-3.83-3.25s-3.54,1.25-3.86,3.25Z"/><path class="j" d="M714.75,257.7h4.52v21.52h-4.52v-21.52Z"/><path class="j" d="M722.32,271.42c0-4.7,3.62-8.04,8.59-8.04s8.56,3.34,8.56,8.04-3.6,8.03-8.56,8.03-8.59-3.34-8.59-8.03Zm12.56,0c0-2.7-1.71-4.32-3.97-4.32s-4,1.62-4,4.32,1.74,4.32,4,4.32,3.97-1.62,3.97-4.32Z"/><path class="j" d="M767.1,263.61l-5.66,15.61h-4.35l-3.51-9.69-3.62,9.69h-4.35l-5.63-15.61h4.26l3.68,10.56,3.83-10.56h3.83l3.71,10.56,3.8-10.56h4Z"/></g><line class="e" x1="75.6" y1="460.7" x2="75.6" y2="314.86"/></g><g><rect class="h" x="30.65" y="503.63" width="234.12" height="74.18" rx="7.59" ry="7.59"/><g><path class="i" d="M141.12,550.28l-4.42-6.38h-4.88v6.38h-5.3v-22.92h9.92c6.12,0,9.95,3.18,9.95,8.32,0,3.44-1.74,5.96-4.72,7.24l5.14,7.37h-5.7Zm-4.98-18.6h-4.32v7.99h4.32c3.24,0,4.88-1.51,4.88-4s-1.64-3.99-4.88-3.99Z"/><path class="i" d="M167.38,542.91h-13.33c.49,2.19,2.36,3.54,5.04,3.54,1.87,0,3.21-.56,4.42-1.7l2.72,2.95c-1.64,1.87-4.09,2.85-7.27,2.85-6.09,0-10.05-3.83-10.05-9.07s4.03-9.07,9.4-9.07,9.17,3.47,9.17,9.14c0,.39-.07,.95-.1,1.38Zm-13.39-2.98h8.68c-.36-2.23-2.03-3.67-4.32-3.67s-4,1.41-4.35,3.67Z"/><path class="i" d="M190.07,541.47c0,5.53-3.83,9.07-8.78,9.07-2.19,0-3.99-.69-5.3-2.13v8.22h-5.11v-23.97h4.88v2.03c1.28-1.54,3.18-2.29,5.53-2.29,4.94,0,8.78,3.54,8.78,9.07Zm-5.17,0c0-3.04-1.93-4.88-4.49-4.88s-4.49,1.83-4.49,4.88,1.93,4.88,4.49,4.88,4.49-1.83,4.49-4.88Z"/><path class="i" d="M193.48,525.98h5.11v24.3h-5.11v-24.3Z"/><path class="i" d="M220.82,532.66l-7.96,18.7c-1.7,4.26-4.13,5.53-7.3,5.53-1.8,0-3.77-.59-4.91-1.6l1.87-3.63c.79,.69,1.87,1.11,2.88,1.11,1.41,0,2.19-.62,2.88-2.19l.07-.16-7.63-17.75h5.27l4.94,11.95,4.98-11.95h4.91Z"/></g><path class="i" d="M101.6,538.42c-5.63-5.84-14.44-7.06-20.86-7.06-1.13,0-2.12,0-2.91,.08v-10.79c0-.97-.46-1.87-1.19-2.27s-1.59-.16-2.19,.49l-17.09,20.28c-.4,.49-.6,1.14-.6,1.78s.2,1.3,.6,1.78l17.09,19.87c.4,.41,.86,.65,1.39,.65,.26,0,.53-.08,.79-.16,.73-.41,1.19-1.3,1.19-2.27v-11.19c1.13-.24,2.85-.57,5.03-.57,3.64,0,7.29,.73,10.93,2.27,5.63,2.27,10.07,8.27,10.13,8.35,.53,.73,1.39,.97,2.12,.65s1.26-1.22,1.32-2.19c0-.49,.4-13.22-5.76-19.71h0Zm-6.56,8.35c-4.04-1.62-8.15-2.51-12.19-2.51-4.57,0-7.48,1.05-7.62,1.14-.79,.32-1.39,1.3-1.39,2.35v7.38l-12.25-14.28,12.25-14.52v7.71c0,.73,.26,1.38,.66,1.78s.99,.65,1.52,.57c0,0,1.92-.24,4.7-.24,4.7,0,13.31,.73,18.28,5.92,2.45,2.51,3.51,6.65,3.97,9.98-2.05-1.87-4.84-4.06-7.95-5.27Z"/></g></g></g></g></svg>