<?xml version="1.0" encoding="UTF-8"?><svg xmlns="http://www.w3.org/2000/svg" viewBox="0 0 839 573"><defs><style>.f,.g{fill:#fff;}.h{fill:#d6d6d4;}.i{fill:#e6e6e6;}.i,.g{stroke:gray;stroke-miterlimit:10;}.j{fill:#f7931e;}.k{opacity:.2;}.k,.l{isolation:isolate;}.m{fill:#404040;}.n{fill:#666;}.l{fill:#333;opacity:.1;}</style></defs><g id="a"/><g id="b"><g id="c"><g id="d"><rect class="g" x=".5" y="48.8" width="838" height="523.7"/><rect class="i" x=".5" y=".5" width="838" height="50.33"/><g><path class="n" d="M280.55,26.86v7.45h-3.78v-6.87c0-2.11-.97-3.07-2.64-3.07-1.81,0-3.12,1.11-3.12,3.51v6.44h-3.78V16.35h3.78v6.29c1.02-1.02,2.47-1.55,4.14-1.55,3.07,0,5.4,1.79,5.4,5.76Z"/><path class="n" d="M292.36,33.68c-.77,.56-1.91,.82-3.07,.82-3.07,0-4.86-1.57-4.86-4.67v-5.35h-2.01v-2.9h2.01v-3.17h3.78v3.17h3.24v2.9h-3.24v5.3c0,1.11,.6,1.72,1.62,1.72,.56,0,1.11-.17,1.52-.48l1.02,2.66Z"/><path class="n" d="M302.6,33.68c-.77,.56-1.91,.82-3.07,.82-3.07,0-4.86-1.57-4.86-4.67v-5.35h-2.01v-2.9h2.01v-3.17h3.78v3.17h3.24v2.9h-3.24v5.3c0,1.11,.6,1.72,1.62,1.72,.56,0,1.11-.17,1.52-.48l1.02,2.66Z"/><path class="n" d="M318.91,27.8c0,4.09-2.83,6.7-6.49,6.7-1.62,0-2.95-.51-3.92-1.57v6.07h-3.77V21.29h3.61v1.5c.94-1.14,2.35-1.69,4.09-1.69,3.65,0,6.49,2.61,6.49,6.7Zm-3.82,0c0-2.25-1.43-3.61-3.32-3.61s-3.32,1.35-3.32,3.61,1.43,3.61,3.32,3.61,3.32-1.36,3.32-3.61Z"/><path class="n" d="M320.17,33.1l1.26-2.71c1.16,.75,2.93,1.26,4.53,1.26,1.74,0,2.4-.46,2.4-1.19,0-2.13-7.86,.05-7.86-5.15,0-2.47,2.23-4.21,6.03-4.21,1.79,0,3.77,.41,5.01,1.14l-1.26,2.69c-1.28-.73-2.57-.97-3.75-.97-1.69,0-2.42,.53-2.42,1.21,0,2.23,7.87,.07,7.87,5.2,0,2.42-2.25,4.14-6.15,4.14-2.2,0-4.43-.61-5.64-1.4Z"/><path class="n" d="M333.36,23.44c0-1.4,1.04-2.32,2.35-2.32s2.35,.92,2.35,2.32-1.04,2.37-2.35,2.37-2.35-.99-2.35-2.37Zm0,8.69c0-1.4,1.04-2.32,2.35-2.32s2.35,.92,2.35,2.32-1.04,2.37-2.35,2.37-2.35-.99-2.35-2.37Z"/><path class="n" d="M347.35,13.93h3.36l-7.99,22.8h-3.36l7.99-22.8Z"/><path class="n" d="M355.07,13.93h3.36l-7.99,22.8h-3.36l7.99-22.8Z"/><path class="n" d="M379.3,21.29l-4.72,13.02h-3.63l-2.93-8.08-3.02,8.08h-3.63l-4.69-13.02h3.56l3.07,8.81,3.19-8.81h3.19l3.1,8.81,3.17-8.81h3.34Z"/><path class="n" d="M401.66,21.29l-4.72,13.02h-3.63l-2.93-8.08-3.02,8.08h-3.63l-4.69-13.02h3.56l3.07,8.81,3.19-8.81h3.19l3.1,8.81,3.17-8.81h3.34Z"/><path class="n" d="M424.02,21.29l-4.72,13.02h-3.63l-2.93-8.08-3.03,8.08h-3.63l-4.69-13.02h3.56l3.07,8.81,3.19-8.81h3.19l3.1,8.81,3.17-8.81h3.34Z"/><path class="n" d="M424.1,32.13c0-1.4,1.04-2.32,2.35-2.32s2.35,.92,2.35,2.32-1.04,2.37-2.35,2.37-2.35-.99-2.35-2.37Z"/><path class="n" d="M439.44,21.1v3.48c-.31-.02-.56-.05-.85-.05-2.08,0-3.46,1.14-3.46,3.63v6.15h-3.78v-13.02h3.61v1.72c.92-1.26,2.47-1.91,4.48-1.91Z"/><path class="n" d="M454.25,28.86h-9.85c.36,1.62,1.74,2.61,3.73,2.61,1.38,0,2.37-.41,3.27-1.26l2.01,2.18c-1.21,1.38-3.02,2.11-5.37,2.11-4.5,0-7.43-2.83-7.43-6.7s2.98-6.7,6.95-6.7,6.78,2.57,6.78,6.75c0,.29-.05,.7-.07,1.02Zm-9.9-2.2h6.41c-.27-1.65-1.5-2.71-3.19-2.71s-2.95,1.04-3.22,2.71Z"/><path class="n" d="M468,26.88v7.43h-3.53v-1.62c-.7,1.19-2.06,1.82-3.97,1.82-3.05,0-4.86-1.69-4.86-3.94s1.62-3.9,5.59-3.9h3c0-1.62-.97-2.56-3-2.56-1.38,0-2.81,.46-3.75,1.21l-1.35-2.64c1.43-1.02,3.53-1.57,5.61-1.57,3.97,0,6.27,1.84,6.27,5.78Zm-3.78,3.32v-1.33h-2.59c-1.77,0-2.32,.65-2.32,1.52,0,.94,.8,1.57,2.13,1.57,1.26,0,2.35-.58,2.78-1.77Z"/><path class="n" d="M470.59,27.8c0-3.92,3.03-6.7,7.26-6.7,2.74,0,4.89,1.19,5.83,3.32l-2.93,1.57c-.7-1.23-1.74-1.79-2.93-1.79-1.91,0-3.41,1.33-3.41,3.61s1.5,3.61,3.41,3.61c1.19,0,2.23-.53,2.93-1.79l2.93,1.6c-.94,2.08-3.1,3.29-5.83,3.29-4.23,0-7.26-2.78-7.26-6.7Z"/><path class="n" d="M499.08,26.86v7.45h-3.78v-6.87c0-2.11-.97-3.07-2.64-3.07-1.82,0-3.12,1.11-3.12,3.51v6.44h-3.78V16.35h3.78v6.29c1.02-1.02,2.47-1.55,4.14-1.55,3.07,0,5.4,1.79,5.4,5.76Z"/><path class="n" d="M515.32,28.86h-9.85c.36,1.62,1.74,2.61,3.73,2.61,1.38,0,2.37-.41,3.27-1.26l2.01,2.18c-1.21,1.38-3.02,2.11-5.37,2.11-4.5,0-7.43-2.83-7.43-6.7s2.98-6.7,6.95-6.7,6.78,2.57,6.78,6.75c0,.29-.05,.7-.07,1.02Zm-9.9-2.2h6.41c-.27-1.65-1.5-2.71-3.19-2.71s-2.95,1.04-3.22,2.71Z"/><path class="n" d="M525.99,21.1v3.48c-.31-.02-.56-.05-.85-.05-2.08,0-3.46,1.14-3.46,3.63v6.15h-3.78v-13.02h3.61v1.72c.92-1.26,2.47-1.91,4.48-1.91Z"/><path class="n" d="M527.18,32.13c0-1.4,1.04-2.32,2.35-2.32s2.35,.92,2.35,2.32-1.04,2.37-2.35,2.37-2.35-.99-2.35-2.37Z"/><path class="n" d="M556.43,26.86v7.45h-3.77v-6.87c0-2.11-.94-3.07-2.47-3.07-1.69,0-2.88,1.09-2.88,3.41v6.53h-3.78v-6.87c0-2.11-.9-3.07-2.47-3.07-1.67,0-2.86,1.09-2.86,3.41v6.53h-3.78v-13.02h3.61v1.5c.97-1.11,2.42-1.69,4.09-1.69,1.81,0,3.36,.7,4.28,2.13,1.04-1.33,2.73-2.13,4.7-2.13,3.1,0,5.32,1.79,5.32,5.76Z"/><path class="n" d="M572.65,28.86h-9.85c.36,1.62,1.74,2.61,3.73,2.61,1.38,0,2.37-.41,3.27-1.26l2.01,2.18c-1.21,1.38-3.02,2.11-5.37,2.11-4.5,0-7.43-2.83-7.43-6.7s2.98-6.7,6.95-6.7,6.78,2.57,6.78,6.75c0,.29-.05,.7-.07,1.02Zm-9.9-2.2h6.41c-.27-1.65-1.5-2.71-3.19-2.71s-2.95,1.04-3.22,2.71Z"/></g><g><g><g id="e"><rect class="h" x="292.87" y="231.57" width="216.73" height="186.84" rx="14.95" ry="14.95"/><path class="k" d="M494.66,231.57h-26.16c0,90.8-73.61,164.42-164.42,164.42h-11.21v7.47c0,8.26,6.69,14.95,14.95,14.95h186.84c8.26,0,14.95-6.69,14.95-14.95V246.51c0-8.25-6.69-14.95-14.95-14.95Z"/><path d="M494.66,205.71h-186.84c-8.25,0-14.95,10-14.95,22.33v55.84h216.73v-55.84c0-12.34-6.69-22.33-14.95-22.33Z"/><path class="l" d="M494.66,205.71h-30.42c.33,1.82,.51,3.7,.53,5.58h0c0,30.84-16.73,55.84-37.37,55.84h-134.52v16.75h216.73v-55.84c0-12.34-6.69-22.33-14.95-22.33Z"/><path class="f" d="M326.5,317.51h149.47c8.26,0,14.95,6.69,14.95,14.95h0c0,8.26-6.69,14.95-14.95,14.95h-149.47c-8.25,0-14.95-6.69-14.95-14.95h0c0-8.26,6.69-14.95,14.95-14.95Z"/><path class="f" d="M326.5,362.35h149.47c8.26,0,14.95,6.69,14.95,14.95h0c0,8.26-6.69,14.95-14.95,14.95h-149.47c-8.25,0-14.95-6.69-14.95-14.95h0c0-8.26,6.69-14.95,14.95-14.95Z"/><path d="M475.97,373.56h0c2.06,0,3.74,1.67,3.74,3.74h0c0,2.06-1.67,3.74-3.74,3.74h0c-2.06,0-3.74-1.67-3.74-3.74h0c0-2.06,1.67-3.74,3.74-3.74Z"/><path d="M461.03,373.56h0c2.06,0,3.74,1.67,3.74,3.74h0c0,2.06-1.67,3.74-3.74,3.74h0c-2.06,0-3.74-1.67-3.74-3.74h0c0-2.06,1.67-3.74,3.74-3.74Z"/><path d="M446.08,373.56h0c2.06,0,3.74,1.67,3.74,3.74h0c0,2.06-1.67,3.74-3.74,3.74h0c-2.06,0-3.74-1.67-3.74-3.74h0c0-2.06,1.67-3.74,3.74-3.74Z"/><path d="M431.13,373.56h0c2.06,0,3.74,1.67,3.74,3.74h0c0,2.06-1.67,3.74-3.74,3.74h0c-2.06,0-3.74-1.67-3.74-3.74h0c0-2.06,1.67-3.74,3.74-3.74Z"/><path d="M416.19,373.56h0c2.06,0,3.74,1.67,3.74,3.74h0c0,2.06-1.67,3.74-3.74,3.74h0c-2.06,0-3.74-1.67-3.74-3.74h0c0-2.06,1.67-3.74,3.74-3.74Z"/><path d="M401.24,373.56h0c2.06,0,3.74,1.67,3.74,3.74h0c0,2.06-1.67,3.74-3.74,3.74h0c-2.06,0-3.74-1.67-3.74-3.74h0c0-2.06,1.67-3.74,3.74-3.74Z"/><path d="M386.29,373.56h0c2.06,0,3.74,1.67,3.74,3.74h0c0,2.06-1.67,3.74-3.74,3.74h0c-2.06,0-3.74-1.67-3.74-3.74h0c0-2.06,1.67-3.74,3.74-3.74Z"/><path d="M371.35,373.56h0c2.06,0,3.74,1.67,3.74,3.74h0c0,2.06-1.67,3.74-3.74,3.74h0c-2.06,0-3.74-1.67-3.74-3.74h0c0-2.06,1.67-3.74,3.74-3.74Z"/><path d="M356.4,373.56h0c2.06,0,3.74,1.67,3.74,3.74h0c0,2.06-1.67,3.74-3.74,3.74h0c-2.06,0-3.74-1.67-3.74-3.74h0c0-2.06,1.67-3.74,3.74-3.74Z"/><path d="M326.5,373.56h0c2.06,0,3.74,1.67,3.74,3.74h0c0,2.06-1.67,3.74-3.74,3.74h0c-2.06,0-3.74-1.67-3.74-3.74h0c0-2.06,1.67-3.74,3.74-3.74Z"/><path d="M341.45,373.56h0c2.06,0,3.74,1.67,3.74,3.74h0c0,2.06-1.67,3.74-3.74,3.74h0c-2.06,0-3.74-1.67-3.74-3.74h0c0-2.06,1.67-3.74,3.74-3.74Z"/><path d="M475.97,328.72h-149.47c-2.06,0-3.74,1.67-3.74,3.74s1.67,3.74,3.74,3.74h149.47c2.06,0,3.74-1.67,3.74-3.74s-1.67-3.74-3.74-3.74Z"/></g><path class="f" d="M370.83,272.52c6,0,10.44-3.6,10.44-8.56,0-2.24-.94-4.28-2.61-5.64-1.31-.99-3.65-2.19-6.53-3.24-1.83-.68-2.56-1.31-2.56-2.04s.68-1.25,1.62-1.25c.63,0,1.51,.21,2.25,.52l.68,.26,1.36,.63c.73,.26,1.36,.42,1.88,.47,1.67,.1,3.29-1.62,3.29-3.5,0-3.03-3.86-5.33-8.88-5.33-5.74,0-9.97,3.6-9.97,8.51,0,2.24,.73,4.07,2.14,5.33,1.2,.99,3.65,2.14,7.36,3.39,1.62,.57,2.24,1.1,2.24,1.88,0,.99-.73,1.57-2.04,1.57-.84,0-1.88-.26-2.66-.68l-1.25-.63-.68-.37c-.89-.47-1.67-.68-2.4-.68-1.78,0-3.45,1.72-3.45,3.55,0,2.92,4.8,5.8,9.76,5.8Zm19.63-.31c2.4,0,3.92-1.67,3.92-4.33v-14.83h1.88c2.77,0,4.28-1.25,4.28-3.65s-1.41-3.71-4.28-3.71h-1.88v-4.86c0-2.66-1.51-4.33-3.92-4.33s-3.92,1.67-3.92,4.33v4.86h-.57c-2.82,0-4.23,1.2-4.23,3.71s1.41,3.65,4.23,3.65h.57v14.83c0,2.66,1.51,4.33,3.92,4.33Zm15.35,.05c2.35,0,3.86-1.67,3.86-4.33v-10.13c0-.78,.16-1.62,.47-2.3,.37-.89,.94-1.36,2.45-1.88,5.22-2.04,3.86-1.51,4.18-1.62,1.41-.63,1.98-1.62,1.98-3.24,0-2.04-1.83-3.81-3.86-3.81-1.83,0-3.5,.89-5.48,2.98-.84-2.09-1.78-2.82-3.6-2.82-2.45,0-3.97,1.62-3.97,4.33v18.48c0,2.66,1.51,4.33,3.97,4.33Zm18.12-28.98c2.71,0,4.59-1.88,4.59-4.54s-1.93-4.59-4.54-4.59-4.59,1.93-4.59,4.54,1.93,4.59,4.54,4.59Zm.05,28.87c2.35,0,3.86-1.67,3.86-4.33v-18.33c0-2.66-1.51-4.33-3.86-4.33s-3.97,1.62-3.97,4.33v18.33c0,2.71,1.46,4.33,3.97,4.33Zm26.36,.05c2.14,0,3.81-1.62,3.81-3.71,0-1.36-.31-1.93-2.61-4.75l-.47-.57-5.06-6.42,3.65-3.76c2.51-2.66,1.83-1.93,2.09-2.24,.73-.84,.89-1.25,.89-2.04,0-1.98-1.62-3.81-3.45-3.81-1.46,0-2.56,.63-4.49,2.71l-1.04,1.15-4.96,5.22v-15.66c0-2.66-1.51-4.33-3.92-4.33-1.46,0-2.77,.73-3.45,1.88-.37,.68-.47,1.15-.47,2.45v29.55c0,2.71,1.46,4.33,3.92,4.33s3.92-1.67,3.92-4.33v-8.14l5.06,6.58,.94,1.25c2.77,3.71,3.86,4.65,5.64,4.65Zm16.77,.26c2.98,0,5.85-.73,8.41-2.14,2.09-1.2,3.13-2.56,3.13-4.07,0-1.83-1.46-3.45-3.18-3.45-.52,0-1.31,.21-2.04,.57l-.57,.26-.52,.26-.57,.31-.68,.31c-1.46,.57-2.3,.78-3.6,.78-2.87,0-4.75-1.41-5.43-4.02h13.84c2.35,0,3.24-.94,3.24-3.34s-.68-4.86-1.88-6.94c-2.35-3.97-6.06-6.11-10.7-6.11-7.78,0-13.1,5.85-13.1,14.41,0,7.78,5.64,13.16,13.68,13.16Zm-139.21-50.95l22.09,8.04c.09,.03,.17,.07,.26,.11,.2,.06,.4,.13,.59,.2,7.04,2.56,10.67,10.33,8.12,17.36-2.56,7.02-10.33,10.64-17.37,8.08l-22.94-8.35c-1.41-.51-2.13-2.07-1.62-3.47,.51-1.4,2.07-2.13,3.47-1.62l12.75,4.64c-.58-1.88-.74-3.9-.44-5.92l-26.17-9.53c-1.41-.51-2.13-2.07-1.62-3.47,.51-1.4,2.07-2.13,3.47-1.62l26.17,9.53c1.07-1.74,2.49-3.18,4.14-4.25l-12.75-4.64c-1.41-.51-2.13-2.07-1.62-3.47,.51-1.4,2.07-2.13,3.48-1.62Zm138.74,29.81c2.61,0,4.23,1.51,4.7,4.54h-9.71c.78-2.98,2.51-4.54,5.01-4.54Zm-128.01-11.5c-1.54,4.23,.64,8.91,4.87,10.45,4.23,1.54,8.91-.64,10.45-4.87,1.54-4.23-.64-8.91-4.87-10.45-4.23-1.54-8.91,.64-10.45,4.87Z"/></g><g><path d="M193,465.01l2.56-5.83c2.24,1.39,5.52,2.24,8.48,2.24s3.82-.63,3.82-1.66c0-3.28-14.37,.45-14.37-9.29,0-4.58,4.22-8.08,11.85-8.08,3.41,0,7.18,.72,9.61,2.07l-2.56,5.79c-2.42-1.35-4.85-1.8-7-1.8-2.87,0-3.91,.81-3.91,1.71,0,3.37,14.32-.27,14.32,9.38,0,4.49-4.13,7.99-12.03,7.99-4.13,0-8.39-1.03-10.77-2.51Z"/><path d="M242.3,453.61v13.51h-7.95v-3.14c-1.21,2.33-3.64,3.55-7.18,3.55-5.84,0-9.07-3.28-9.07-7.5,0-4.49,3.28-7.27,10.82-7.27h4.85c-.13-2.47-1.8-3.86-5.16-3.86-2.33,0-4.94,.81-6.6,2.11l-2.87-5.79c2.78-1.84,6.91-2.83,10.73-2.83,7.9,0,12.43,3.5,12.43,11.22Zm-8.53,5.7v-2.11h-3.68c-2.74,0-3.73,.99-3.73,2.47s1.17,2.47,3.19,2.47c1.89,0,3.55-.9,4.22-2.83Z"/><path d="M289.21,453.2v13.92h-8.53v-12.52c0-3.5-1.44-4.98-3.68-4.98-2.47,0-4.26,1.66-4.26,5.43v12.08h-8.53v-12.52c0-3.5-1.39-4.98-3.68-4.98-2.51,0-4.31,1.66-4.31,5.43v12.08h-8.53v-24.33h8.12v2.56c1.84-1.97,4.4-2.96,7.27-2.96,3.32,0,6.15,1.21,7.86,3.82,1.93-2.42,4.94-3.82,8.44-3.82,5.66,0,9.83,3.28,9.83,10.82Z"/><path d="M336.84,454.64c0,8.3-4.22,12.84-9.88,12.84-3.19,0-5.52-1.35-6.6-3.91-1.39,2.47-3.77,3.91-7.27,3.91-5.3,0-9.97-4.44-9.97-11.27s4.58-11.22,9.97-11.22c2.69,0,4.76,.9,6.24,2.56v-2.2h7.32v13.69c0,2.02,.9,2.69,1.97,2.69,1.66,0,2.83-1.84,2.83-6.96,0-8.62-6.42-14.63-16.03-14.63s-16.07,6.64-16.07,15.62,6.33,15.71,15.89,15.71c2.92,0,6.02-.58,8.93-1.98l1.66,4.8c-2.69,1.35-6.82,2.16-10.59,2.16-13.24,0-21.86-8.89-21.86-20.7s8.66-20.61,22.04-20.61,21.41,8.48,21.41,19.48Zm-17.37,1.57c0-3.32-1.89-5.12-4.44-5.12s-4.4,1.84-4.4,5.12,1.84,5.16,4.4,5.16,4.44-1.8,4.44-5.16Z"/><path d="M357.4,442.38v7.68c-.76-.09-1.3-.13-1.93-.13-3.46,0-5.84,1.75-5.84,6.02v11.18h-8.53v-24.33h8.12v2.92c1.75-2.2,4.58-3.32,8.17-3.32Z"/><path d="M385.41,457.11h-17.69c.72,2.47,2.83,3.91,5.97,3.91,2.38,0,3.95-.67,5.61-2.11l4.49,4.67c-2.33,2.6-5.75,3.95-10.37,3.95-8.66,0-14.28-5.34-14.28-12.62s5.7-12.52,13.38-12.52c7.18,0,13.02,4.58,13.02,12.61,0,.63-.09,1.44-.13,2.11Zm-17.82-4.49h9.97c-.45-2.56-2.33-4.17-4.98-4.17s-4.49,1.62-4.98,4.17Z"/><path d="M411.63,453.61v13.51h-7.95v-3.14c-1.21,2.33-3.64,3.55-7.18,3.55-5.84,0-9.07-3.28-9.07-7.5,0-4.49,3.28-7.27,10.82-7.27h4.85c-.13-2.47-1.8-3.86-5.16-3.86-2.33,0-4.94,.81-6.6,2.11l-2.87-5.79c2.78-1.84,6.91-2.83,10.73-2.83,7.9,0,12.44,3.5,12.44,11.22Zm-8.53,5.7v-2.11h-3.68c-2.74,0-3.73,.99-3.73,2.47s1.17,2.47,3.19,2.47c1.89,0,3.55-.9,4.22-2.83Z"/><path d="M415.85,454.91c0-7.32,5.79-12.52,13.96-12.52,5.52,0,9.74,2.47,11.4,6.69l-6.6,3.37c-1.17-2.29-2.87-3.28-4.85-3.28-2.96,0-5.3,2.07-5.3,5.75s2.33,5.84,5.3,5.84c1.98,0,3.68-.99,4.85-3.28l6.6,3.37c-1.66,4.22-5.88,6.69-11.4,6.69-8.17,0-13.96-5.21-13.96-12.62Z"/><path d="M470.26,453.2v13.92h-8.53v-12.52c0-3.5-1.53-4.98-4-4.98-2.74,0-4.85,1.71-4.85,5.75v11.76h-8.53v-33.31h8.53v11.22c1.89-1.75,4.44-2.65,7.32-2.65,5.7,0,10.06,3.28,10.06,10.82Z"/><path d="M500.7,457.11h-17.69c.72,2.47,2.83,3.91,5.97,3.91,2.38,0,3.95-.67,5.61-2.11l4.49,4.67c-2.33,2.6-5.75,3.95-10.37,3.95-8.66,0-14.28-5.34-14.28-12.62s5.7-12.52,13.38-12.52c7.18,0,13.02,4.58,13.02,12.61,0,.63-.09,1.44-.13,2.11Zm-17.82-4.49h9.97c-.45-2.56-2.33-4.17-4.98-4.17s-4.49,1.62-4.98,4.17Z"/><path d="M521.08,442.38v7.68c-.76-.09-1.3-.13-1.93-.13-3.46,0-5.84,1.75-5.84,6.02v11.18h-8.53v-24.33h8.12v2.92c1.75-2.2,4.58-3.32,8.17-3.32Z"/><path d="M522.7,462.45c0-3.05,2.25-5.03,5.12-5.03s5.12,1.97,5.12,5.03-2.2,5.07-5.12,5.07-5.12-2.11-5.12-5.07Z"/><path d="M578.45,453.2v13.92h-8.53v-12.52c0-3.5-1.44-4.98-3.68-4.98-2.47,0-4.26,1.66-4.26,5.43v12.08h-8.53v-12.52c0-3.5-1.39-4.98-3.68-4.98-2.51,0-4.31,1.66-4.31,5.43v12.08h-8.53v-24.33h8.12v2.56c1.84-1.97,4.4-2.96,7.27-2.96,3.32,0,6.15,1.21,7.86,3.82,1.93-2.42,4.94-3.82,8.44-3.82,5.66,0,9.83,3.28,9.83,10.82Z"/><path d="M608.93,457.11h-17.69c.72,2.47,2.83,3.91,5.97,3.91,2.38,0,3.95-.67,5.61-2.11l4.49,4.67c-2.33,2.6-5.75,3.95-10.37,3.95-8.66,0-14.28-5.34-14.28-12.62s5.7-12.52,13.38-12.52c7.18,0,13.02,4.58,13.02,12.61,0,.63-.09,1.44-.13,2.11Zm-17.82-4.49h9.97c-.45-2.56-2.33-4.17-4.98-4.17s-4.49,1.62-4.98,4.17Z"/></g><g><rect class="j" x="182.24" y="103.55" width="438" height="74.18" rx="7.59" ry="7.59"/><g><path class="f" d="M248.78,131.53h6.48v17.78h10.94v5.14h-17.42v-22.92Z"/><path class="f" d="M267.28,145.54c0-5.34,4.22-9.14,10.02-9.14s10.02,3.8,10.02,9.14-4.16,9.2-10.02,9.2-10.02-3.83-10.02-9.2Zm13.75,0c0-2.69-1.6-4.19-3.73-4.19s-3.73,1.51-3.73,4.19,1.64,4.26,3.73,4.26,3.73-1.54,3.73-4.26Z"/><path class="f" d="M309.3,136.7v14.51c0,6.71-3.8,9.89-10.41,9.89-3.41,0-6.65-.79-8.81-2.33l2.26-4.35c1.47,1.18,3.9,1.9,5.99,1.9,3.34,0,4.75-1.51,4.75-4.29v-.59c-1.21,1.41-3.01,2.1-5.27,2.1-4.72,0-8.71-3.34-8.71-8.58s3.99-8.55,8.71-8.55c2.46,0,4.36,.79,5.57,2.46v-2.16h5.93Zm-6.16,8.25c0-2.16-1.64-3.6-3.86-3.6s-3.9,1.44-3.9,3.6,1.67,3.63,3.9,3.63,3.86-1.47,3.86-3.63Z"/><path class="f" d="M323.12,131.53h6.48v22.92h-6.48v-22.92Z"/><path class="f" d="M352.82,144.3v10.15h-6.22v-9.14c0-2.55-1.11-3.63-2.91-3.63-2,0-3.54,1.24-3.54,4.19v8.58h-6.22v-17.75h5.93v1.93c1.41-1.47,3.41-2.23,5.63-2.23,4.16,0,7.33,2.39,7.33,7.89Z"/><path class="f" d="M395.65,136.7l-6.32,17.75h-6.03l-3.34-9.66-3.47,9.66h-6.02l-6.32-17.75h5.89l3.63,10.74,3.77-10.74h5.3l3.67,10.84,3.77-10.84h5.47Z"/><path class="f" d="M396.87,131.43c0-1.87,1.51-3.31,3.8-3.31s3.8,1.34,3.8,3.21c0,1.96-1.51,3.41-3.8,3.41s-3.8-1.44-3.8-3.31Zm.69,5.27h6.22v17.75h-6.22v-17.75Z"/><path class="f" d="M420.05,153.73c-1.08,.69-2.69,1.02-4.32,1.02-4.55,0-7.2-2.23-7.2-6.78v-5.96h-2.59v-4.65h2.59v-4.62h6.22v4.62h4.06v4.65h-4.06v5.89c0,1.31,.75,2.03,1.87,2.03,.69,0,1.38-.2,1.9-.56l1.54,4.36Z"/><path class="f" d="M441.34,144.3v10.15h-6.22v-9.14c0-2.55-1.11-3.63-2.91-3.63-2,0-3.54,1.24-3.54,4.19v8.58h-6.22v-24.3h6.22v8.19c1.38-1.28,3.24-1.93,5.34-1.93,4.16,0,7.33,2.39,7.33,7.89Z"/><path class="f" d="M453.46,152.39l2.13-4.78c2.03,1.34,4.91,2.26,7.56,2.26s3.73-.75,3.73-1.87c0-3.63-13.03-.98-13.03-9.5,0-4.09,3.34-7.43,10.15-7.43,2.98,0,6.06,.69,8.32,2l-2,4.81c-2.19-1.18-4.36-1.77-6.35-1.77-2.72,0-3.7,.92-3.7,2.06,0,3.5,13,.88,13,9.33,0,3.99-3.34,7.4-10.15,7.4-3.77,0-7.5-1.02-9.66-2.52Z"/><path class="f" d="M488.2,153.73c-1.08,.69-2.69,1.02-4.32,1.02-4.55,0-7.2-2.23-7.2-6.78v-5.96h-2.59v-4.65h2.59v-4.62h6.22v4.62h4.06v4.65h-4.06v5.89c0,1.31,.75,2.03,1.87,2.03,.69,0,1.38-.2,1.9-.56l1.54,4.36Z"/><path class="f" d="M502.48,136.41v5.6c-.56-.07-.95-.1-1.41-.1-2.52,0-4.26,1.28-4.26,4.39v8.15h-6.22v-17.75h5.93v2.13c1.28-1.6,3.34-2.42,5.96-2.42Z"/><path class="f" d="M504.35,131.43c0-1.87,1.51-3.31,3.8-3.31s3.8,1.34,3.8,3.21c0,1.96-1.51,3.41-3.8,3.41s-3.8-1.44-3.8-3.31Zm.69,5.27h6.22v17.75h-6.22v-17.75Z"/><path class="f" d="M523.34,148.23l-1.83,1.87v4.35h-6.22v-24.3h6.22v12.74l6.35-6.19h7.37l-7.37,7.6,7.99,10.15h-7.53l-4.98-6.22Z"/><path class="f" d="M555.01,147.15h-12.9c.52,1.8,2.06,2.85,4.35,2.85,1.74,0,2.88-.49,4.09-1.54l3.27,3.41c-1.7,1.9-4.19,2.88-7.56,2.88-6.32,0-10.41-3.9-10.41-9.2s4.16-9.14,9.76-9.14c5.24,0,9.5,3.34,9.5,9.2,0,.46-.07,1.05-.1,1.54Zm-13-3.27h7.27c-.33-1.87-1.7-3.05-3.63-3.05s-3.27,1.18-3.63,3.05Z"/></g></g><g><path class="m" d="M216.01,481.9v11.98c0,5.35-2.89,7.81-8.08,7.81-2.73,0-5.38-.67-7.06-1.98l1.66-3c1.23,.99,3.24,1.63,5.08,1.63,2.94,0,4.23-1.34,4.23-3.93v-.62c-1.1,1.2-2.67,1.79-4.55,1.79-3.99,0-7.2-2.75-7.2-6.96s3.21-6.95,7.2-6.95c2.01,0,3.66,.67,4.76,2.06v-1.85h3.96Zm-4.12,6.74c0-2.11-1.58-3.53-3.77-3.53s-3.8,1.42-3.8,3.53,1.6,3.53,3.8,3.53,3.77-1.42,3.77-3.53Z"/><path class="m" d="M218.82,489.09c0-4.33,3.34-7.41,7.92-7.41s7.89,3.08,7.89,7.41-3.32,7.41-7.89,7.41-7.92-3.08-7.92-7.41Zm11.58,0c0-2.49-1.58-3.99-3.66-3.99s-3.69,1.5-3.69,3.99,1.6,3.99,3.69,3.99,3.66-1.5,3.66-3.99Z"/><path class="m" d="M251.44,490.27h-10.89c.4,1.79,1.93,2.89,4.12,2.89,1.52,0,2.62-.45,3.61-1.39l2.22,2.41c-1.34,1.52-3.34,2.33-5.94,2.33-4.98,0-8.21-3.13-8.21-7.41s3.29-7.41,7.68-7.41,7.49,2.83,7.49,7.46c0,.32-.05,.78-.08,1.12Zm-10.94-2.43h7.09c-.29-1.82-1.66-3-3.53-3s-3.26,1.15-3.56,3Z"/><path class="m" d="M252.91,494.95l1.39-3c1.28,.83,3.24,1.39,5,1.39,1.93,0,2.65-.51,2.65-1.31,0-2.35-8.69,.05-8.69-5.7,0-2.73,2.46-4.65,6.66-4.65,1.98,0,4.17,.45,5.54,1.26l-1.39,2.97c-1.42-.8-2.83-1.07-4.15-1.07-1.87,0-2.67,.59-2.67,1.34,0,2.46,8.69,.08,8.69,5.75,0,2.67-2.49,4.57-6.79,4.57-2.43,0-4.9-.67-6.23-1.55Z"/><path class="m" d="M285.36,495.59c-.86,.62-2.11,.91-3.4,.91-3.4,0-5.38-1.74-5.38-5.16v-5.91h-2.22v-3.21h2.22v-3.5h4.17v3.5h3.58v3.21h-3.58v5.86c0,1.23,.67,1.9,1.79,1.9,.62,0,1.23-.19,1.69-.54l1.12,2.94Z"/><path class="m" d="M286.2,489.09c0-4.33,3.34-7.41,7.92-7.41s7.89,3.08,7.89,7.41-3.32,7.41-7.89,7.41-7.92-3.08-7.92-7.41Zm11.58,0c0-2.49-1.58-3.99-3.66-3.99s-3.69,1.5-3.69,3.99,1.6,3.99,3.69,3.99,3.66-1.5,3.66-3.99Z"/><path class="m" d="M310.92,495.03l1.52-3.48c1.34,.83,3.29,1.34,5.06,1.34s2.27-.37,2.27-.99c0-1.95-8.56,.27-8.56-5.54,0-2.73,2.51-4.81,7.06-4.81,2.03,0,4.28,.43,5.72,1.23l-1.52,3.45c-1.44-.8-2.89-1.07-4.17-1.07-1.71,0-2.33,.48-2.33,1.02,0,2.01,8.53-.16,8.53,5.59,0,2.67-2.46,4.76-7.17,4.76-2.46,0-5-.62-6.42-1.5Z"/><path class="m" d="M340.29,488.23v8.05h-4.73v-1.87c-.72,1.39-2.17,2.11-4.28,2.11-3.48,0-5.4-1.95-5.4-4.47,0-2.67,1.95-4.33,6.45-4.33h2.89c-.08-1.47-1.07-2.3-3.08-2.3-1.39,0-2.94,.48-3.93,1.26l-1.71-3.45c1.66-1.1,4.12-1.68,6.39-1.68,4.71,0,7.41,2.09,7.41,6.69Zm-5.08,3.4v-1.26h-2.19c-1.63,0-2.22,.59-2.22,1.47s.7,1.47,1.9,1.47c1.12,0,2.11-.54,2.51-1.69Z"/><path class="m" d="M368.25,487.99v8.29h-5.08v-7.46c0-2.09-.86-2.97-2.19-2.97-1.47,0-2.54,.99-2.54,3.24v7.2h-5.08v-7.46c0-2.09-.83-2.97-2.19-2.97-1.5,0-2.57,.99-2.57,3.24v7.2h-5.08v-14.5h4.84v1.53c1.1-1.18,2.62-1.77,4.33-1.77,1.98,0,3.66,.72,4.68,2.27,1.15-1.44,2.94-2.27,5.03-2.27,3.37,0,5.86,1.95,5.86,6.45Z"/><path class="m" d="M396.64,488.85c0,4.95-2.51,7.65-5.88,7.65-1.9,0-3.29-.8-3.93-2.33-.83,1.47-2.25,2.33-4.33,2.33-3.16,0-5.94-2.65-5.94-6.71s2.73-6.69,5.94-6.69c1.6,0,2.83,.54,3.72,1.53v-1.31h4.36v8.16c0,1.2,.54,1.6,1.18,1.6,.99,0,1.69-1.1,1.69-4.15,0-5.14-3.83-8.72-9.55-8.72s-9.58,3.96-9.58,9.31,3.77,9.36,9.47,9.36c1.74,0,3.58-.35,5.32-1.18l.99,2.86c-1.6,.8-4.07,1.28-6.31,1.28-7.89,0-13.03-5.3-13.03-12.33s5.16-12.28,13.13-12.28,12.76,5.06,12.76,11.61Zm-10.35,.94c0-1.98-1.12-3.05-2.65-3.05s-2.62,1.1-2.62,3.05,1.1,3.08,2.62,3.08,2.65-1.07,2.65-3.08Z"/><path class="m" d="M414.62,487.99v8.29h-5.08v-7.46c0-2.09-.91-2.97-2.38-2.97-1.63,0-2.89,1.02-2.89,3.42v7.01h-5.08v-14.5h4.84v1.58c1.15-1.2,2.78-1.82,4.6-1.82,3.4,0,5.99,1.95,5.99,6.45Z"/><path class="m" d="M417.11,489.01c0-4.36,3.45-7.46,8.18-7.46s8.19,3.1,8.19,7.46-3.4,7.52-8.19,7.52-8.18-3.13-8.18-7.52Zm11.23,0c0-2.19-1.31-3.42-3.05-3.42s-3.05,1.23-3.05,3.42,1.34,3.48,3.05,3.48,3.05-1.26,3.05-3.48Z"/><path class="m" d="M445.85,495.7c-.88,.56-2.19,.83-3.53,.83-3.72,0-5.88-1.82-5.88-5.54v-4.87h-2.11v-3.8h2.11v-3.77h5.08v3.77h3.32v3.8h-3.32v4.81c0,1.07,.62,1.66,1.52,1.66,.56,0,1.12-.16,1.55-.46l1.26,3.56Z"/><path class="m" d="M462.97,481.79v11.85c0,5.48-3.1,8.08-8.51,8.08-2.78,0-5.43-.64-7.2-1.9l1.85-3.56c1.2,.96,3.18,1.55,4.9,1.55,2.73,0,3.88-1.23,3.88-3.5v-.48c-.99,1.15-2.46,1.71-4.31,1.71-3.85,0-7.11-2.73-7.11-7.01s3.26-6.98,7.11-6.98c2.01,0,3.56,.64,4.55,2.01v-1.77h4.84Zm-5.03,6.74c0-1.77-1.34-2.94-3.16-2.94s-3.18,1.18-3.18,2.94,1.36,2.97,3.18,2.97,3.16-1.2,3.16-2.97Z"/><path class="m" d="M490.98,487.99v8.29h-5.08v-7.46c0-2.09-.86-2.97-2.19-2.97-1.47,0-2.54,.99-2.54,3.24v7.2h-5.08v-7.46c0-2.09-.83-2.97-2.19-2.97-1.5,0-2.57,.99-2.57,3.24v7.2h-5.08v-14.5h4.84v1.53c1.1-1.18,2.62-1.77,4.33-1.77,1.98,0,3.66,.72,4.68,2.27,1.15-1.44,2.94-2.27,5.03-2.27,3.37,0,5.86,1.95,5.86,6.45Z"/><path class="m" d="M507.78,488.23v8.05h-4.73v-1.87c-.72,1.39-2.17,2.11-4.28,2.11-3.48,0-5.4-1.95-5.4-4.47,0-2.67,1.95-4.33,6.45-4.33h2.89c-.08-1.47-1.07-2.3-3.08-2.3-1.39,0-2.94,.48-3.93,1.26l-1.71-3.45c1.66-1.1,4.12-1.68,6.39-1.68,4.71,0,7.41,2.09,7.41,6.69Zm-5.08,3.4v-1.26h-2.19c-1.63,0-2.22,.59-2.22,1.47s.7,1.47,1.9,1.47c1.12,0,2.11-.54,2.51-1.69Z"/><path class="m" d="M510.44,477.48c0-1.52,1.23-2.7,3.1-2.7s3.1,1.1,3.1,2.62c0,1.61-1.23,2.78-3.1,2.78s-3.1-1.18-3.1-2.7Zm.56,4.31h5.08v14.5h-5.08v-14.5Z"/><path class="m" d="M519.37,476.44h5.08v19.85h-5.08v-19.85Z"/><path class="m" d="M526.84,493.5c0-1.82,1.34-3,3.05-3s3.05,1.18,3.05,3-1.31,3.02-3.05,3.02-3.05-1.26-3.05-3.02Z"/><path class="m" d="M534.33,489.01c0-4.36,3.45-7.46,8.32-7.46,3.29,0,5.8,1.47,6.79,3.99l-3.93,2.01c-.7-1.36-1.71-1.95-2.89-1.95-1.77,0-3.16,1.23-3.16,3.42s1.39,3.48,3.16,3.48c1.18,0,2.19-.59,2.89-1.95l3.93,2.01c-.99,2.51-3.5,3.99-6.79,3.99-4.87,0-8.32-3.1-8.32-7.52Z"/><path class="m" d="M550.3,489.01c0-4.36,3.45-7.46,8.18-7.46s8.19,3.1,8.19,7.46-3.4,7.52-8.19,7.52-8.18-3.13-8.18-7.52Zm11.23,0c0-2.19-1.31-3.42-3.05-3.42s-3.05,1.23-3.05,3.42,1.34,3.48,3.05,3.48,3.05-1.26,3.05-3.48Z"/><path class="m" d="M593.77,487.99v8.29h-5.08v-7.46c0-2.09-.86-2.97-2.19-2.97-1.47,0-2.54,.99-2.54,3.24v7.2h-5.08v-7.46c0-2.09-.83-2.97-2.19-2.97-1.5,0-2.57,.99-2.57,3.24v7.2h-5.08v-14.5h4.84v1.53c1.1-1.18,2.62-1.77,4.33-1.77,1.98,0,3.66,.72,4.68,2.27,1.15-1.44,2.94-2.27,5.03-2.27,3.37,0,5.86,1.95,5.86,6.45Z"/></g></g></g></g></g></svg>