<svg xmlns="http://www.w3.org/2000/svg" viewBox="0 0 2695.17 1843.87"><defs><style>.cls-1{fill:#1a0a33;}.cls-2,.cls-3{fill:none;stroke:#000;stroke-linejoin:round;}.cls-2{stroke-width:160px;}.cls-3{stroke-width:130px;}.cls-4{fill:#fff;}</style></defs><g id="Layer_2" data-name="Layer 2"><g id="Layer_4_copy" data-name="Layer 4 copy"><path d="M19.25,1174.15c-28.81,33.4-21.9,73.81-1.44,117.66,36.21,77.65,148.13,86.42,308.75,143.13,27.86,9.84,210.46,113.21,296.32,190.51,8.08,7.27,40.58,36,88.32,68.75,16.47,11.3,35.8,23,63,37.11,156.57,81.52,292.81,99.66,349.07,104.92,46.76,4.37,86.73-4.61,167.1,0,300.45,17.07,482.65,19.38,659.28-144.1,60-55.54,59.79-134.14,98.53-206.89,4.51-8.46,21.2-31.1,40.35-53.82,81.87-97.11,188.62-138.69,267.08-174.05,172.88-77.9,334.64-150.8,339.47-245.46,2.9-57-51.11-115.78-104.71-136.39-86.57-33.28-153.27,32.06-343.68,108.35-129.71,52-194.53,80.32-263.14,80.7-182.16,1-404.16-106.91-472.51-290.76-24.74-66.56-7.5,9.61,17.55-361.95,18.65-276.53,18.32-356.73-31.18-392.39-49.89-35.94-140.09-20.14-189,31.93-64.48,68.65-34.67,160.45-45.77,431.35-11.19,273.12-67.29,317.87-106.37,336.24-53.51,25.14-201.12-132.73-317.14-396.09C714.91,141,668.26,156.94,629.5,151c-42.7-6.5-115.71,8.84-125,55.06-30.46,151,109.4,245.59,188.16,439.53C772.35,841.94,833,871.45,818.28,889.51c-25.17,31-154.47-21.43-402.81-129.65C162.11,649.45,88.26,631.06,51.6,666.79,20.83,696.78,9.91,763,36.49,813.34,53.28,845.15,104,879.67,164.3,918.53c156.43,100.84,245.78,92.59,392.54,190.75,89.34,59.75,183.93,150,170.38,176.5-8.16,16-56.71,10.88-451.22-96.19C139.54,1152.56,57.84,1129.42,19.25,1174.15Z"/><path class="cls-1" d="M574.56,1622.65q-63.43,19.24-126.12,41.67,13.35-20.58,26.54-40.85a136.86,136.86,0,0,0,15.44-31.75q42.26-129.87,84.5-259.74c4-12.44,1-21.25-6.83-19.62q-28.25,5.92-56.39,12.28l-99.33,293.71c-3.69,10.92-5.37,20.93-4.78,28.9q1.13,15.69,2.44,31.16-62.4,23.41-123.88,50,14.14-22.65,28.14-44.94a174.14,174.14,0,0,0,16.92-34.68l225.18-646.3a119.72,119.72,0,0,0,6.83-32.26q1-19.17,2.18-38.64H737.13c17.37.12,23.71,25.4,14.18,56.5l-59.77,193.81c-9.38,30.74-54.27,61.94-74.23,65.64,19.66-3.31,49,15.87,39.59,46.68q-42,136.07-83.93,272.13c-3.11,10.09-4.19,19.41-3.05,26.92Q572.14,1608.06,574.56,1622.65Zm32.62-429.37c7.49-1.15,16.84-12.15,20.88-24.61q15.68-48.15,31.34-96.32c4.05-12.46,1.61-22.15-5.43-21.66q-25.47,1.86-50.91,3.84-24.88,73.59-49.78,147.19Q580.19,1197.36,607.18,1193.28Z"/><path class="cls-1" d="M1006.63,931.59q-13.36,62.83-26.75,125.66-8.45-8.61-16.69-17.34a18.77,18.77,0,0,0-14.83-6.09q-47.28,2-94.5,4.43L819.5,1165.94q32.4-3.45,64.87-6.49c6.12-.58,12.72-3.5,19-8.46q13.08-10.24,26-20.28l-34.86,152.54q-9.53-7.74-18.83-15.58a21,21,0,0,0-16.68-4.53q-34.14,4.42-68.19,9.46-27.84,103.51-55.69,207,57.76-12.56,116-22.74c7.07-1.24,14.56-4.77,21.61-10.21q14.61-11.25,29-22.25-13.37,62.82-26.75,125.64a2694.46,2694.46,0,0,0-275.12,65L625.1,1577a106.22,106.22,0,0,0,13.43-28.32Q719.94,1270.32,801.35,992a81.68,81.68,0,0,0,3.54-26.7q-.89-16.74-1.58-33.68Z"/><path class="cls-1" d="M1184,1459.94a46.74,46.74,0,0,0,4.08,24.13q6.46,13.58,13.15,27.14-65.51,3.78-130.84,10.76,9.6-15.1,19-30.07a62.48,62.48,0,0,0,9.21-25.41q15.35-123.77,30.68-247.51-39.12,28.37-80.22,58.22-15.84,99-31.67,198c-1.42,8.87-.73,17.33,2.07,24.46q5.31,13.5,10.83,26.94-65.22,8-130.12,19.1,10.67-16.15,21.14-32.15a76.12,76.12,0,0,0,11.12-26.73L1030,986.88a69.16,69.16,0,0,0,.44-25.7q-2.78-14.73-5.35-29.57h219q-6.63,14-13.46,28.07a69.87,69.87,0,0,0-6.66,24.53Zm-41-351.59q5-40.47,10-80.95-32.13.67-64.25,1.55-10.87,67.92-21.74,135.84Q1106,1135.89,1143,1108.35Z"/><path class="cls-1" d="M1378.36,931.61H1415c19.53,0,36.92,23.59,38.85,52.74l4,64.72q-10.37-8.17-20.54-16.29c-5.93-4.73-12.51-7.27-19.11-7.3q-38.28-.26-76.56-.19c-9.39,0-17.24,10.66-17.53,23.74q-3.4,170.29-6.8,340.61c-.29,13.08,9,23.56,20.71,23.48q47.57-.3,95.12.94a39.85,39.85,0,0,0,22.93-6.46q11.64-7.63,23.07-15.2,2,32.37,4,64.73c1.94,29.15-18.58,51.64-45.86,50.81q-81.13-2.43-162.29,0c-26.53.81-46.5-21.08-44.63-49.43q14.7-237.82,29.39-475.64c1.87-28.36,18.78-51.33,37.77-51.31h80.78Z"/><path class="cls-1" d="M1780.68,1485.93a80.53,80.53,0,0,0,11.8,28.35q10.21,15.6,20.62,31.37-64.86-11.14-130.11-19.1,5.38-13.12,10.56-26.29c3-7.56,3.72-16.53,2.21-25.94l-40.11-250.69q-31.51,24.15-65.12,48.07,12,97,24,194a66.53,66.53,0,0,0,9.76,26.95q9.18,14.63,18.55,29.35-65.31-7-130.85-10.76,6.53-13.24,12.85-26.48a49.84,49.84,0,0,0,4.32-25.6q-19.95-237.06-39.89-474.12a74.64,74.64,0,0,0-7-26q-6.68-13.71-13.14-27.39h94.94q-3.6,13.93-7.39,27.79a68.92,68.92,0,0,0-1.61,26.29l21.75,175.4q31.46-24.75,60.84-49.86-10-62.32-19.94-124.67a83.93,83.93,0,0,0-9.15-26.79q-7.77-14.12-15.34-28.16h94.93q-2.51,14.49-5.21,28.86a73.54,73.54,0,0,0,.47,27.27Z"/><path class="cls-1" d="M1910.37,931.59l41.37,138.91q-13.34-10.83-26.48-21.41c-6.34-5.1-12.69-7.95-18.42-8.27q-47.17-2.67-94.43-4.89,15.66,62.46,31.3,124.93,32.44,3.14,64.83,6.69c6.1.67,11.42-1.12,15.32-5.27q8.1-8.58,16-17.31,23.46,81.73,46.93,163.47-14.37-11.88-28.57-23.49c-6.84-5.59-13.82-9-20.23-10q-34-5.17-68.14-9.73,25.37,101.27,50.74,202.54,58,11.38,115.53,25.12c7,1.67,13.14.84,17.72-2.51q9.51-6.93,18.8-13.95L2114,1615.29a2696.54,2696.54,0,0,0-275.11-65.09q4.56-13.92,8.91-27.92c2.09-6.77,2.15-14.93.24-23.58L1735,987.08a84.84,84.84,0,0,0-9.74-24.67Q1716,946.93,1707,931.59Z"/><path class="cls-1" d="M2427.06,1728.39q-61.47-26.6-123.88-50,1.31-15.47,2.44-31.15c.57-8-1.1-18-4.8-28.92l-91.37-270.2c-4.4-13-14.27-24.93-22.06-26.64q-28.17-6.26-56.45-12.07,45.93,141.16,91.85,282.33a137,137,0,0,0,15.45,31.74q13.19,20.28,26.54,40.86-62.66-22.44-126.11-41.67,2.41-14.6,4.65-29.38c1.13-7.51.06-16.83-3.05-26.93q-88.21-286-176.42-572a119.29,119.29,0,0,0-13.3-28.75q-11-17.11-21.75-34h171.74c17.37-.14,41.47,28.43,53.84,63.84q38.16,109.49,76.3,219c12.4,35.34-14.38,55.95-34.23,51.85,19.58,3.62,66.07,39.65,78.45,75.06L2382,1648.81a174.12,174.12,0,0,0,16.92,34.68Q2412.93,1705.77,2427.06,1728.39Zm-280.61-528.84c7.47,1.21,10-8.32,5.55-21.32q-16.93-50.1-33.89-100.21c-4.4-13-13.66-24-20.7-24.48q-25.44-1.95-50.93-3.77,23,70.74,46,141.49Q2119.52,1195.25,2146.45,1199.55Z"/><path class="cls-2" d="M590.2,1654.65Q528,1673.9,466.61,1696.32q13.08-20.58,26-40.85a137.81,137.81,0,0,0,15.13-31.75q41.41-129.87,82.81-259.74c4-12.44,1-21.25-6.69-19.62q-27.69,5.92-55.26,12.28-48.68,146.85-97.34,293.71c-3.62,10.92-5.26,20.93-4.69,28.9q1.11,15.69,2.39,31.16-61.14,23.41-121.4,50,13.86-22.65,27.58-44.94a175.44,175.44,0,0,0,16.57-34.68l220.68-646.3a121.91,121.91,0,0,0,6.7-32.26q1-19.17,2.13-38.64h168.3c17,.12,23.23,25.4,13.9,56.5q-29.29,96.9-58.58,193.81c-9.19,30.74-53.19,61.94-72.74,65.64,19.26-3.31,48,15.87,38.79,46.68q-41.11,136.07-82.24,272.13c-3.06,10.09-4.12,19.41-3,26.92Q587.84,1640.06,590.2,1654.65Zm32-429.37c7.34-1.15,16.5-12.15,20.46-24.61q15.36-48.15,30.71-96.32c4-12.46,1.59-22.15-5.32-21.66q-25,1.86-49.89,3.84l-48.78,147.19Q595.72,1229.36,622.17,1225.28Z"/><path class="cls-2" d="M1013.63,963.59q-13.11,62.83-26.21,125.66-8.29-8.61-16.36-17.34a18.23,18.23,0,0,0-14.53-6.09q-46.35,2-92.62,4.43l-33.66,127.69q31.74-3.45,63.56-6.49c6-.58,12.47-3.5,18.65-8.46q12.82-10.24,25.46-20.28l-34.17,152.54q-9.33-7.74-18.46-15.58a20.3,20.3,0,0,0-16.34-4.53q-33.47,4.42-66.82,9.46-27.3,103.51-54.59,207,56.63-12.56,113.64-22.74c6.93-1.24,14.27-4.77,21.17-10.21q14.32-11.25,28.45-22.25-13.11,62.82-26.21,125.64a2595.45,2595.45,0,0,0-269.62,65q12.46-19.2,24.76-38.12a107,107,0,0,0,13.16-28.32Q732.68,1302.32,812.45,1024a83.14,83.14,0,0,0,3.47-26.7q-.87-16.74-1.54-33.68Z"/><path class="cls-2" d="M1187.4,1491.94a47.65,47.65,0,0,0,4,24.13q6.35,13.58,12.89,27.14-64.2,3.78-128.22,10.76,9.4-15.1,18.62-30.07a63.47,63.47,0,0,0,9-25.41q15-123.77,30.07-247.51-38.34,28.37-78.62,58.22-15.51,99-31,198c-1.39,8.87-.72,17.33,2,24.46q5.21,13.5,10.61,26.94-63.93,8-127.52,19.1,10.46-16.15,20.72-32.15a76.86,76.86,0,0,0,10.89-26.73l95.64-499.89a70.44,70.44,0,0,0,.43-25.7q-2.72-14.73-5.24-29.57h214.65q-6.49,14-13.19,28.07a71,71,0,0,0-6.53,24.53Q1207,1254.08,1187.4,1491.94Zm-40.18-351.59q4.92-40.47,9.83-80.95-31.48.67-63,1.55-10.63,67.92-21.29,135.84Q1111,1167.89,1147.22,1140.35Z"/><path class="cls-2" d="M1377.93,963.61h35.94c19.13,0,36.17,23.59,38.07,52.74l3.93,64.72q-10.15-8.17-20.13-16.29c-5.81-4.73-12.26-7.27-18.72-7.3q-37.51-.26-75-.19c-9.2,0-16.89,10.66-17.17,23.74q-3.33,170.29-6.67,340.61c-.28,13.08,8.81,23.56,20.3,23.48q46.61-.3,93.22.94a38.46,38.46,0,0,0,22.47-6.46q11.4-7.63,22.61-15.2l3.93,64.73c1.9,29.15-18.21,51.64-45,50.81q-79.5-2.43-159,0c-26,.81-45.57-21.08-43.74-49.43l28.8-475.64c1.84-28.36,18.41-51.33,37-51.31h79.17Z"/><path class="cls-2" d="M1772.2,1517.93a81.43,81.43,0,0,0,11.56,28.35q10,15.6,20.21,31.37-63.57-11.14-127.51-19.1,5.28-13.12,10.35-26.29c2.92-7.56,3.64-16.53,2.17-25.94q-19.67-125.34-39.31-250.69-30.89,24.15-63.82,48.07,11.79,97,23.57,194a67.38,67.38,0,0,0,9.57,26.95q9,14.63,18.17,29.35-64-7-128.23-10.76,6.39-13.24,12.59-26.48a50.76,50.76,0,0,0,4.24-25.6L1486.67,1017a75.83,75.83,0,0,0-6.92-26q-6.52-13.71-12.87-27.39h93q-3.53,13.93-7.25,27.79a70.37,70.37,0,0,0-1.57,26.29q10.67,87.71,21.31,175.4,30.84-24.75,59.63-49.86-9.76-62.32-19.55-124.67a84.86,84.86,0,0,0-9-26.79q-7.62-14.12-15-28.16h93q-2.46,14.49-5.1,28.86a74.81,74.81,0,0,0,.45,27.27Q1724.54,1268.82,1772.2,1517.93Z"/><path class="cls-2" d="M1899.29,963.59q20.26,69.45,40.54,138.91-13.07-10.83-25.94-21.41c-6.21-5.1-12.44-7.95-18.06-8.27q-46.21-2.67-92.53-4.89L1834,1192.86q31.82,3.14,63.54,6.69c6,.67,11.19-1.12,15-5.27q7.93-8.58,15.67-17.31,23,81.73,46,163.47-14.09-11.88-28-23.49c-6.7-5.59-13.54-9-19.83-10q-33.33-5.17-66.77-9.73,24.86,101.27,49.72,202.54,56.82,11.38,113.22,25.12c6.85,1.67,12.88.84,17.37-2.51q9.31-6.93,18.42-13.95,20.27,69.45,40.54,138.89a2598.07,2598.07,0,0,0-269.61-65.09q4.47-13.92,8.73-27.92c2-6.77,2.12-14.93.24-23.58q-55.38-255.81-110.78-511.62a85.84,85.84,0,0,0-9.54-24.67q-9-15.48-17.86-30.82Z"/><path class="cls-2" d="M2405.65,1760.39q-60.24-26.6-121.4-50,1.27-15.47,2.39-31.15c.56-8-1.08-18-4.7-28.92l-89.55-270.2c-4.31-13-14-24.93-21.61-26.64q-27.62-6.26-55.33-12.07,45,141.16,90,282.33a137.57,137.57,0,0,0,15.14,31.74l26,40.86q-61.41-22.44-123.6-41.67,2.39-14.6,4.56-29.38c1.12-7.51.06-16.83-3-26.93l-172.89-572a120.07,120.07,0,0,0-13-28.75q-10.76-17.11-21.31-34h168.3c17-.14,40.64,28.43,52.77,63.84l74.77,219c12.15,35.34-14.09,55.95-33.54,51.85,19.18,3.62,64.74,39.65,76.87,75.06q52.5,153.75,105,307.48a176,176,0,0,0,16.58,34.68Q2391.81,1737.77,2405.65,1760.39Zm-275-528.84c7.32,1.21,9.76-8.32,5.44-21.32L2102.88,1110c-4.31-13-13.39-24-20.29-24.48q-24.93-1.95-49.9-3.77,22.55,70.74,45.11,141.49Q2104.26,1227.25,2130.65,1231.55Z"/><path class="cls-3" d="M574.56,1622.65q-63.43,19.24-126.12,41.67,13.35-20.58,26.54-40.85a136.86,136.86,0,0,0,15.44-31.75q42.26-129.87,84.5-259.74c4-12.44,1-21.25-6.83-19.62q-28.25,5.92-56.39,12.28l-99.33,293.71c-3.69,10.92-5.37,20.93-4.78,28.9q1.13,15.69,2.44,31.16-62.4,23.41-123.88,50,14.14-22.65,28.14-44.94a174.14,174.14,0,0,0,16.92-34.68l225.18-646.3a119.72,119.72,0,0,0,6.83-32.26q1-19.17,2.18-38.64H737.13c17.37.12,23.71,25.4,14.18,56.5l-59.77,193.81c-9.38,30.74-54.27,61.94-74.23,65.64,19.66-3.31,49,15.87,39.59,46.68q-42,136.07-83.93,272.13c-3.11,10.09-4.19,19.41-3.05,26.92Q572.14,1608.06,574.56,1622.65Zm32.62-429.37c7.49-1.15,16.84-12.15,20.88-24.61q15.68-48.15,31.34-96.32c4.05-12.46,1.61-22.15-5.43-21.66q-25.47,1.86-50.91,3.84-24.88,73.59-49.78,147.19Q580.19,1197.36,607.18,1193.28Z"/><path class="cls-3" d="M1006.63,931.59q-13.36,62.83-26.75,125.66-8.45-8.61-16.69-17.34a18.77,18.77,0,0,0-14.83-6.09q-47.28,2-94.5,4.43L819.5,1165.94q32.4-3.45,64.87-6.49c6.12-.58,12.72-3.5,19-8.46q13.08-10.24,26-20.28l-34.86,152.54q-9.53-7.74-18.83-15.58a21,21,0,0,0-16.68-4.53q-34.14,4.42-68.19,9.46-27.84,103.51-55.69,207,57.76-12.56,116-22.74c7.07-1.24,14.56-4.77,21.61-10.21q14.61-11.25,29-22.25-13.37,62.82-26.75,125.64a2694.46,2694.46,0,0,0-275.12,65L625.1,1577a106.22,106.22,0,0,0,13.43-28.32Q719.94,1270.32,801.35,992a81.68,81.68,0,0,0,3.54-26.7q-.89-16.74-1.58-33.68Z"/><path class="cls-3" d="M1184,1459.94a46.74,46.74,0,0,0,4.08,24.13q6.46,13.58,13.15,27.14-65.51,3.78-130.84,10.76,9.6-15.1,19-30.07a62.48,62.48,0,0,0,9.21-25.41q15.35-123.77,30.68-247.51-39.12,28.37-80.22,58.22-15.84,99-31.67,198c-1.42,8.87-.73,17.33,2.07,24.46q5.31,13.5,10.83,26.94-65.22,8-130.12,19.1,10.67-16.15,21.14-32.15a76.12,76.12,0,0,0,11.12-26.73L1030,986.88a69.16,69.16,0,0,0,.44-25.7q-2.78-14.73-5.35-29.57h219q-6.63,14-13.46,28.07a69.87,69.87,0,0,0-6.66,24.53Zm-41-351.59q5-40.47,10-80.95-32.13.67-64.25,1.55-10.87,67.92-21.74,135.84Q1106,1135.89,1143,1108.35Z"/><path class="cls-3" d="M1378.36,931.61H1415c19.53,0,36.92,23.59,38.85,52.74l4,64.72q-10.37-8.17-20.54-16.29c-5.93-4.73-12.51-7.27-19.11-7.3q-38.28-.26-76.56-.19c-9.39,0-17.24,10.66-17.53,23.74q-3.4,170.29-6.8,340.61c-.29,13.08,9,23.56,20.71,23.48q47.57-.3,95.12.94a39.85,39.85,0,0,0,22.93-6.46q11.64-7.63,23.07-15.2,2,32.37,4,64.73c1.94,29.15-18.58,51.64-45.86,50.81q-81.13-2.43-162.29,0c-26.53.81-46.5-21.08-44.63-49.43q14.7-237.82,29.39-475.64c1.87-28.36,18.78-51.33,37.77-51.31h80.78Z"/><path class="cls-3" d="M1780.68,1485.93a80.53,80.53,0,0,0,11.8,28.35q10.21,15.6,20.62,31.37-64.86-11.14-130.11-19.1,5.38-13.12,10.56-26.29c3-7.56,3.72-16.53,2.21-25.94l-40.11-250.69q-31.51,24.15-65.12,48.07,12,97,24,194a66.53,66.53,0,0,0,9.76,26.95q9.18,14.63,18.55,29.35-65.31-7-130.85-10.76,6.53-13.24,12.85-26.48a49.84,49.84,0,0,0,4.32-25.6q-19.95-237.06-39.89-474.12a74.64,74.64,0,0,0-7-26q-6.68-13.71-13.14-27.39h94.94q-3.6,13.93-7.39,27.79a68.92,68.92,0,0,0-1.61,26.29l21.75,175.4q31.46-24.75,60.84-49.86-10-62.32-19.94-124.67a83.93,83.93,0,0,0-9.15-26.79q-7.77-14.12-15.34-28.16h94.93q-2.51,14.49-5.21,28.86a73.54,73.54,0,0,0,.47,27.27Z"/><path class="cls-3" d="M1910.37,931.59l41.37,138.91q-13.34-10.83-26.48-21.41c-6.34-5.1-12.69-7.95-18.42-8.27q-47.17-2.67-94.43-4.89,15.66,62.46,31.3,124.93,32.44,3.14,64.83,6.69c6.1.67,11.42-1.12,15.32-5.27q8.1-8.58,16-17.31,23.46,81.73,46.93,163.47-14.37-11.88-28.57-23.49c-6.84-5.59-13.82-9-20.23-10q-34-5.17-68.14-9.73,25.37,101.27,50.74,202.54,58,11.38,115.53,25.12c7,1.67,13.14.84,17.72-2.51q9.51-6.93,18.8-13.95L2114,1615.29a2696.54,2696.54,0,0,0-275.11-65.09q4.56-13.92,8.91-27.92c2.09-6.77,2.15-14.93.24-23.58L1735,987.08a84.84,84.84,0,0,0-9.74-24.67Q1716,946.93,1707,931.59Z"/><path class="cls-3" d="M2427.06,1728.39q-61.47-26.6-123.88-50,1.31-15.47,2.44-31.15c.57-8-1.1-18-4.8-28.92l-91.37-270.2c-4.4-13-14.27-24.93-22.06-26.64q-28.17-6.26-56.45-12.07,45.93,141.16,91.85,282.33a137,137,0,0,0,15.45,31.74q13.19,20.28,26.54,40.86-62.66-22.44-126.11-41.67,2.41-14.6,4.65-29.38c1.13-7.51.06-16.83-3.05-26.93q-88.21-286-176.42-572a119.29,119.29,0,0,0-13.3-28.75q-11-17.11-21.75-34h171.74c17.37-.14,41.47,28.43,53.84,63.84q38.16,109.49,76.3,219c12.4,35.34-14.38,55.95-34.23,51.85,19.58,3.62,66.07,39.65,78.45,75.06L2382,1648.81a174.12,174.12,0,0,0,16.92,34.68Q2412.93,1705.77,2427.06,1728.39Zm-280.61-528.84c7.47,1.21,10-8.32,5.55-21.32q-16.93-50.1-33.89-100.21c-4.4-13-13.66-24-20.7-24.48q-25.44-1.95-50.93-3.77,23,70.74,46,141.49Q2119.52,1195.25,2146.45,1199.55Z"/><path class="cls-4" d="M574.56,1622.65q-63.43,19.24-126.12,41.67,13.35-20.58,26.54-40.85a136.86,136.86,0,0,0,15.44-31.75q42.26-129.87,84.5-259.74c4-12.44,1-21.25-6.83-19.62q-28.25,5.92-56.39,12.28l-99.33,293.71c-3.69,10.92-5.37,20.93-4.78,28.9q1.13,15.69,2.44,31.16-62.4,23.41-123.88,50,14.14-22.65,28.14-44.94a174.14,174.14,0,0,0,16.92-34.68l225.18-646.3a119.72,119.72,0,0,0,6.83-32.26q1-19.17,2.18-38.64H737.13c17.37.12,23.71,25.4,14.18,56.5l-59.77,193.81c-9.38,30.74-54.27,61.94-74.23,65.64,19.66-3.31,49,15.87,39.59,46.68q-42,136.07-83.93,272.13c-3.11,10.09-4.19,19.41-3.05,26.92Q572.14,1608.06,574.56,1622.65Zm32.62-429.37c7.49-1.15,16.84-12.15,20.88-24.61q15.68-48.15,31.34-96.32c4.05-12.46,1.61-22.15-5.43-21.66q-25.47,1.86-50.91,3.84-24.88,73.59-49.78,147.19Q580.19,1197.36,607.18,1193.28Z"/><path class="cls-4" d="M1006.63,931.59q-13.36,62.83-26.75,125.66-8.45-8.61-16.69-17.34a18.77,18.77,0,0,0-14.83-6.09q-47.28,2-94.5,4.43L819.5,1165.94q32.4-3.45,64.87-6.49c6.12-.58,12.72-3.5,19-8.46q13.08-10.24,26-20.28l-34.86,152.54q-9.53-7.74-18.83-15.58a21,21,0,0,0-16.68-4.53q-34.14,4.42-68.19,9.46-27.84,103.51-55.69,207,57.76-12.56,116-22.74c7.07-1.24,14.56-4.77,21.61-10.21q14.61-11.25,29-22.25-13.37,62.82-26.75,125.64a2694.46,2694.46,0,0,0-275.12,65L625.1,1577a106.22,106.22,0,0,0,13.43-28.32Q719.94,1270.32,801.35,992a81.68,81.68,0,0,0,3.54-26.7q-.89-16.74-1.58-33.68Z"/><path class="cls-4" d="M1184,1459.94a46.74,46.74,0,0,0,4.08,24.13q6.46,13.58,13.15,27.14-65.51,3.78-130.84,10.76,9.6-15.1,19-30.07a62.48,62.48,0,0,0,9.21-25.41q15.35-123.77,30.68-247.51-39.12,28.37-80.22,58.22-15.84,99-31.67,198c-1.42,8.87-.73,17.33,2.07,24.46q5.31,13.5,10.83,26.94-65.22,8-130.12,19.1,10.67-16.15,21.14-32.15a76.12,76.12,0,0,0,11.12-26.73L1030,986.88a69.16,69.16,0,0,0,.44-25.7q-2.78-14.73-5.35-29.57h219q-6.63,14-13.46,28.07a69.87,69.87,0,0,0-6.66,24.53Zm-41-351.59q5-40.47,10-80.95-32.13.67-64.25,1.55-10.87,67.92-21.74,135.84Q1106,1135.89,1143,1108.35Z"/><path class="cls-4" d="M1378.36,931.61H1415c19.53,0,36.92,23.59,38.85,52.74l4,64.72q-10.37-8.17-20.54-16.29c-5.93-4.73-12.51-7.27-19.11-7.3q-38.28-.26-76.56-.19c-9.39,0-17.24,10.66-17.53,23.74q-3.4,170.29-6.8,340.61c-.29,13.08,9,23.56,20.71,23.48q47.57-.3,95.12.94a39.85,39.85,0,0,0,22.93-6.46q11.64-7.63,23.07-15.2,2,32.37,4,64.73c1.94,29.15-18.58,51.64-45.86,50.81q-81.13-2.43-162.29,0c-26.53.81-46.5-21.08-44.63-49.43q14.7-237.82,29.39-475.64c1.87-28.36,18.78-51.33,37.77-51.31h80.78Z"/><path class="cls-4" d="M1780.68,1485.93a80.53,80.53,0,0,0,11.8,28.35q10.21,15.6,20.62,31.37-64.86-11.14-130.11-19.1,5.38-13.12,10.56-26.29c3-7.56,3.72-16.53,2.21-25.94l-40.11-250.69q-31.51,24.15-65.12,48.07,12,97,24,194a66.53,66.53,0,0,0,9.76,26.95q9.18,14.63,18.55,29.35-65.31-7-130.85-10.76,6.53-13.24,12.85-26.48a49.84,49.84,0,0,0,4.32-25.6q-19.95-237.06-39.89-474.12a74.64,74.64,0,0,0-7-26q-6.68-13.71-13.14-27.39h94.94q-3.6,13.93-7.39,27.79a68.92,68.92,0,0,0-1.61,26.29l21.75,175.4q31.46-24.75,60.84-49.86-10-62.32-19.94-124.67a83.93,83.93,0,0,0-9.15-26.79q-7.77-14.12-15.34-28.16h94.93q-2.51,14.49-5.21,28.86a73.54,73.54,0,0,0,.47,27.27Z"/><path class="cls-4" d="M1910.37,931.59l41.37,138.91q-13.34-10.83-26.48-21.41c-6.34-5.1-12.69-7.95-18.42-8.27q-47.17-2.67-94.43-4.89,15.66,62.46,31.3,124.93,32.44,3.14,64.83,6.69c6.1.67,11.42-1.12,15.32-5.27q8.1-8.58,16-17.31,23.46,81.73,46.93,163.47-14.37-11.88-28.57-23.49c-6.84-5.59-13.82-9-20.23-10q-34-5.17-68.14-9.73,25.37,101.27,50.74,202.54,58,11.38,115.53,25.12c7,1.67,13.14.84,17.72-2.51q9.51-6.93,18.8-13.95L2114,1615.29a2696.54,2696.54,0,0,0-275.11-65.09q4.56-13.92,8.91-27.92c2.09-6.77,2.15-14.93.24-23.58L1735,987.08a84.84,84.84,0,0,0-9.74-24.67Q1716,946.93,1707,931.59Z"/><path class="cls-4" d="M2427.06,1728.39q-61.47-26.6-123.88-50,1.31-15.47,2.44-31.15c.57-8-1.1-18-4.8-28.92l-91.37-270.2c-4.4-13-14.27-24.93-22.06-26.64q-28.17-6.26-56.45-12.07,45.93,141.16,91.85,282.33a137,137,0,0,0,15.45,31.74q13.19,20.28,26.54,40.86-62.66-22.44-126.11-41.67,2.41-14.6,4.65-29.38c1.13-7.51.06-16.83-3.05-26.93q-88.21-286-176.42-572a119.29,119.29,0,0,0-13.3-28.75q-11-17.11-21.75-34h171.74c17.37-.14,41.47,28.43,53.84,63.84q38.16,109.49,76.3,219c12.4,35.34-14.38,55.95-34.23,51.85,19.58,3.62,66.07,39.65,78.45,75.06L2382,1648.81a174.12,174.12,0,0,0,16.92,34.68Q2412.93,1705.77,2427.06,1728.39Zm-280.61-528.84c7.47,1.21,10-8.32,5.55-21.32q-16.93-50.1-33.89-100.21c-4.4-13-13.66-24-20.7-24.48q-25.44-1.95-50.93-3.77,23,70.74,46,141.49Q2119.52,1195.25,2146.45,1199.55Z"/></g></g></svg>