<svg xmlns="http://www.w3.org/2000/svg" viewBox="0 0 2695.17 1843.87"><defs><style>.cls-1{fill:#fff;}.cls-2{fill:#1a0a33;}.cls-3{fill:none;stroke:#fff;stroke-linejoin:round;stroke-width:130px;}</style></defs><g id="Layer_2" data-name="Layer 2"><g id="Layer_7" data-name="Layer 7"><path class="cls-1" d="M19.25,1174.15c-28.81,33.4-21.9,73.81-1.44,117.66,36.21,77.65,148.13,86.42,308.75,143.13,27.86,9.84,210.46,113.21,296.32,190.51,8.08,7.27,40.58,36,88.32,68.75,16.47,11.3,35.8,23,63,37.11,156.57,81.52,292.81,99.66,349.07,104.92,46.76,4.37,86.73-4.61,167.1,0,300.45,17.07,482.65,19.38,659.28-144.1,60-55.54,59.79-134.14,98.53-206.89,4.51-8.46,21.2-31.1,40.35-53.82,81.87-97.11,188.62-138.69,267.08-174.05,172.88-77.9,334.64-150.8,339.47-245.46,2.9-57-51.11-115.78-104.71-136.39-86.57-33.28-153.27,32.06-343.68,108.35-129.71,52-194.53,80.32-263.14,80.7-182.16,1-404.16-106.91-472.51-290.76-24.74-66.56-7.5,9.61,17.55-361.95,18.65-276.53,18.32-356.73-31.18-392.39-49.89-35.94-140.09-20.14-189,31.93-64.48,68.65-34.67,160.45-45.77,431.35-11.19,273.12-67.29,317.87-106.37,336.24-53.51,25.14-201.12-132.73-317.14-396.09C714.91,141,668.26,156.94,629.5,151c-42.7-6.5-115.71,8.84-125,55.06-30.46,151,109.4,245.59,188.16,439.53C772.35,841.94,833,871.45,818.28,889.51c-25.17,31-154.47-21.43-402.81-129.65C162.11,649.45,88.26,631.06,51.6,666.79,20.83,696.78,9.91,763,36.49,813.34,53.28,845.15,104,879.67,164.3,918.53c156.43,100.84,245.78,92.59,392.54,190.75,89.34,59.75,183.93,150,170.38,176.5-8.16,16-56.71,10.88-451.22-96.19C139.54,1152.56,57.84,1129.42,19.25,1174.15Z"/><path class="cls-2" d="M574.56,1622.65q-63.43,19.24-126.12,41.67,13.35-20.58,26.54-40.85a136.86,136.86,0,0,0,15.44-31.75q42.26-129.87,84.5-259.74c4-12.44,1-21.25-6.83-19.62q-28.25,5.92-56.39,12.28l-99.33,293.71c-3.69,10.92-5.37,20.93-4.78,28.9q1.13,15.69,2.44,31.16-62.4,23.41-123.88,50,14.14-22.65,28.14-44.94a174.14,174.14,0,0,0,16.92-34.68l225.18-646.3a119.34,119.34,0,0,0,6.83-32.26q1-19.17,2.18-38.64H737.13c17.37.12,23.71,25.4,14.18,56.5l-59.77,193.81c-9.38,30.73-54.28,61.95-74.23,65.64,19.66-3.31,49,15.87,39.59,46.68q-42,136.07-83.93,272.13c-3.11,10.1-4.19,19.41-3.05,26.92Q572.14,1608.06,574.56,1622.65Zm32.62-429.37c7.49-1.15,16.84-12.15,20.88-24.61q15.68-48.15,31.34-96.32c4.05-12.46,1.62-22.15-5.43-21.66q-25.47,1.86-50.91,3.84-24.88,73.59-49.78,147.19Q580.19,1197.36,607.18,1193.28Z"/><path class="cls-2" d="M1006.63,931.59q-13.36,62.83-26.75,125.66-8.45-8.61-16.69-17.34a18.77,18.77,0,0,0-14.83-6.09q-47.28,2-94.5,4.43-17.19,63.84-34.36,127.69,32.4-3.45,64.87-6.49c6.12-.58,12.72-3.5,19-8.46q13.08-10.24,26-20.28l-34.86,152.54q-9.53-7.74-18.83-15.58a21,21,0,0,0-16.68-4.53q-34.15,4.42-68.19,9.46-27.84,103.51-55.7,207,57.78-12.56,116-22.74c7.07-1.24,14.56-4.77,21.6-10.21q14.61-11.25,29-22.25-13.37,62.82-26.75,125.64a2694.46,2694.46,0,0,0-275.12,65L625.1,1577a106.08,106.08,0,0,0,13.43-28.32Q719.94,1270.32,801.35,992a81.68,81.68,0,0,0,3.54-26.7q-.89-16.74-1.58-33.68Z"/><path class="cls-2" d="M1184,1459.94a46.74,46.74,0,0,0,4.08,24.13q6.46,13.58,13.15,27.14-65.51,3.78-130.84,10.76,9.6-15.1,19-30.07a62.48,62.48,0,0,0,9.21-25.41q15.35-123.77,30.68-247.51-39.12,28.37-80.22,58.22-15.84,99-31.67,198c-1.42,8.87-.73,17.33,2.07,24.46q5.31,13.5,10.83,26.94-65.22,8-130.12,19.1,10.67-16.15,21.14-32.15a76,76,0,0,0,11.12-26.73L1030,986.88a69.16,69.16,0,0,0,.44-25.7q-2.78-14.73-5.35-29.57h219q-6.63,14-13.46,28.07a70.08,70.08,0,0,0-6.66,24.53Zm-41-351.59q5-40.47,10-80.95-32.13.67-64.25,1.55-10.87,67.92-21.73,135.84Q1106,1135.89,1143,1108.35Z"/><path class="cls-2" d="M1378.36,931.61H1415c19.53,0,36.92,23.59,38.85,52.74l4,64.72q-10.37-8.17-20.54-16.29c-5.93-4.73-12.52-7.27-19.11-7.3q-38.28-.26-76.56-.19c-9.4,0-17.24,10.66-17.53,23.74q-3.4,170.29-6.8,340.61c-.29,13.08,9,23.56,20.71,23.48q47.57-.3,95.12.94a39.77,39.77,0,0,0,22.93-6.46q11.64-7.63,23.07-15.2,2,32.37,4,64.73c1.94,29.15-18.59,51.64-45.86,50.81q-81.13-2.43-162.29,0c-26.53.81-46.5-21.07-44.63-49.43q14.7-237.82,29.39-475.64c1.87-28.36,18.78-51.33,37.77-51.31h80.78Z"/><path class="cls-2" d="M1780.68,1485.93a80.53,80.53,0,0,0,11.8,28.35q10.21,15.6,20.62,31.37-64.86-11.14-130.11-19.1,5.38-13.11,10.56-26.29c3-7.56,3.71-16.53,2.21-25.94l-40.11-250.68q-31.51,24.13-65.12,48.06,12,97,24,194a66.48,66.48,0,0,0,9.76,26.95q9.18,14.63,18.55,29.35-65.31-7-130.85-10.76,6.53-13.24,12.84-26.48a49.84,49.84,0,0,0,4.33-25.6q-19.95-237.06-39.89-474.12a74.43,74.43,0,0,0-7-26q-6.68-13.71-13.14-27.39h94.93q-3.58,13.93-7.39,27.79a68.93,68.93,0,0,0-1.6,26.29l21.75,175.4q31.46-24.75,60.84-49.86-10-62.32-19.94-124.67a83.93,83.93,0,0,0-9.15-26.79q-7.77-14.12-15.34-28.16h94.93q-2.51,14.49-5.21,28.86a73.75,73.75,0,0,0,.47,27.27Z"/><path class="cls-2" d="M1910.37,931.59Q1931,1001,1951.74,1070.5q-13.34-10.83-26.48-21.41c-6.34-5.1-12.69-7.95-18.42-8.27q-47.17-2.67-94.43-4.89,15.66,62.46,31.3,124.93,32.44,3.14,64.83,6.69c6.1.67,11.42-1.12,15.32-5.27q8.1-8.58,16-17.31,23.48,81.73,46.93,163.47-14.37-11.88-28.57-23.49c-6.84-5.59-13.82-9-20.23-10q-34-5.17-68.14-9.73,25.37,101.27,50.74,202.55,58,11.37,115.53,25.11c7,1.67,13.14.84,17.72-2.51q9.51-6.93,18.8-13.95L2114,1615.29a2696.54,2696.54,0,0,0-275.11-65.09q4.56-13.92,8.91-27.92c2.09-6.77,2.15-14.93.24-23.58L1735,987.08a84.56,84.56,0,0,0-9.74-24.67Q1716,946.93,1707,931.59Z"/><path class="cls-2" d="M2427.06,1728.39q-61.47-26.6-123.88-50,1.31-15.47,2.44-31.15c.57-8-1.1-18-4.8-28.92l-91.38-270.2c-4.4-13-14.26-24.93-22.05-26.64q-28.17-6.26-56.45-12.07,45.93,141.16,91.85,282.33a136.63,136.63,0,0,0,15.45,31.74q13.19,20.28,26.54,40.86-62.66-22.44-126.12-41.67,2.43-14.6,4.66-29.38c1.13-7.51.06-16.83-3.05-26.93q-88.21-286-176.42-572a118.91,118.91,0,0,0-13.3-28.75q-11-17.11-21.75-34h171.74c17.37-.14,41.47,28.43,53.84,63.84q38.16,109.49,76.3,219c12.4,35.34-14.38,55.94-34.23,51.85,19.58,3.62,66.08,39.65,78.45,75.06L2382,1648.81a173.86,173.86,0,0,0,16.92,34.68Q2412.93,1705.77,2427.06,1728.39Zm-280.61-528.84c7.47,1.21,10-8.32,5.55-21.32q-16.93-50.1-33.89-100.21c-4.4-13-13.66-24-20.7-24.48q-25.44-1.95-50.93-3.77,23,70.74,46,141.49Q2119.52,1195.25,2146.45,1199.55Z"/><path class="cls-3" d="M574.56,1622.65q-63.43,19.24-126.12,41.67,13.35-20.58,26.54-40.85a136.86,136.86,0,0,0,15.44-31.75q42.26-129.87,84.5-259.74c4-12.44,1-21.25-6.83-19.62q-28.25,5.92-56.39,12.28l-99.33,293.71c-3.69,10.92-5.37,20.93-4.78,28.9q1.13,15.69,2.44,31.16-62.4,23.41-123.88,50,14.14-22.65,28.14-44.94a174.14,174.14,0,0,0,16.92-34.68l225.18-646.3a119.34,119.34,0,0,0,6.83-32.26q1-19.17,2.18-38.64H737.13c17.37.12,23.71,25.4,14.18,56.5l-59.77,193.81c-9.38,30.73-54.28,61.95-74.23,65.64,19.66-3.31,49,15.87,39.59,46.68q-42,136.07-83.93,272.13c-3.11,10.1-4.19,19.41-3.05,26.92Q572.14,1608.06,574.56,1622.65Zm32.62-429.37c7.49-1.15,16.84-12.15,20.88-24.61q15.68-48.15,31.34-96.32c4.05-12.46,1.62-22.15-5.43-21.66q-25.47,1.86-50.91,3.84-24.88,73.59-49.78,147.19Q580.19,1197.36,607.18,1193.28Z"/><path class="cls-3" d="M1006.63,931.59q-13.36,62.83-26.75,125.66-8.45-8.61-16.69-17.34a18.77,18.77,0,0,0-14.83-6.09q-47.28,2-94.5,4.43-17.19,63.84-34.36,127.69,32.4-3.45,64.87-6.49c6.12-.58,12.72-3.5,19-8.46q13.08-10.24,26-20.28l-34.86,152.54q-9.53-7.74-18.83-15.58a21,21,0,0,0-16.68-4.53q-34.15,4.42-68.19,9.46-27.84,103.51-55.7,207,57.78-12.56,116-22.74c7.07-1.24,14.56-4.77,21.6-10.21q14.61-11.25,29-22.25-13.37,62.82-26.75,125.64a2694.46,2694.46,0,0,0-275.12,65L625.1,1577a106.08,106.08,0,0,0,13.43-28.32Q719.94,1270.32,801.35,992a81.68,81.68,0,0,0,3.54-26.7q-.89-16.74-1.58-33.68Z"/><path class="cls-3" d="M1184,1459.94a46.74,46.74,0,0,0,4.08,24.13q6.46,13.58,13.15,27.14-65.51,3.78-130.84,10.76,9.6-15.1,19-30.07a62.48,62.48,0,0,0,9.21-25.41q15.35-123.77,30.68-247.51-39.12,28.37-80.22,58.22-15.84,99-31.67,198c-1.42,8.87-.73,17.33,2.07,24.46q5.31,13.5,10.83,26.94-65.22,8-130.12,19.1,10.67-16.15,21.14-32.15a76,76,0,0,0,11.12-26.73L1030,986.88a69.16,69.16,0,0,0,.44-25.7q-2.78-14.73-5.35-29.57h219q-6.63,14-13.46,28.07a70.08,70.08,0,0,0-6.66,24.53Zm-41-351.59q5-40.47,10-80.95-32.13.67-64.25,1.55-10.87,67.92-21.73,135.84Q1106,1135.89,1143,1108.35Z"/><path class="cls-3" d="M1378.36,931.61H1415c19.53,0,36.92,23.59,38.85,52.74l4,64.72q-10.37-8.17-20.54-16.29c-5.93-4.73-12.52-7.27-19.11-7.3q-38.28-.26-76.56-.19c-9.4,0-17.24,10.66-17.53,23.74q-3.4,170.29-6.8,340.61c-.29,13.08,9,23.56,20.71,23.48q47.57-.3,95.12.94a39.77,39.77,0,0,0,22.93-6.46q11.64-7.63,23.07-15.2,2,32.37,4,64.73c1.94,29.15-18.59,51.64-45.86,50.81q-81.13-2.43-162.29,0c-26.53.81-46.5-21.07-44.63-49.43q14.7-237.82,29.39-475.64c1.87-28.36,18.78-51.33,37.77-51.31h80.78Z"/><path class="cls-3" d="M1780.68,1485.93a80.53,80.53,0,0,0,11.8,28.35q10.21,15.6,20.62,31.37-64.86-11.14-130.11-19.1,5.38-13.11,10.56-26.29c3-7.56,3.71-16.53,2.21-25.94l-40.11-250.68q-31.51,24.13-65.12,48.06,12,97,24,194a66.48,66.48,0,0,0,9.76,26.95q9.18,14.63,18.55,29.35-65.31-7-130.85-10.76,6.53-13.24,12.84-26.48a49.84,49.84,0,0,0,4.33-25.6q-19.95-237.06-39.89-474.12a74.43,74.43,0,0,0-7-26q-6.68-13.71-13.14-27.39h94.93q-3.58,13.93-7.39,27.79a68.93,68.93,0,0,0-1.6,26.29l21.75,175.4q31.46-24.75,60.84-49.86-10-62.32-19.94-124.67a83.93,83.93,0,0,0-9.15-26.79q-7.77-14.12-15.34-28.16h94.93q-2.51,14.49-5.21,28.86a73.75,73.75,0,0,0,.47,27.27Z"/><path class="cls-3" d="M1910.37,931.59Q1931,1001,1951.74,1070.5q-13.34-10.83-26.48-21.41c-6.34-5.1-12.69-7.95-18.42-8.27q-47.17-2.67-94.43-4.89,15.66,62.46,31.3,124.93,32.44,3.14,64.83,6.69c6.1.67,11.42-1.12,15.32-5.27q8.1-8.58,16-17.31,23.48,81.73,46.93,163.47-14.37-11.88-28.57-23.49c-6.84-5.59-13.82-9-20.23-10q-34-5.17-68.14-9.73,25.37,101.27,50.74,202.55,58,11.37,115.53,25.11c7,1.67,13.14.84,17.72-2.51q9.51-6.93,18.8-13.95L2114,1615.29a2696.54,2696.54,0,0,0-275.11-65.09q4.56-13.92,8.91-27.92c2.09-6.77,2.15-14.93.24-23.58L1735,987.08a84.56,84.56,0,0,0-9.74-24.67Q1716,946.93,1707,931.59Z"/><path class="cls-3" d="M2427.06,1728.39q-61.47-26.6-123.88-50,1.31-15.47,2.44-31.15c.57-8-1.1-18-4.8-28.92l-91.38-270.2c-4.4-13-14.26-24.93-22.05-26.64q-28.17-6.26-56.45-12.07,45.93,141.16,91.85,282.33a136.63,136.63,0,0,0,15.45,31.74q13.19,20.28,26.54,40.86-62.66-22.44-126.12-41.67,2.43-14.6,4.66-29.38c1.13-7.51.06-16.83-3.05-26.93q-88.21-286-176.42-572a118.91,118.91,0,0,0-13.3-28.75q-11-17.11-21.75-34h171.74c17.37-.14,41.47,28.43,53.84,63.84q38.16,109.49,76.3,219c12.4,35.34-14.38,55.94-34.23,51.85,19.58,3.62,66.08,39.65,78.45,75.06L2382,1648.81a173.86,173.86,0,0,0,16.92,34.68Q2412.93,1705.77,2427.06,1728.39Zm-280.61-528.84c7.47,1.21,10-8.32,5.55-21.32q-16.93-50.1-33.89-100.21c-4.4-13-13.66-24-20.7-24.48q-25.44-1.95-50.93-3.77,23,70.74,46,141.49Q2119.52,1195.25,2146.45,1199.55Z"/><path d="M574.56,1622.65q-63.43,19.24-126.12,41.67,13.35-20.58,26.54-40.85a136.86,136.86,0,0,0,15.44-31.75q42.26-129.87,84.5-259.74c4-12.44,1-21.25-6.83-19.62q-28.25,5.92-56.39,12.28l-99.33,293.71c-3.69,10.92-5.37,20.93-4.78,28.9q1.13,15.69,2.44,31.16-62.4,23.41-123.88,50,14.14-22.65,28.14-44.94a174.14,174.14,0,0,0,16.92-34.68l225.18-646.3a119.34,119.34,0,0,0,6.83-32.26q1-19.17,2.18-38.64H737.13c17.37.12,23.71,25.4,14.18,56.5l-59.77,193.81c-9.38,30.73-54.28,61.95-74.23,65.64,19.66-3.31,49,15.87,39.59,46.68q-42,136.07-83.93,272.13c-3.11,10.1-4.19,19.41-3.05,26.92Q572.14,1608.06,574.56,1622.65Zm32.62-429.37c7.49-1.15,16.84-12.15,20.88-24.61q15.68-48.15,31.34-96.32c4.05-12.46,1.62-22.15-5.43-21.66q-25.47,1.86-50.91,3.84-24.88,73.59-49.78,147.19Q580.19,1197.36,607.18,1193.28Z"/><path d="M1006.63,931.59q-13.36,62.83-26.75,125.66-8.45-8.61-16.69-17.34a18.77,18.77,0,0,0-14.83-6.09q-47.28,2-94.5,4.43-17.19,63.84-34.36,127.69,32.4-3.45,64.87-6.49c6.12-.58,12.72-3.5,19-8.46q13.08-10.24,26-20.28l-34.86,152.54q-9.53-7.74-18.83-15.58a21,21,0,0,0-16.68-4.53q-34.15,4.42-68.19,9.46-27.84,103.51-55.7,207,57.78-12.56,116-22.74c7.07-1.24,14.56-4.77,21.6-10.21q14.61-11.25,29-22.25-13.37,62.82-26.75,125.64a2694.46,2694.46,0,0,0-275.12,65L625.1,1577a106.08,106.08,0,0,0,13.43-28.32Q719.94,1270.32,801.35,992a81.68,81.68,0,0,0,3.54-26.7q-.89-16.74-1.58-33.68Z"/><path d="M1184,1459.94a46.74,46.74,0,0,0,4.08,24.13q6.46,13.58,13.15,27.14-65.51,3.78-130.84,10.76,9.6-15.1,19-30.07a62.48,62.48,0,0,0,9.21-25.41q15.35-123.77,30.68-247.51-39.12,28.37-80.22,58.22-15.84,99-31.67,198c-1.42,8.87-.73,17.33,2.07,24.46q5.31,13.5,10.83,26.94-65.22,8-130.12,19.1,10.67-16.15,21.14-32.15a76,76,0,0,0,11.12-26.73L1030,986.88a69.16,69.16,0,0,0,.44-25.7q-2.78-14.73-5.35-29.57h219q-6.63,14-13.46,28.07a70.08,70.08,0,0,0-6.66,24.53Zm-41-351.59q5-40.47,10-80.95-32.13.67-64.25,1.55-10.87,67.92-21.73,135.84Q1106,1135.89,1143,1108.35Z"/><path d="M1378.36,931.61H1415c19.53,0,36.92,23.59,38.85,52.74l4,64.72q-10.37-8.17-20.54-16.29c-5.93-4.73-12.52-7.27-19.11-7.3q-38.28-.26-76.56-.19c-9.4,0-17.24,10.66-17.53,23.74q-3.4,170.29-6.8,340.61c-.29,13.08,9,23.56,20.71,23.48q47.57-.3,95.12.94a39.77,39.77,0,0,0,22.93-6.46q11.64-7.63,23.07-15.2,2,32.37,4,64.73c1.94,29.15-18.59,51.64-45.86,50.81q-81.13-2.43-162.29,0c-26.53.81-46.5-21.07-44.63-49.43q14.7-237.82,29.39-475.64c1.87-28.36,18.78-51.33,37.77-51.31h80.78Z"/><path d="M1780.68,1485.93a80.53,80.53,0,0,0,11.8,28.35q10.21,15.6,20.62,31.37-64.86-11.14-130.11-19.1,5.38-13.11,10.56-26.29c3-7.56,3.71-16.53,2.21-25.94l-40.11-250.68q-31.51,24.13-65.12,48.06,12,97,24,194a66.48,66.48,0,0,0,9.76,26.95q9.18,14.63,18.55,29.35-65.31-7-130.85-10.76,6.53-13.24,12.84-26.48a49.84,49.84,0,0,0,4.33-25.6q-19.95-237.06-39.89-474.12a74.43,74.43,0,0,0-7-26q-6.68-13.71-13.14-27.39h94.93q-3.58,13.93-7.39,27.79a68.93,68.93,0,0,0-1.6,26.29l21.75,175.4q31.46-24.75,60.84-49.86-10-62.32-19.94-124.67a83.93,83.93,0,0,0-9.15-26.79q-7.77-14.12-15.34-28.16h94.93q-2.51,14.49-5.21,28.86a73.75,73.75,0,0,0,.47,27.27Z"/><path d="M1910.37,931.59Q1931,1001,1951.74,1070.5q-13.34-10.83-26.48-21.41c-6.34-5.1-12.69-7.95-18.42-8.27q-47.17-2.67-94.43-4.89,15.66,62.46,31.3,124.93,32.44,3.14,64.83,6.69c6.1.67,11.42-1.12,15.32-5.27q8.1-8.58,16-17.31,23.48,81.73,46.93,163.47-14.37-11.88-28.57-23.49c-6.84-5.59-13.82-9-20.23-10q-34-5.17-68.14-9.73,25.37,101.27,50.74,202.55,58,11.37,115.53,25.11c7,1.67,13.14.84,17.72-2.51q9.51-6.93,18.8-13.95L2114,1615.29a2696.54,2696.54,0,0,0-275.11-65.09q4.56-13.92,8.91-27.92c2.09-6.77,2.15-14.93.24-23.58L1735,987.08a84.56,84.56,0,0,0-9.74-24.67Q1716,946.93,1707,931.59Z"/><path d="M2427.06,1728.39q-61.47-26.6-123.88-50,1.31-15.47,2.44-31.15c.57-8-1.1-18-4.8-28.92l-91.38-270.2c-4.4-13-14.26-24.93-22.05-26.64q-28.17-6.26-56.45-12.07,45.93,141.16,91.85,282.33a136.63,136.63,0,0,0,15.45,31.74q13.19,20.28,26.54,40.86-62.66-22.44-126.12-41.67,2.43-14.6,4.66-29.38c1.13-7.51.06-16.83-3.05-26.93q-88.21-286-176.42-572a118.91,118.91,0,0,0-13.3-28.75q-11-17.11-21.75-34h171.74c17.37-.14,41.47,28.43,53.84,63.84q38.16,109.49,76.3,219c12.4,35.34-14.38,55.94-34.23,51.85,19.58,3.62,66.08,39.65,78.45,75.06L2382,1648.81a173.86,173.86,0,0,0,16.92,34.68Q2412.93,1705.77,2427.06,1728.39Zm-280.61-528.84c7.47,1.21,10-8.32,5.55-21.32q-16.93-50.1-33.89-100.21c-4.4-13-13.66-24-20.7-24.48q-25.44-1.95-50.93-3.77,23,70.74,46,141.49Q2119.52,1195.25,2146.45,1199.55Z"/></g></g></svg>