<?xml version="1.0" encoding="UTF-8"?><svg xmlns="http://www.w3.org/2000/svg" xmlns:xlink="http://www.w3.org/1999/xlink" viewBox="0 0 839 573"><defs><style>.h,.i{fill:#fff;}.j{fill:#e6e6e6;}.j,.i{stroke:gray;stroke-miterlimit:10;}.k{fill:#f7931e;}.l{fill:#f7931a;}.m{clip-path:url(#e);}.n{fill:none;}.o{clip-path:url(#f);}.p{fill:#fdaa26;}.q{fill:#404040;}.r{fill:#666;}.s{clip-path:url(#g);}</style><clipPath id="e"><rect class="n" x="283.87" y="190.81" width="242.26" height="242.26"/></clipPath><clipPath id="f"><rect class="n" x="377.05" y="283.99" width="55.91" height="55.91"/></clipPath><clipPath id="g"><rect class="n" x="241.94" y="148.88" width="326.12" height="326.12"/></clipPath></defs><g id="a"/><g id="b"><g id="c"><g id="d"><rect class="i" x=".5" y="48.8" width="838" height="523.7"/><g><path class="h" d="M241.94,440.06V183.82c0-1.14,.06-2.29,.17-3.42,.11-1.14,.28-2.27,.5-3.39,.22-1.12,.5-2.23,.83-3.33,.33-1.1,.72-2.17,1.16-3.23,.44-1.06,.93-2.09,1.47-3.1,.54-1.01,1.13-1.99,1.76-2.94,.64-.95,1.32-1.87,2.04-2.75,.73-.88,1.49-1.73,2.3-2.54,.81-.81,1.66-1.58,2.54-2.3,.88-.73,1.8-1.41,2.75-2.04,.95-.64,1.93-1.22,2.94-1.76s2.04-1.03,3.1-1.47c1.06-.44,2.13-.82,3.23-1.16s2.2-.61,3.33-.83c1.12-.22,2.25-.39,3.39-.5,1.14-.11,2.28-.17,3.42-.17h256.24c1.14,0,2.29,.06,3.42,.17s2.27,.28,3.39,.5c1.12,.22,2.23,.5,3.33,.83s2.17,.72,3.23,1.16c1.06,.44,2.09,.93,3.1,1.47s1.99,1.13,2.94,1.76c.95,.64,1.87,1.32,2.75,2.04,.88,.73,1.73,1.49,2.54,2.3,.81,.81,1.58,1.66,2.3,2.54,.73,.88,1.41,1.8,2.04,2.75,.64,.95,1.22,1.93,1.76,2.94,.54,1.01,1.03,2.04,1.47,3.1,.44,1.06,.82,2.13,1.16,3.23,.33,1.1,.61,2.2,.83,3.33,.22,1.12,.39,2.25,.5,3.39,.11,1.14,.17,2.28,.17,3.42V440.06c0,1.14-.06,2.29-.17,3.42-.11,1.14-.28,2.27-.5,3.39-.22,1.12-.5,2.23-.83,3.33-.33,1.1-.72,2.17-1.16,3.23-.44,1.06-.93,2.09-1.47,3.1-.54,1.01-1.13,1.99-1.76,2.94-.64,.95-1.32,1.87-2.04,2.75-.73,.88-1.49,1.73-2.3,2.54-.81,.81-1.66,1.58-2.54,2.3-.88,.73-1.8,1.41-2.75,2.04-.95,.64-1.93,1.22-2.94,1.76-1.01,.54-2.04,1.03-3.1,1.47-1.06,.44-2.13,.82-3.23,1.16-1.1,.33-2.2,.61-3.33,.83-1.12,.22-2.25,.39-3.39,.5-1.14,.11-2.28,.17-3.42,.17H276.88c-1.14,0-2.29-.06-3.42-.17-1.14-.11-2.27-.28-3.39-.5-1.12-.22-2.23-.5-3.33-.83-1.1-.33-2.17-.72-3.23-1.16-1.06-.44-2.09-.93-3.1-1.47-1.01-.54-1.99-1.13-2.94-1.76-.95-.64-1.87-1.32-2.75-2.04-.88-.73-1.73-1.49-2.54-2.3-.81-.81-1.58-1.66-2.3-2.54-.73-.88-1.41-1.8-2.04-2.75-.64-.95-1.22-1.93-1.76-2.94-.54-1.01-1.03-2.04-1.47-3.1-.44-1.06-.82-2.13-1.16-3.23-.33-1.1-.61-2.2-.83-3.33-.22-1.12-.39-2.25-.5-3.39-.11-1.14-.17-2.28-.17-3.42Z"/><path class="h" d="M274.55,433.07V190.81c0-.61,.06-1.22,.18-1.82,.12-.6,.3-1.18,.53-1.75,.23-.57,.52-1.1,.86-1.61,.34-.51,.73-.98,1.16-1.41,.43-.43,.9-.82,1.41-1.16,.51-.34,1.05-.63,1.61-.86,.57-.23,1.15-.41,1.75-.53,.6-.12,1.21-.18,1.82-.18h242.26c.61,0,1.22,.06,1.82,.18,.6,.12,1.18,.3,1.75,.53,.57,.23,1.1,.52,1.61,.86,.51,.34,.98,.73,1.41,1.16,.43,.43,.82,.9,1.16,1.41,.34,.51,.63,1.05,.86,1.61s.41,1.15,.53,1.75c.12,.6,.18,1.21,.18,1.82v242.26c0,.61-.06,1.22-.18,1.82-.12,.6-.3,1.18-.53,1.75-.23,.57-.52,1.1-.86,1.61-.34,.51-.73,.98-1.16,1.41-.43,.43-.9,.82-1.41,1.16-.51,.34-1.05,.63-1.61,.86-.57,.23-1.15,.41-1.75,.53s-1.21,.18-1.82,.18h-242.26c-.61,0-1.22-.06-1.82-.18-.6-.12-1.18-.3-1.75-.53-.57-.23-1.1-.52-1.61-.86-.51-.34-.98-.73-1.41-1.16-.43-.43-.82-.9-1.16-1.41-.34-.51-.63-1.05-.86-1.61-.23-.57-.41-1.15-.53-1.75-.12-.6-.18-1.21-.18-1.82Z"/><g class="m"><rect class="h" x="283.87" y="190.81" width="242.26" height="242.26"/><path d="M514.21,429.1h11.91v3.97h-11.91v-3.97Zm-11.91,0h7.94v3.97h-7.94v-3.97Zm-7.94,0h3.97v3.97h-3.97v-3.97Zm-11.91,0h7.94v3.97h-7.94v-3.97Zm-11.91,0h7.94v3.97h-7.94v-3.97Zm-7.94,0h3.97v3.97h-3.97v-3.97Zm-15.89,0h11.91v3.97h-11.91v-3.97Zm-19.86,0h11.91v3.97h-11.91v-3.97Zm-11.91,0h7.94v3.97h-7.94v-3.97Zm-15.89,0h7.94v3.97h-7.94v-3.97Zm-7.94,0h3.97v3.97h-3.97v-3.97Zm-15.89,0h3.97v3.97h-3.97v-3.97Zm-11.91,0h3.97v3.97h-3.97v-3.97Zm-27.8,0h23.83v3.97h-23.83v-3.97Zm-7.94,0h3.97v3.97h-3.97v-3.97Zm-11.91,0h3.97v3.97h-3.97v-3.97Zm-31.77,0h27.8v3.97h-27.8v-3.97Zm230.34-3.97h3.97v3.97h-3.97v-3.97Zm-11.91,0h7.94v3.97h-7.94v-3.97Zm-15.89,0h11.91v3.97h-11.91v-3.97Zm-15.89,0h11.91v3.97h-11.91v-3.97Zm-11.91,0h3.97v3.97h-3.97v-3.97Zm-11.91,0h3.97v3.97h-3.97v-3.97Zm-27.8,0h11.91v3.97h-11.91v-3.97Zm-7.94,0h3.97v3.97h-3.97v-3.97Zm-7.94,0h3.97v3.97h-3.97v-3.97Zm-23.83,0h15.89v3.97h-15.89v-3.97Zm-15.89,0h7.94v3.97h-7.94v-3.97Zm-7.94,0h3.97v3.97h-3.97v-3.97Zm-31.77,0h3.97v3.97h-3.97v-3.97Zm-7.94,0h3.97v3.97h-3.97v-3.97Zm-7.94,0h3.97v3.97h-3.97v-3.97Zm-23.83,0h3.97v3.97h-3.97v-3.97Zm230.34-3.97h7.94v3.97h-7.94v-3.97Zm-11.91,0h7.94v3.97h-7.94v-3.97Zm-51.63,0h31.77v3.97h-31.77v-3.97Zm-11.91,0h3.97v3.97h-3.97v-3.97Zm-27.8,0h23.83v3.97h-23.83v-3.97Zm-7.94,0h3.97v3.97h-3.97v-3.97Zm-23.83,0h15.89v3.97h-15.89v-3.97Zm-31.77,0h3.97v3.97h-3.97v-3.97Zm-11.91,0h3.97v3.97h-3.97v-3.97Zm-19.86,0h15.89v3.97h-15.89v-3.97Zm-7.94,0h3.97v3.97h-3.97v-3.97Zm-15.89,0h11.91v3.97h-11.91v-3.97Zm-7.94,0h3.97v3.97h-3.97v-3.97Zm238.29-3.97h3.97v3.97h-3.97v-3.97Zm-7.94,0h3.97v3.97h-3.97v-3.97Zm-11.91,0h7.94v3.97h-7.94v-3.97Zm-11.91,0h7.94v3.97h-7.94v-3.97Zm-15.89,0h7.94v3.97h-7.94v-3.97Zm-23.83,0h7.94v3.97h-7.94v-3.97Zm-23.83,0h7.94v3.97h-7.94v-3.97Zm-15.89,0h3.97v3.97h-3.97v-3.97Zm-7.94,0h3.97v3.97h-3.97v-3.97Zm-7.94,0h3.97v3.97h-3.97v-3.97Zm-43.69,0h31.77v3.97h-31.77v-3.97Zm-23.83,0h3.97v3.97h-3.97v-3.97Zm-11.91,0h3.97v3.97h-3.97v-3.97Zm-7.94,0h3.97v3.97h-3.97v-3.97Zm-15.89,0h11.91v3.97h-11.91v-3.97Zm-7.94,0h3.97v3.97h-3.97v-3.97Zm238.29-3.97h3.97v3.97h-3.97v-3.97Zm-31.77,0h23.83v3.97h-23.83v-3.97Zm-11.91,0h3.97v3.97h-3.97v-3.97Zm-15.89,0h11.91v3.97h-11.91v-3.97Zm-19.86,0h7.94v3.97h-7.94v-3.97Zm-47.66,0h19.86v3.97h-19.86v-3.97Zm-7.94,0h3.97v3.97h-3.97v-3.97Zm-19.86,0h15.89v3.97h-15.89v-3.97Zm-7.94,0h3.97v3.97h-3.97v-3.97Zm-23.83,0h11.91v3.97h-11.91v-3.97Zm-27.8,0h3.97v3.97h-3.97v-3.97Zm-15.89,0h11.91v3.97h-11.91v-3.97Zm-7.94,0h3.97v3.97h-3.97v-3.97Zm234.32-3.97h7.94v3.97h-7.94v-3.97Zm-11.91,0h3.97v3.97h-3.97v-3.97Zm-15.89,0h3.97v3.97h-3.97v-3.97Zm-15.89,0h3.97v3.97h-3.97v-3.97Zm-35.74,0h7.94v3.97h-7.94v-3.97Zm-11.91,0h7.94v3.97h-7.94v-3.97Zm-7.94,0h3.97v3.97h-3.97v-3.97Zm-7.94,0h3.97v3.97h-3.97v-3.97Zm-19.86,0h7.94v3.97h-7.94v-3.97Zm-15.89,0h3.97v3.97h-3.97v-3.97Zm-15.89,0h7.94v3.97h-7.94v-3.97Zm-19.86,0h7.94v3.97h-7.94v-3.97Zm-11.91,0h3.97v3.97h-3.97v-3.97Zm-19.86,0h3.97v3.97h-3.97v-3.97Zm-23.83,0h3.97v3.97h-3.97v-3.97Zm238.29-3.97h3.97v3.97h-3.97v-3.97Zm-7.94,0h3.97v3.97h-3.97v-3.97Zm-7.94,0h3.97v3.97h-3.97v-3.97Zm-7.94,0h3.97v3.97h-3.97v-3.97Zm-15.89,0h11.91v3.97h-11.91v-3.97Zm-27.8,0h23.83v3.97h-23.83v-3.97Zm-7.94,0h3.97v3.97h-3.97v-3.97Zm-19.86,0h15.89v3.97h-15.89v-3.97Zm-15.89,0h11.91v3.97h-11.91v-3.97Zm-7.94,0h3.97v3.97h-3.97v-3.97Zm-7.94,0h3.97v3.97h-3.97v-3.97Zm-11.91,0h7.94v3.97h-7.94v-3.97Zm-27.8,0h23.83v3.97h-23.83v-3.97Zm-7.94,0h3.97v3.97h-3.97v-3.97Zm-23.83,0h15.89v3.97h-15.89v-3.97Zm-39.71,0h27.8v3.97h-27.8v-3.97Zm230.34-3.97h11.91v3.97h-11.91v-3.97Zm-7.94,0h3.97v3.97h-3.97v-3.97Zm-15.89,0h3.97v3.97h-3.97v-3.97Zm-15.89,0h3.97v3.97h-3.97v-3.97Zm-11.91,0h7.94v3.97h-7.94v-3.97Zm-23.83,0h3.97v3.97h-3.97v-3.97Zm-27.8,0h15.89v3.97h-15.89v-3.97Zm-15.89,0h3.97v3.97h-3.97v-3.97Zm-7.94,0h3.97v3.97h-3.97v-3.97Zm-11.91,0h3.97v3.97h-3.97v-3.97Zm-7.94,0h3.97v3.97h-3.97v-3.97Zm-11.91,0h3.97v3.97h-3.97v-3.97Zm-7.94,0h3.97v3.97h-3.97v-3.97Zm-23.83,0h3.97v3.97h-3.97v-3.97Zm-7.94,0h3.97v3.97h-3.97v-3.97Zm174.74-3.97h27.8v3.97h-27.8v-3.97Zm-11.91,0h3.97v3.97h-3.97v-3.97Zm-7.94,0h3.97v3.97h-3.97v-3.97Zm-11.91,0h7.94v3.97h-7.94v-3.97Zm-11.91,0h7.94v3.97h-7.94v-3.97Zm-7.94,0h3.97v3.97h-3.97v-3.97Zm-7.94,0h3.97v3.97h-3.97v-3.97Zm-51.63,0h35.74v3.97h-35.74v-3.97Zm-35.74,0h7.94v3.97h-7.94v-3.97Zm-27.8,0h15.89v3.97h-15.89v-3.97Zm-7.94,0h3.97v3.97h-3.97v-3.97Zm-23.83,0h15.89v3.97h-15.89v-3.97Zm238.29-3.97h3.97v3.97h-3.97v-3.97Zm-15.89,0h3.97v3.97h-3.97v-3.97Zm-11.91,0h3.97v3.97h-3.97v-3.97Zm-23.83,0h3.97v3.97h-3.97v-3.97Zm-19.86,0h11.91v3.97h-11.91v-3.97Zm-7.94,0h3.97v3.97h-3.97v-3.97Zm-27.8,0h11.91v3.97h-11.91v-3.97Zm-35.74,0h31.77v3.97h-31.77v-3.97Zm-23.83,0h7.94v3.97h-7.94v-3.97Zm-7.94,0h3.97v3.97h-3.97v-3.97Zm-7.94,0h3.97v3.97h-3.97v-3.97Zm-7.94,0h3.97v3.97h-3.97v-3.97Zm-31.77,0h3.97v3.97h-3.97v-3.97Zm-15.89,0h11.91v3.97h-11.91v-3.97Zm234.32-3.97h3.97v3.97h-3.97v-3.97Zm-15.89,0h11.91v3.97h-11.91v-3.97Zm-7.94,0h3.97v3.97h-3.97v-3.97Zm-11.91,0h7.94v3.97h-7.94v-3.97Zm-39.71,0h19.86v3.97h-19.86v-3.97Zm-11.91,0h7.94v3.97h-7.94v-3.97Zm-23.83,0h11.91v3.97h-11.91v-3.97Zm-11.91,0h3.97v3.97h-3.97v-3.97Zm-11.91,0h3.97v3.97h-3.97v-3.97Zm-15.89,0h11.91v3.97h-11.91v-3.97Zm-7.94,0h3.97v3.97h-3.97v-3.97Zm-7.94,0h3.97v3.97h-3.97v-3.97Zm-19.86,0h3.97v3.97h-3.97v-3.97Zm-11.91,0h7.94v3.97h-7.94v-3.97Zm-27.8,0h19.86v3.97h-19.86v-3.97Zm226.37-3.97h7.94v3.97h-7.94v-3.97Zm-15.89,0h7.94v3.97h-7.94v-3.97Zm-7.94,0h3.97v3.97h-3.97v-3.97Zm-11.91,0h3.97v3.97h-3.97v-3.97Zm-11.91,0h3.97v3.97h-3.97v-3.97Zm-15.89,0h11.91v3.97h-11.91v-3.97Zm-7.94,0h3.97v3.97h-3.97v-3.97Zm-23.83,0h15.89v3.97h-15.89v-3.97Zm-31.77,0h23.83v3.97h-23.83v-3.97Zm-15.89,0h3.97v3.97h-3.97v-3.97Zm-51.63,0h47.66v3.97h-47.66v-3.97Zm-7.94,0h3.97v3.97h-3.97v-3.97Zm-31.77,0h15.89v3.97h-15.89v-3.97Zm202.54-3.97h35.74v3.97h-35.74v-3.97Zm-15.89,0h11.91v3.97h-11.91v-3.97Zm-23.83,0h11.91v3.97h-11.91v-3.97Zm-19.86,0h7.94v3.97h-7.94v-3.97Zm-35.74,0h15.89v3.97h-15.89v-3.97Zm-15.89,0h11.91v3.97h-11.91v-3.97Zm-11.91,0h7.94v3.97h-7.94v-3.97Zm-11.91,0h7.94v3.97h-7.94v-3.97Zm-7.94,0h3.97v3.97h-3.97v-3.97Zm-15.89,0h7.94v3.97h-7.94v-3.97Zm-23.83,0h7.94v3.97h-7.94v-3.97Zm-11.91,0h3.97v3.97h-3.97v-3.97Zm218.43-3.97h7.94v3.97h-7.94v-3.97Zm-15.89,0h7.94v3.97h-7.94v-3.97Zm-23.83,0h19.86v3.97h-19.86v-3.97Zm-11.91,0h3.97v3.97h-3.97v-3.97Zm-11.91,0h7.94v3.97h-7.94v-3.97Zm-27.8,0h19.86v3.97h-19.86v-3.97Zm-15.89,0h3.97v3.97h-3.97v-3.97Zm-11.91,0h3.97v3.97h-3.97v-3.97Zm-11.91,0h7.94v3.97h-7.94v-3.97Zm-23.83,0h19.86v3.97h-19.86v-3.97Zm-11.91,0h7.94v3.97h-7.94v-3.97Zm-7.94,0h3.97v3.97h-3.97v-3.97Zm-15.89,0h7.94v3.97h-7.94v-3.97Zm-7.94,0h3.97v3.97h-3.97v-3.97Zm-15.89,0h11.91v3.97h-11.91v-3.97Zm-11.91,0h3.97v3.97h-3.97v-3.97Zm230.34-3.97h3.97v3.97h-3.97v-3.97Zm-7.94,0h3.97v3.97h-3.97v-3.97Zm-15.89,0h3.97v3.97h-3.97v-3.97Zm-11.91,0h3.97v3.97h-3.97v-3.97Zm-11.91,0h3.97v3.97h-3.97v-3.97Zm-7.94,0h3.97v3.97h-3.97v-3.97Zm-11.91,0h7.94v3.97h-7.94v-3.97Zm-7.94,0h3.97v3.97h-3.97v-3.97Zm-7.94,0h3.97v3.97h-3.97v-3.97Zm-15.89,0h7.94v3.97h-7.94v-3.97Zm-39.71,0h3.97v3.97h-3.97v-3.97Zm-15.89,0h3.97v3.97h-3.97v-3.97Zm-23.83,0h15.89v3.97h-15.89v-3.97Zm-27.8,0h11.91v3.97h-11.91v-3.97Zm-15.89,0h7.94v3.97h-7.94v-3.97Zm-7.94,0h3.97v3.97h-3.97v-3.97Zm234.32-3.97h3.97v3.97h-3.97v-3.97Zm-7.94,0h3.97v3.97h-3.97v-3.97Zm-15.89,0h7.94v3.97h-7.94v-3.97Zm-19.86,0h7.94v3.97h-7.94v-3.97Zm-35.74,0h23.83v3.97h-23.83v-3.97Zm-11.91,0h7.94v3.97h-7.94v-3.97Zm-19.86,0h3.97v3.97h-3.97v-3.97Zm-39.71,0h23.83v3.97h-23.83v-3.97Zm-15.89,0h3.97v3.97h-3.97v-3.97Zm-11.91,0h7.94v3.97h-7.94v-3.97Zm-11.91,0h3.97v3.97h-3.97v-3.97Zm-11.91,0h3.97v3.97h-3.97v-3.97Zm-19.86,0h11.91v3.97h-11.91v-3.97Zm-11.91,0h3.97v3.97h-3.97v-3.97Zm222.4-3.97h3.97v3.97h-3.97v-3.97Zm-15.89,0h3.97v3.97h-3.97v-3.97Zm-19.86,0h3.97v3.97h-3.97v-3.97Zm-7.94,0h3.97v3.97h-3.97v-3.97Zm-23.83,0h15.89v3.97h-15.89v-3.97Zm-15.89,0h3.97v3.97h-3.97v-3.97Zm-15.89,0h7.94v3.97h-7.94v-3.97Zm-7.94,0h3.97v3.97h-3.97v-3.97Zm-35.74,0h23.83v3.97h-23.83v-3.97Zm-11.91,0h3.97v3.97h-3.97v-3.97Zm-15.89,0h11.91v3.97h-11.91v-3.97Zm-7.94,0h3.97v3.97h-3.97v-3.97Zm-27.8,0h23.83v3.97h-23.83v-3.97Zm210.49-3.97h3.97v3.97h-3.97v-3.97Zm-11.91,0h3.97v3.97h-3.97v-3.97Zm-11.91,0h3.97v3.97h-3.97v-3.97Zm-11.91,0h7.94v3.97h-7.94v-3.97Zm-11.91,0h3.97v3.97h-3.97v-3.97Zm-35.74,0h31.77v3.97h-31.77v-3.97Zm-7.94,0h3.97v3.97h-3.97v-3.97Zm-7.94,0h3.97v3.97h-3.97v-3.97Zm-15.89,0h11.91v3.97h-11.91v-3.97Zm-11.91,0h3.97v3.97h-3.97v-3.97Zm-19.86,0h3.97v3.97h-3.97v-3.97Zm-11.91,0h3.97v3.97h-3.97v-3.97Zm-15.89,0h7.94v3.97h-7.94v-3.97Zm-11.91,0h3.97v3.97h-3.97v-3.97Zm-11.91,0h3.97v3.97h-3.97v-3.97Zm-15.89,0h3.97v3.97h-3.97v-3.97Zm-7.94,0h3.97v3.97h-3.97v-3.97Zm234.32-3.97h3.97v3.97h-3.97v-3.97Zm-11.91,0h3.97v3.97h-3.97v-3.97Zm-43.69,0h35.74v3.97h-35.74v-3.97Zm-11.91,0h7.94v3.97h-7.94v-3.97Zm-19.86,0h7.94v3.97h-7.94v-3.97Zm-7.94,0h3.97v3.97h-3.97v-3.97Zm-19.86,0h15.89v3.97h-15.89v-3.97Zm-15.89,0h3.97v3.97h-3.97v-3.97Zm-15.89,0h3.97v3.97h-3.97v-3.97Zm-19.86,0h7.94v3.97h-7.94v-3.97Zm-7.94,0h3.97v3.97h-3.97v-3.97Zm-11.91,0h7.94v3.97h-7.94v-3.97Zm-27.8,0h7.94v3.97h-7.94v-3.97Zm-7.94,0h3.97v3.97h-3.97v-3.97Zm-7.94,0h3.97v3.97h-3.97v-3.97Zm-7.94,0h3.97v3.97h-3.97v-3.97Zm238.29-3.97h3.97v3.97h-3.97v-3.97Zm-7.94,0h3.97v3.97h-3.97v-3.97Zm-15.89,0h3.97v3.97h-3.97v-3.97Zm-11.91,0h7.94v3.97h-7.94v-3.97Zm-7.94,0h3.97v3.97h-3.97v-3.97Zm-15.89,0h7.94v3.97h-7.94v-3.97Zm-19.86,0h7.94v3.97h-7.94v-3.97Zm-27.8,0h7.94v3.97h-7.94v-3.97Zm-15.89,0h7.94v3.97h-7.94v-3.97Zm-7.94,0h3.97v3.97h-3.97v-3.97Zm-7.94,0h3.97v3.97h-3.97v-3.97Zm-7.94,0h3.97v3.97h-3.97v-3.97Zm-7.94,0h3.97v3.97h-3.97v-3.97Zm-7.94,0h3.97v3.97h-3.97v-3.97Zm-15.89,0h7.94v3.97h-7.94v-3.97Zm-7.94,0h3.97v3.97h-3.97v-3.97Zm-7.94,0h3.97v3.97h-3.97v-3.97Zm-15.89,0h11.91v3.97h-11.91v-3.97Zm-11.91,0h7.94v3.97h-7.94v-3.97Zm-7.94,0h3.97v3.97h-3.97v-3.97Zm222.4-3.97h3.97v3.97h-3.97v-3.97Zm-11.91,0h3.97v3.97h-3.97v-3.97Zm-11.91,0h3.97v3.97h-3.97v-3.97Zm-11.91,0h7.94v3.97h-7.94v-3.97Zm-31.77,0h19.86v3.97h-19.86v-3.97Zm-11.91,0h7.94v3.97h-7.94v-3.97Zm-15.89,0h3.97v3.97h-3.97v-3.97Zm-7.94,0h3.97v3.97h-3.97v-3.97Zm-23.83,0h3.97v3.97h-3.97v-3.97Zm-7.94,0h3.97v3.97h-3.97v-3.97Zm-23.83,0h11.91v3.97h-11.91v-3.97Zm-7.94,0h3.97v3.97h-3.97v-3.97Zm-7.94,0h3.97v3.97h-3.97v-3.97Zm-11.91,0h3.97v3.97h-3.97v-3.97Zm-7.94,0h3.97v3.97h-3.97v-3.97Zm-11.91,0h7.94v3.97h-7.94v-3.97Zm-23.83,0h19.86v3.97h-19.86v-3.97Zm222.4-3.97h3.97v3.97h-3.97v-3.97Zm-15.89,0h3.97v3.97h-3.97v-3.97Zm-11.91,0h3.97v3.97h-3.97v-3.97Zm-23.83,0h19.86v3.97h-19.86v-3.97Zm-11.91,0h3.97v3.97h-3.97v-3.97Zm-11.91,0h3.97v3.97h-3.97v-3.97Zm-27.8,0h7.94v3.97h-7.94v-3.97Zm-15.89,0h3.97v3.97h-3.97v-3.97Zm-27.8,0h3.97v3.97h-3.97v-3.97Zm-23.83,0h7.94v3.97h-7.94v-3.97Zm-31.77,0h3.97v3.97h-3.97v-3.97Zm-19.86,0h15.89v3.97h-15.89v-3.97Zm234.32-3.97h3.97v3.97h-3.97v-3.97Zm-15.89,0h3.97v3.97h-3.97v-3.97Zm-7.94,0h3.97v3.97h-3.97v-3.97Zm-11.91,0h3.97v3.97h-3.97v-3.97Zm-11.91,0h3.97v3.97h-3.97v-3.97Zm-7.94,0h3.97v3.97h-3.97v-3.97Zm-19.86,0h11.91v3.97h-11.91v-3.97Zm-15.89,0h11.91v3.97h-11.91v-3.97Zm-15.89,0h3.97v3.97h-3.97v-3.97Zm-7.94,0h3.97v3.97h-3.97v-3.97Zm-19.86,0h7.94v3.97h-7.94v-3.97Zm-11.91,0h3.97v3.97h-3.97v-3.97Zm-19.86,0h15.89v3.97h-15.89v-3.97Zm-27.8,0h7.94v3.97h-7.94v-3.97Zm-7.94,0h3.97v3.97h-3.97v-3.97Zm-7.94,0h3.97v3.97h-3.97v-3.97Zm-15.89,0h3.97v3.97h-3.97v-3.97Zm230.34-3.97h3.97v3.97h-3.97v-3.97Zm-23.83,0h11.91v3.97h-11.91v-3.97Zm-19.86,0h11.91v3.97h-11.91v-3.97Zm-23.83,0h11.91v3.97h-11.91v-3.97Zm-19.86,0h3.97v3.97h-3.97v-3.97Zm-71.49,0h11.91v3.97h-11.91v-3.97Zm-11.91,0h7.94v3.97h-7.94v-3.97Zm-15.89,0h7.94v3.97h-7.94v-3.97Zm-23.83,0h11.91v3.97h-11.91v-3.97Zm-11.91,0h3.97v3.97h-3.97v-3.97Zm-15.89,0h7.94v3.97h-7.94v-3.97Zm230.34-3.97h11.91v3.97h-11.91v-3.97Zm-7.94,0h3.97v3.97h-3.97v-3.97Zm-19.86,0h15.89v3.97h-15.89v-3.97Zm-11.91,0h7.94v3.97h-7.94v-3.97Zm-19.86,0h3.97v3.97h-3.97v-3.97Zm-19.86,0h3.97v3.97h-3.97v-3.97Zm-87.37,0h23.83v3.97h-23.83v-3.97Zm-19.86,0h3.97v3.97h-3.97v-3.97Zm-11.91,0h7.94v3.97h-7.94v-3.97Zm-7.94,0h3.97v3.97h-3.97v-3.97Zm-19.86,0h11.91v3.97h-11.91v-3.97Zm222.4-3.97h7.94v3.97h-7.94v-3.97Zm-11.91,0h3.97v3.97h-3.97v-3.97Zm-11.91,0h3.97v3.97h-3.97v-3.97Zm-19.86,0h11.91v3.97h-11.91v-3.97Zm-7.94,0h3.97v3.97h-3.97v-3.97Zm-11.91,0h3.97v3.97h-3.97v-3.97Zm-75.46,0h3.97v3.97h-3.97v-3.97Zm-11.91,0h7.94v3.97h-7.94v-3.97Zm-11.91,0h3.97v3.97h-3.97v-3.97Zm-11.91,0h3.97v3.97h-3.97v-3.97Zm-7.94,0h3.97v3.97h-3.97v-3.97Zm-11.91,0h3.97v3.97h-3.97v-3.97Zm-11.91,0h3.97v3.97h-3.97v-3.97Zm-11.91,0h7.94v3.97h-7.94v-3.97Zm222.4-3.97h3.97v3.97h-3.97v-3.97Zm-7.94,0h3.97v3.97h-3.97v-3.97Zm-15.89,0h3.97v3.97h-3.97v-3.97Zm-11.91,0h3.97v3.97h-3.97v-3.97Zm-15.89,0h11.91v3.97h-11.91v-3.97Zm-15.89,0h7.94v3.97h-7.94v-3.97Zm-7.94,0h3.97v3.97h-3.97v-3.97Zm-67.51,0h3.97v3.97h-3.97v-3.97Zm-19.86,0h11.91v3.97h-11.91v-3.97Zm-7.94,0h3.97v3.97h-3.97v-3.97Zm-35.74,0h3.97v3.97h-3.97v-3.97Zm-19.86,0h3.97v3.97h-3.97v-3.97Zm230.34-3.97h3.97v3.97h-3.97v-3.97Zm-7.94,0h3.97v3.97h-3.97v-3.97Zm-15.89,0h7.94v3.97h-7.94v-3.97Zm-7.94,0h3.97v3.97h-3.97v-3.97Zm-11.91,0h7.94v3.97h-7.94v-3.97Zm-11.91,0h3.97v3.97h-3.97v-3.97Zm-15.89,0h11.91v3.97h-11.91v-3.97Zm-7.94,0h3.97v3.97h-3.97v-3.97Zm-71.49,0h3.97v3.97h-3.97v-3.97Zm-7.94,0h3.97v3.97h-3.97v-3.97Zm-15.89,0h3.97v3.97h-3.97v-3.97Zm-19.86,0h15.89v3.97h-15.89v-3.97Zm-11.91,0h7.94v3.97h-7.94v-3.97Zm-11.91,0h3.97v3.97h-3.97v-3.97Zm-15.89,0h7.94v3.97h-7.94v-3.97Zm206.52-3.97h23.83v3.97h-23.83v-3.97Zm-11.91,0h7.94v3.97h-7.94v-3.97Zm-15.89,0h7.94v3.97h-7.94v-3.97Zm-27.8,0h15.89v3.97h-15.89v-3.97Zm-75.46,0h11.91v3.97h-11.91v-3.97Zm-15.89,0h11.91v3.97h-11.91v-3.97Zm-7.94,0h3.97v3.97h-3.97v-3.97Zm-35.74,0h23.83v3.97h-23.83v-3.97Zm218.43-3.97h3.97v3.97h-3.97v-3.97Zm-11.91,0h7.94v3.97h-7.94v-3.97Zm-15.89,0h3.97v3.97h-3.97v-3.97Zm-7.94,0h3.97v3.97h-3.97v-3.97Zm-7.94,0h3.97v3.97h-3.97v-3.97Zm-11.91,0h3.97v3.97h-3.97v-3.97Zm-27.8,0h23.83v3.97h-23.83v-3.97Zm-63.54,0h3.97v3.97h-3.97v-3.97Zm-7.94,0h3.97v3.97h-3.97v-3.97Zm-11.91,0h7.94v3.97h-7.94v-3.97Zm-7.94,0h3.97v3.97h-3.97v-3.97Zm-15.89,0h11.91v3.97h-11.91v-3.97Zm-11.91,0h7.94v3.97h-7.94v-3.97Zm-15.89,0h3.97v3.97h-3.97v-3.97Zm-15.89,0h3.97v3.97h-3.97v-3.97Zm234.32-3.97h7.94v3.97h-7.94v-3.97Zm-11.91,0h7.94v3.97h-7.94v-3.97Zm-7.94,0h3.97v3.97h-3.97v-3.97Zm-7.94,0h3.97v3.97h-3.97v-3.97Zm-7.94,0h3.97v3.97h-3.97v-3.97Zm-19.86,0h15.89v3.97h-15.89v-3.97Zm-27.8,0h3.97v3.97h-3.97v-3.97Zm-63.54,0h3.97v3.97h-3.97v-3.97Zm-19.86,0h7.94v3.97h-7.94v-3.97Zm-7.94,0h3.97v3.97h-3.97v-3.97Zm-27.8,0h3.97v3.97h-3.97v-3.97Zm-7.94,0h3.97v3.97h-3.97v-3.97Zm-15.89,0h11.91v3.97h-11.91v-3.97Zm230.34-3.97h3.97v3.97h-3.97v-3.97Zm-15.89,0h3.97v3.97h-3.97v-3.97Zm-19.86,0h7.94v3.97h-7.94v-3.97Zm-11.91,0h3.97v3.97h-3.97v-3.97Zm-15.89,0h11.91v3.97h-11.91v-3.97Zm-11.91,0h3.97v3.97h-3.97v-3.97Zm-7.94,0h3.97v3.97h-3.97v-3.97Zm-71.49,0h3.97v3.97h-3.97v-3.97Zm-51.63,0h43.69v3.97h-43.69v-3.97Zm-19.86,0h7.94v3.97h-7.94v-3.97Zm-11.91,0h3.97v3.97h-3.97v-3.97Zm238.29-3.97h3.97v3.97h-3.97v-3.97Zm-31.77,0h27.8v3.97h-27.8v-3.97Zm-19.86,0h3.97v3.97h-3.97v-3.97Zm-19.86,0h11.91v3.97h-11.91v-3.97Zm-11.91,0h3.97v3.97h-3.97v-3.97Zm-79.43,0h3.97v3.97h-3.97v-3.97Zm-11.91,0h3.97v3.97h-3.97v-3.97Zm-15.89,0h11.91v3.97h-11.91v-3.97Zm-31.77,0h23.83v3.97h-23.83v-3.97Zm-11.91,0h7.94v3.97h-7.94v-3.97Zm234.32-3.97h3.97v3.97h-3.97v-3.97Zm-19.86,0h7.94v3.97h-7.94v-3.97Zm-7.94,0h3.97v3.97h-3.97v-3.97Zm-11.91,0h3.97v3.97h-3.97v-3.97Zm-11.91,0h3.97v3.97h-3.97v-3.97Zm-11.91,0h3.97v3.97h-3.97v-3.97Zm-19.86,0h7.94v3.97h-7.94v-3.97Zm-83.4,0h15.89v3.97h-15.89v-3.97Zm-35.74,0h19.86v3.97h-19.86v-3.97Zm-7.94,0h3.97v3.97h-3.97v-3.97Zm-19.86,0h3.97v3.97h-3.97v-3.97Zm-7.94,0h3.97v3.97h-3.97v-3.97Zm226.37-3.97h11.91v3.97h-11.91v-3.97Zm-31.77,0h23.83v3.97h-23.83v-3.97Zm-27.8,0h15.89v3.97h-15.89v-3.97Zm-15.89,0h3.97v3.97h-3.97v-3.97Zm-75.46,0h7.94v3.97h-7.94v-3.97Zm-19.86,0h15.89v3.97h-15.89v-3.97Zm-31.77,0h23.83v3.97h-23.83v-3.97Zm-19.86,0h3.97v3.97h-3.97v-3.97Zm226.37-3.97h11.91v3.97h-11.91v-3.97Zm-7.94,0h3.97v3.97h-3.97v-3.97Zm-11.91,0h3.97v3.97h-3.97v-3.97Zm-15.89,0h7.94v3.97h-7.94v-3.97Zm-23.83,0h7.94v3.97h-7.94v-3.97Zm-19.86,0h3.97v3.97h-3.97v-3.97Zm-67.51,0h7.94v3.97h-7.94v-3.97Zm-7.94,0h3.97v3.97h-3.97v-3.97Zm-15.89,0h3.97v3.97h-3.97v-3.97Zm-23.83,0h3.97v3.97h-3.97v-3.97Zm-7.94,0h3.97v3.97h-3.97v-3.97Zm-11.91,0h7.94v3.97h-7.94v-3.97Zm-7.94,0h3.97v3.97h-3.97v-3.97Zm-7.94,0h3.97v3.97h-3.97v-3.97Zm226.37-3.97h15.89v3.97h-15.89v-3.97Zm-19.86,0h3.97v3.97h-3.97v-3.97Zm-23.83,0h19.86v3.97h-19.86v-3.97Zm-11.91,0h3.97v3.97h-3.97v-3.97Zm-99.29,0h3.97v3.97h-3.97v-3.97Zm-7.94,0h3.97v3.97h-3.97v-3.97Zm-11.91,0h7.94v3.97h-7.94v-3.97Zm-15.89,0h11.91v3.97h-11.91v-3.97Zm-11.91,0h7.94v3.97h-7.94v-3.97Zm-11.91,0h3.97v3.97h-3.97v-3.97Zm-11.91,0h3.97v3.97h-3.97v-3.97Zm222.4-3.97h11.91v3.97h-11.91v-3.97Zm-31.77,0h27.8v3.97h-27.8v-3.97Zm-7.94,0h3.97v3.97h-3.97v-3.97Zm-11.91,0h7.94v3.97h-7.94v-3.97Zm-7.94,0h3.97v3.97h-3.97v-3.97Zm-7.94,0h3.97v3.97h-3.97v-3.97Zm-71.49,0h7.94v3.97h-7.94v-3.97Zm-7.94,0h3.97v3.97h-3.97v-3.97Zm-11.91,0h7.94v3.97h-7.94v-3.97Zm-7.94,0h3.97v3.97h-3.97v-3.97Zm-11.91,0h3.97v3.97h-3.97v-3.97Zm-15.89,0h11.91v3.97h-11.91v-3.97Zm-11.91,0h3.97v3.97h-3.97v-3.97Zm-7.94,0h3.97v3.97h-3.97v-3.97Zm-7.94,0h3.97v3.97h-3.97v-3.97Zm230.34-3.97h3.97v3.97h-3.97v-3.97Zm-15.89,0h3.97v3.97h-3.97v-3.97Zm-11.91,0h3.97v3.97h-3.97v-3.97Zm-7.94,0h3.97v3.97h-3.97v-3.97Zm-27.8,0h23.83v3.97h-23.83v-3.97Zm-7.94,0h3.97v3.97h-3.97v-3.97Zm-11.91,0h3.97v3.97h-3.97v-3.97Zm-23.83,0h19.86v3.97h-19.86v-3.97Zm-11.91,0h3.97v3.97h-3.97v-3.97Zm-15.89,0h11.91v3.97h-11.91v-3.97Zm-7.94,0h3.97v3.97h-3.97v-3.97Zm-7.94,0h3.97v3.97h-3.97v-3.97Zm-27.8,0h19.86v3.97h-19.86v-3.97Zm-7.94,0h3.97v3.97h-3.97v-3.97Zm-23.83,0h15.89v3.97h-15.89v-3.97Zm-7.94,0h3.97v3.97h-3.97v-3.97Zm-11.91,0h3.97v3.97h-3.97v-3.97Zm230.34-3.97h7.94v3.97h-7.94v-3.97Zm-15.89,0h7.94v3.97h-7.94v-3.97Zm-23.83,0h7.94v3.97h-7.94v-3.97Zm-27.8,0h15.89v3.97h-15.89v-3.97Zm-7.94,0h3.97v3.97h-3.97v-3.97Zm-11.91,0h7.94v3.97h-7.94v-3.97Zm-15.89,0h3.97v3.97h-3.97v-3.97Zm-11.91,0h7.94v3.97h-7.94v-3.97Zm-11.91,0h3.97v3.97h-3.97v-3.97Zm-7.94,0h3.97v3.97h-3.97v-3.97Zm-7.94,0h3.97v3.97h-3.97v-3.97Zm-11.91,0h3.97v3.97h-3.97v-3.97Zm-7.94,0h3.97v3.97h-3.97v-3.97Zm-19.86,0h3.97v3.97h-3.97v-3.97Zm-15.89,0h3.97v3.97h-3.97v-3.97Zm-23.83,0h15.89v3.97h-15.89v-3.97Zm218.43-3.97h3.97v3.97h-3.97v-3.97Zm-23.83,0h3.97v3.97h-3.97v-3.97Zm-7.94,0h3.97v3.97h-3.97v-3.97Zm-15.89,0h11.91v3.97h-11.91v-3.97Zm-11.91,0h3.97v3.97h-3.97v-3.97Zm-19.86,0h15.89v3.97h-15.89v-3.97Zm-7.94,0h3.97v3.97h-3.97v-3.97Zm-19.86,0h7.94v3.97h-7.94v-3.97Zm-31.77,0h11.91v3.97h-11.91v-3.97Zm-7.94,0h3.97v3.97h-3.97v-3.97Zm-11.91,0h3.97v3.97h-3.97v-3.97Zm-7.94,0h3.97v3.97h-3.97v-3.97Zm-11.91,0h7.94v3.97h-7.94v-3.97Zm-23.83,0h7.94v3.97h-7.94v-3.97Zm-23.83,0h3.97v3.97h-3.97v-3.97Zm238.29-3.97h3.97v3.97h-3.97v-3.97Zm-11.91,0h3.97v3.97h-3.97v-3.97Zm-11.91,0h3.97v3.97h-3.97v-3.97Zm-7.94,0h3.97v3.97h-3.97v-3.97Zm-7.94,0h3.97v3.97h-3.97v-3.97Zm-15.89,0h11.91v3.97h-11.91v-3.97Zm-15.89,0h3.97v3.97h-3.97v-3.97Zm-11.91,0h7.94v3.97h-7.94v-3.97Zm-15.89,0h7.94v3.97h-7.94v-3.97Zm-7.94,0h3.97v3.97h-3.97v-3.97Zm-7.94,0h3.97v3.97h-3.97v-3.97Zm-19.86,0h7.94v3.97h-7.94v-3.97Zm-23.83,0h15.89v3.97h-15.89v-3.97Zm-19.86,0h11.91v3.97h-11.91v-3.97Zm-7.94,0h3.97v3.97h-3.97v-3.97Zm-11.91,0h3.97v3.97h-3.97v-3.97Zm-7.94,0h3.97v3.97h-3.97v-3.97Zm-11.91,0h3.97v3.97h-3.97v-3.97Zm-11.91,0h3.97v3.97h-3.97v-3.97Zm226.37-3.97h7.94v3.97h-7.94v-3.97Zm-7.94,0h3.97v3.97h-3.97v-3.97Zm-7.94,0h3.97v3.97h-3.97v-3.97Zm-39.71,0h23.83v3.97h-23.83v-3.97Zm-43.69,0h31.77v3.97h-31.77v-3.97Zm-15.89,0h7.94v3.97h-7.94v-3.97Zm-15.89,0h11.91v3.97h-11.91v-3.97Zm-11.91,0h7.94v3.97h-7.94v-3.97Zm-15.89,0h11.91v3.97h-11.91v-3.97Zm-15.89,0h7.94v3.97h-7.94v-3.97Zm-11.91,0h7.94v3.97h-7.94v-3.97Zm-11.91,0h7.94v3.97h-7.94v-3.97Zm-11.91,0h7.94v3.97h-7.94v-3.97Zm-7.94,0h3.97v3.97h-3.97v-3.97Zm222.4-3.97h3.97v3.97h-3.97v-3.97Zm-11.91,0h7.94v3.97h-7.94v-3.97Zm-19.86,0h7.94v3.97h-7.94v-3.97Zm-31.77,0h15.89v3.97h-15.89v-3.97Zm-31.77,0h7.94v3.97h-7.94v-3.97Zm-15.89,0h11.91v3.97h-11.91v-3.97Zm-23.83,0h11.91v3.97h-11.91v-3.97Zm-19.86,0h7.94v3.97h-7.94v-3.97Zm-15.89,0h11.91v3.97h-11.91v-3.97Zm-7.94,0h3.97v3.97h-3.97v-3.97Zm-11.91,0h7.94v3.97h-7.94v-3.97Zm-35.74,0h11.91v3.97h-11.91v-3.97Zm218.43-3.97h7.94v3.97h-7.94v-3.97Zm-11.91,0h7.94v3.97h-7.94v-3.97Zm-15.89,0h7.94v3.97h-7.94v-3.97Zm-31.77,0h7.94v3.97h-7.94v-3.97Zm-67.51,0h35.74v3.97h-35.74v-3.97Zm-27.8,0h3.97v3.97h-3.97v-3.97Zm-23.83,0h3.97v3.97h-3.97v-3.97Zm-7.94,0h3.97v3.97h-3.97v-3.97Zm-27.8,0h15.89v3.97h-15.89v-3.97Zm-7.94,0h3.97v3.97h-3.97v-3.97Zm226.37-3.97h3.97v3.97h-3.97v-3.97Zm-27.8,0h19.86v3.97h-19.86v-3.97Zm-11.91,0h3.97v3.97h-3.97v-3.97Zm-11.91,0h3.97v3.97h-3.97v-3.97Zm-15.89,0h11.91v3.97h-11.91v-3.97Zm-7.94,0h3.97v3.97h-3.97v-3.97Zm-7.94,0h3.97v3.97h-3.97v-3.97Zm-11.91,0h3.97v3.97h-3.97v-3.97Zm-23.83,0h11.91v3.97h-11.91v-3.97Zm-7.94,0h3.97v3.97h-3.97v-3.97Zm-7.94,0h3.97v3.97h-3.97v-3.97Zm-7.94,0h3.97v3.97h-3.97v-3.97Zm-11.91,0h3.97v3.97h-3.97v-3.97Zm-23.83,0h15.89v3.97h-15.89v-3.97Zm-11.91,0h3.97v3.97h-3.97v-3.97Zm-15.89,0h11.91v3.97h-11.91v-3.97Zm-19.86,0h3.97v3.97h-3.97v-3.97Zm206.52-3.97h11.91v3.97h-11.91v-3.97Zm-15.89,0h11.91v3.97h-11.91v-3.97Zm-11.91,0h3.97v3.97h-3.97v-3.97Zm-19.86,0h3.97v3.97h-3.97v-3.97Zm-15.89,0h11.91v3.97h-11.91v-3.97Zm-11.91,0h7.94v3.97h-7.94v-3.97Zm-7.94,0h3.97v3.97h-3.97v-3.97Zm-15.89,0h3.97v3.97h-3.97v-3.97Zm-7.94,0h3.97v3.97h-3.97v-3.97Zm-19.86,0h3.97v3.97h-3.97v-3.97Zm-11.91,0h7.94v3.97h-7.94v-3.97Zm-7.94,0h3.97v3.97h-3.97v-3.97Zm-11.91,0h7.94v3.97h-7.94v-3.97Zm-23.83,0h3.97v3.97h-3.97v-3.97Zm-15.89,0h11.91v3.97h-11.91v-3.97Zm-7.94,0h3.97v3.97h-3.97v-3.97Zm230.34-3.97h3.97v3.97h-3.97v-3.97Zm-7.94,0h3.97v3.97h-3.97v-3.97Zm-7.94,0h3.97v3.97h-3.97v-3.97Zm-27.8,0h11.91v3.97h-11.91v-3.97Zm-7.94,0h3.97v3.97h-3.97v-3.97Zm-7.94,0h3.97v3.97h-3.97v-3.97Zm-27.8,0h3.97v3.97h-3.97v-3.97Zm-11.91,0h7.94v3.97h-7.94v-3.97Zm-7.94,0h3.97v3.97h-3.97v-3.97Zm-11.91,0h7.94v3.97h-7.94v-3.97Zm-19.86,0h3.97v3.97h-3.97v-3.97Zm-31.77,0h27.8v3.97h-27.8v-3.97Zm-7.94,0h3.97v3.97h-3.97v-3.97Zm-11.91,0h3.97v3.97h-3.97v-3.97Zm-7.94,0h3.97v3.97h-3.97v-3.97Zm-27.8,0h11.91v3.97h-11.91v-3.97Zm-11.91,0h3.97v3.97h-3.97v-3.97Zm230.34-3.97h7.94v3.97h-7.94v-3.97Zm-51.63,0h43.69v3.97h-43.69v-3.97Zm-15.89,0h11.91v3.97h-11.91v-3.97Zm-7.94,0h3.97v3.97h-3.97v-3.97Zm-15.89,0h11.91v3.97h-11.91v-3.97Zm-7.94,0h3.97v3.97h-3.97v-3.97Zm-7.94,0h3.97v3.97h-3.97v-3.97Zm-11.91,0h7.94v3.97h-7.94v-3.97Zm-11.91,0h3.97v3.97h-3.97v-3.97Zm-7.94,0h3.97v3.97h-3.97v-3.97Zm-11.91,0h7.94v3.97h-7.94v-3.97Zm-19.86,0h15.89v3.97h-15.89v-3.97Zm-7.94,0h3.97v3.97h-3.97v-3.97Zm-7.94,0h3.97v3.97h-3.97v-3.97Zm-11.91,0h3.97v3.97h-3.97v-3.97Zm-7.94,0h3.97v3.97h-3.97v-3.97Zm-11.91,0h7.94v3.97h-7.94v-3.97Zm178.72-3.97h43.69v3.97h-43.69v-3.97Zm-15.89,0h3.97v3.97h-3.97v-3.97Zm-11.91,0h3.97v3.97h-3.97v-3.97Zm-7.94,0h3.97v3.97h-3.97v-3.97Zm-11.91,0h7.94v3.97h-7.94v-3.97Zm-19.86,0h3.97v3.97h-3.97v-3.97Zm-11.91,0h3.97v3.97h-3.97v-3.97Zm-11.91,0h7.94v3.97h-7.94v-3.97Zm-7.94,0h3.97v3.97h-3.97v-3.97Zm-7.94,0h3.97v3.97h-3.97v-3.97Zm-7.94,0h3.97v3.97h-3.97v-3.97Zm-19.86,0h15.89v3.97h-15.89v-3.97Zm-11.91,0h3.97v3.97h-3.97v-3.97Zm-7.94,0h3.97v3.97h-3.97v-3.97Zm-31.77,0h15.89v3.97h-15.89v-3.97Zm226.37-3.97h3.97v3.97h-3.97v-3.97Zm-7.94,0h3.97v3.97h-3.97v-3.97Zm-11.91,0h7.94v3.97h-7.94v-3.97Zm-7.94,0h3.97v3.97h-3.97v-3.97Zm-27.8,0h19.86v3.97h-19.86v-3.97Zm-7.94,0h3.97v3.97h-3.97v-3.97Zm-23.83,0h3.97v3.97h-3.97v-3.97Zm-7.94,0h3.97v3.97h-3.97v-3.97Zm-11.91,0h7.94v3.97h-7.94v-3.97Zm-23.83,0h19.86v3.97h-19.86v-3.97Zm-23.83,0h7.94v3.97h-7.94v-3.97Zm-7.94,0h3.97v3.97h-3.97v-3.97Zm-11.91,0h3.97v3.97h-3.97v-3.97Zm-15.89,0h11.91v3.97h-11.91v-3.97Zm-7.94,0h3.97v3.97h-3.97v-3.97Zm-11.91,0h7.94v3.97h-7.94v-3.97Zm-7.94,0h3.97v3.97h-3.97v-3.97Zm198.57-3.97h7.94v3.97h-7.94v-3.97Zm-19.86,0h7.94v3.97h-7.94v-3.97Zm-27.8,0h11.91v3.97h-11.91v-3.97Zm-7.94,0h3.97v3.97h-3.97v-3.97Zm-11.91,0h7.94v3.97h-7.94v-3.97Zm-15.89,0h3.97v3.97h-3.97v-3.97Zm-7.94,0h3.97v3.97h-3.97v-3.97Zm-31.77,0h19.86v3.97h-19.86v-3.97Zm-15.89,0h3.97v3.97h-3.97v-3.97Zm-35.74,0h23.83v3.97h-23.83v-3.97Zm-15.89,0h3.97v3.97h-3.97v-3.97Zm-19.86,0h3.97v3.97h-3.97v-3.97Zm238.29-3.97h3.97v3.97h-3.97v-3.97Zm-15.89,0h11.91v3.97h-11.91v-3.97Zm-11.91,0h3.97v3.97h-3.97v-3.97Zm-11.91,0h7.94v3.97h-7.94v-3.97Zm-19.86,0h3.97v3.97h-3.97v-3.97Zm-19.86,0h3.97v3.97h-3.97v-3.97Zm-11.91,0h3.97v3.97h-3.97v-3.97Zm-7.94,0h3.97v3.97h-3.97v-3.97Zm-31.77,0h27.8v3.97h-27.8v-3.97Zm-19.86,0h15.89v3.97h-15.89v-3.97Zm-19.86,0h7.94v3.97h-7.94v-3.97Zm-27.8,0h11.91v3.97h-11.91v-3.97Zm-7.94,0h3.97v3.97h-3.97v-3.97Zm-7.94,0h3.97v3.97h-3.97v-3.97Zm-23.83,0h15.89v3.97h-15.89v-3.97Zm198.57-3.97h3.97v3.97h-3.97v-3.97Zm-7.94,0h3.97v3.97h-3.97v-3.97Zm-11.91,0h3.97v3.97h-3.97v-3.97Zm-23.83,0h19.86v3.97h-19.86v-3.97Zm-15.89,0h7.94v3.97h-7.94v-3.97Zm-11.91,0h7.94v3.97h-7.94v-3.97Zm-15.89,0h3.97v3.97h-3.97v-3.97Zm-11.91,0h3.97v3.97h-3.97v-3.97Zm-19.86,0h15.89v3.97h-15.89v-3.97Zm-11.91,0h7.94v3.97h-7.94v-3.97Zm-19.86,0h7.94v3.97h-7.94v-3.97Zm-11.91,0h7.94v3.97h-7.94v-3.97Zm178.72-3.97h27.8v3.97h-27.8v-3.97Zm-7.94,0h3.97v3.97h-3.97v-3.97Zm-7.94,0h3.97v3.97h-3.97v-3.97Zm-7.94,0h3.97v3.97h-3.97v-3.97Zm-7.94,0h3.97v3.97h-3.97v-3.97Zm-7.94,0h3.97v3.97h-3.97v-3.97Zm-7.94,0h3.97v3.97h-3.97v-3.97Zm-7.94,0h3.97v3.97h-3.97v-3.97Zm-7.94,0h3.97v3.97h-3.97v-3.97Zm-7.94,0h3.97v3.97h-3.97v-3.97Zm-7.94,0h3.97v3.97h-3.97v-3.97Zm-7.94,0h3.97v3.97h-3.97v-3.97Zm-7.94,0h3.97v3.97h-3.97v-3.97Zm-7.94,0h3.97v3.97h-3.97v-3.97Zm-7.94,0h3.97v3.97h-3.97v-3.97Zm-7.94,0h3.97v3.97h-3.97v-3.97Zm-7.94,0h3.97v3.97h-3.97v-3.97Zm-7.94,0h3.97v3.97h-3.97v-3.97Zm-7.94,0h3.97v3.97h-3.97v-3.97Zm-7.94,0h3.97v3.97h-3.97v-3.97Zm-7.94,0h3.97v3.97h-3.97v-3.97Zm-7.94,0h3.97v3.97h-3.97v-3.97Zm-7.94,0h3.97v3.97h-3.97v-3.97Zm-7.94,0h3.97v3.97h-3.97v-3.97Zm-31.77,0h27.8v3.97h-27.8v-3.97Zm238.29-3.97h3.97v3.97h-3.97v-3.97Zm-23.83,0h3.97v3.97h-3.97v-3.97Zm-15.89,0h3.97v3.97h-3.97v-3.97Zm-11.91,0h3.97v3.97h-3.97v-3.97Zm-7.94,0h3.97v3.97h-3.97v-3.97Zm-11.91,0h3.97v3.97h-3.97v-3.97Zm-19.86,0h7.94v3.97h-7.94v-3.97Zm-7.94,0h3.97v3.97h-3.97v-3.97Zm-11.91,0h7.94v3.97h-7.94v-3.97Zm-15.89,0h3.97v3.97h-3.97v-3.97Zm-27.8,0h19.86v3.97h-19.86v-3.97Zm-23.83,0h19.86v3.97h-19.86v-3.97Zm-19.86,0h7.94v3.97h-7.94v-3.97Zm-15.89,0h3.97v3.97h-3.97v-3.97Zm-23.83,0h3.97v3.97h-3.97v-3.97Zm238.29-3.97h3.97v3.97h-3.97v-3.97Zm-15.89,0h11.91v3.97h-11.91v-3.97Zm-7.94,0h3.97v3.97h-3.97v-3.97Zm-23.83,0h15.89v3.97h-15.89v-3.97Zm-11.91,0h3.97v3.97h-3.97v-3.97Zm-19.86,0h3.97v3.97h-3.97v-3.97Zm-15.89,0h11.91v3.97h-11.91v-3.97Zm-35.74,0h27.8v3.97h-27.8v-3.97Zm-7.94,0h3.97v3.97h-3.97v-3.97Zm-27.8,0h19.86v3.97h-19.86v-3.97Zm-19.86,0h3.97v3.97h-3.97v-3.97Zm-7.94,0h3.97v3.97h-3.97v-3.97Zm-11.91,0h3.97v3.97h-3.97v-3.97Zm-7.94,0h3.97v3.97h-3.97v-3.97Zm-15.89,0h11.91v3.97h-11.91v-3.97Zm-7.94,0h3.97v3.97h-3.97v-3.97Zm238.29-3.97h3.97v3.97h-3.97v-3.97Zm-15.89,0h11.91v3.97h-11.91v-3.97Zm-7.94,0h3.97v3.97h-3.97v-3.97Zm-7.94,0h3.97v3.97h-3.97v-3.97Zm-7.94,0h3.97v3.97h-3.97v-3.97Zm-11.91,0h7.94v3.97h-7.94v-3.97Zm-23.83,0h7.94v3.97h-7.94v-3.97Zm-23.83,0h7.94v3.97h-7.94v-3.97Zm-7.94,0h3.97v3.97h-3.97v-3.97Zm-7.94,0h3.97v3.97h-3.97v-3.97Zm-11.91,0h7.94v3.97h-7.94v-3.97Zm-11.91,0h3.97v3.97h-3.97v-3.97Zm-7.94,0h3.97v3.97h-3.97v-3.97Zm-19.86,0h15.89v3.97h-15.89v-3.97Zm-7.94,0h3.97v3.97h-3.97v-3.97Zm-11.91,0h3.97v3.97h-3.97v-3.97Zm-19.86,0h7.94v3.97h-7.94v-3.97Zm-7.94,0h3.97v3.97h-3.97v-3.97Zm-15.89,0h11.91v3.97h-11.91v-3.97Zm-7.94,0h3.97v3.97h-3.97v-3.97Zm238.29-3.97h3.97v3.97h-3.97v-3.97Zm-15.89,0h11.91v3.97h-11.91v-3.97Zm-7.94,0h3.97v3.97h-3.97v-3.97Zm-39.71,0h35.74v3.97h-35.74v-3.97Zm-47.66,0h19.86v3.97h-19.86v-3.97Zm-23.83,0h11.91v3.97h-11.91v-3.97Zm-15.89,0h11.91v3.97h-11.91v-3.97Zm-11.91,0h3.97v3.97h-3.97v-3.97Zm-11.91,0h7.94v3.97h-7.94v-3.97Zm-7.94,0h3.97v3.97h-3.97v-3.97Zm-7.94,0h3.97v3.97h-3.97v-3.97Zm-15.89,0h11.91v3.97h-11.91v-3.97Zm-7.94,0h3.97v3.97h-3.97v-3.97Zm-15.89,0h11.91v3.97h-11.91v-3.97Zm-7.94,0h3.97v3.97h-3.97v-3.97Zm238.29-3.97h3.97v3.97h-3.97v-3.97Zm-23.83,0h3.97v3.97h-3.97v-3.97Zm-11.91,0h7.94v3.97h-7.94v-3.97Zm-11.91,0h3.97v3.97h-3.97v-3.97Zm-7.94,0h3.97v3.97h-3.97v-3.97Zm-7.94,0h3.97v3.97h-3.97v-3.97Zm-7.94,0h3.97v3.97h-3.97v-3.97Zm-7.94,0h3.97v3.97h-3.97v-3.97Zm-35.74,0h27.8v3.97h-27.8v-3.97Zm-7.94,0h3.97v3.97h-3.97v-3.97Zm-23.83,0h19.86v3.97h-19.86v-3.97Zm-19.86,0h7.94v3.97h-7.94v-3.97Zm-11.91,0h3.97v3.97h-3.97v-3.97Zm-19.86,0h3.97v3.97h-3.97v-3.97Zm-15.89,0h3.97v3.97h-3.97v-3.97Zm-23.83,0h3.97v3.97h-3.97v-3.97Zm214.46-3.97h27.8v3.97h-27.8v-3.97Zm-11.91,0h7.94v3.97h-7.94v-3.97Zm-39.71,0h15.89v3.97h-15.89v-3.97Zm-7.94,0h3.97v3.97h-3.97v-3.97Zm-11.91,0h7.94v3.97h-7.94v-3.97Zm-23.83,0h11.91v3.97h-11.91v-3.97Zm-15.89,0h3.97v3.97h-3.97v-3.97Zm-11.91,0h3.97v3.97h-3.97v-3.97Zm-7.94,0h3.97v3.97h-3.97v-3.97Zm-15.89,0h3.97v3.97h-3.97v-3.97Zm-7.94,0h3.97v3.97h-3.97v-3.97Zm-11.91,0h7.94v3.97h-7.94v-3.97Zm-15.89,0h3.97v3.97h-3.97v-3.97Zm-31.77,0h27.8v3.97h-27.8v-3.97Z"/></g><g class="o"><circle class="l" cx="405.1" cy="312.04" r="26.66" transform="translate(8.33 634.61) rotate(-76.72)"/><path class="h" d="M409.23,294.27c-1.59,4.13-3.18,8.57-5.09,13.01,0,0,0,.63,.64,.63h13.03s0,.32,.32,.63l-19.07,21.26c-.32-.32-.32-.63-.32-.95l6.67-14.28v-1.27h-13.35v-1.27l16.21-17.77h.95Z"/></g><g class="s"><path class="p" d="M533.12,159.21c.8,0,1.61,.04,2.41,.12,.8,.08,1.6,.2,2.39,.35,.79,.16,1.57,.35,2.34,.59,.77,.23,1.53,.51,2.27,.81,.74,.31,1.48,.65,2.18,1.03,.71,.38,1.4,.8,2.07,1.24,.67,.44,1.32,.93,1.94,1.44,.62,.51,1.22,1.05,1.79,1.62,.57,.57,1.11,1.17,1.62,1.79,.51,.62,.99,1.27,1.44,1.94,.45,.67,.86,1.36,1.24,2.07,.38,.71,.73,1.44,1.03,2.18,.31,.74,.58,1.51,.81,2.27,.23,.77,.43,1.56,.59,2.34,.16,.79,.28,1.59,.35,2.39,.08,.8,.12,1.61,.12,2.41V440.06c0,.8-.04,1.61-.12,2.41-.08,.8-.2,1.6-.35,2.39-.16,.79-.35,1.58-.59,2.34-.23,.77-.51,1.53-.81,2.27-.31,.74-.65,1.48-1.03,2.18-.38,.71-.8,1.41-1.24,2.07-.45,.67-.93,1.32-1.44,1.94-.51,.62-1.05,1.22-1.62,1.79-.57,.57-1.17,1.11-1.79,1.62-.62,.51-1.27,.99-1.94,1.44-.67,.45-1.36,.86-2.07,1.24-.71,.38-1.44,.73-2.18,1.03-.74,.31-1.51,.58-2.28,.81-.77,.23-1.55,.43-2.34,.59-.79,.16-1.59,.28-2.39,.35-.8,.08-1.61,.12-2.41,.12H276.88c-.8,0-1.61-.04-2.41-.12-.8-.08-1.6-.2-2.39-.35-.79-.16-1.58-.35-2.35-.59-.76-.23-1.53-.51-2.27-.81-.74-.31-1.48-.65-2.18-1.03-.71-.38-1.41-.8-2.07-1.24-.67-.45-1.32-.93-1.94-1.44-.62-.51-1.22-1.06-1.79-1.62-.57-.57-1.11-1.17-1.62-1.79-.51-.62-.99-1.27-1.44-1.94-.45-.67-.86-1.36-1.24-2.07-.38-.71-.73-1.44-1.03-2.18-.31-.74-.58-1.51-.81-2.28-.23-.77-.43-1.55-.59-2.34-.16-.79-.28-1.59-.35-2.39s-.12-1.61-.12-2.41V183.82c0-.8,.04-1.61,.12-2.41,.08-.8,.2-1.6,.35-2.39,.16-.79,.35-1.57,.59-2.34,.23-.77,.51-1.53,.81-2.27,.31-.74,.65-1.48,1.03-2.18,.38-.71,.8-1.4,1.24-2.07,.44-.67,.93-1.32,1.44-1.94s1.06-1.22,1.62-1.79c.57-.57,1.17-1.11,1.79-1.62,.62-.51,1.27-.99,1.94-1.44,.67-.45,1.36-.86,2.07-1.24,.71-.38,1.44-.72,2.18-1.03,.74-.31,1.51-.58,2.27-.81,.77-.23,1.56-.43,2.34-.59,.79-.16,1.59-.28,2.39-.35,.8-.08,1.61-.12,2.41-.12h256.24m0-8H276.88c-1.07,0-2.13,.05-3.2,.16s-2.12,.26-3.17,.47c-1.05,.21-2.08,.47-3.1,.78-1.02,.31-2.03,.67-3.01,1.08-.99,.41-1.95,.86-2.89,1.37-.94,.5-1.86,1.05-2.75,1.65-.89,.59-1.74,1.23-2.57,1.91s-1.62,1.39-2.37,2.15c-.76,.76-1.47,1.55-2.15,2.37-.68,.83-1.31,1.68-1.91,2.57-.59,.89-1.14,1.8-1.65,2.75-.5,.94-.96,1.91-1.37,2.89-.41,.99-.77,1.99-1.08,3.01-.31,1.02-.57,2.06-.78,3.1s-.36,2.1-.47,3.17-.16,2.13-.16,3.2V440.06c0,1.07,.05,2.13,.16,3.2,.1,1.06,.26,2.12,.47,3.17,.21,1.05,.47,2.08,.78,3.1,.31,1.02,.67,2.03,1.08,3.01,.41,.99,.86,1.95,1.37,2.89,.5,.94,1.05,1.86,1.65,2.75,.59,.89,1.23,1.74,1.91,2.57,.68,.83,1.39,1.62,2.15,2.37,.76,.76,1.55,1.47,2.37,2.15,.83,.68,1.68,1.31,2.57,1.91,.89,.59,1.8,1.14,2.75,1.65,.94,.5,1.91,.96,2.89,1.37,.99,.41,1.99,.77,3.01,1.08,1.02,.31,2.06,.57,3.1,.78,1.05,.21,2.1,.36,3.17,.47s2.13,.16,3.2,.16h256.24c1.07,0,2.13-.05,3.2-.16,1.06-.1,2.12-.26,3.17-.47,1.05-.21,2.08-.47,3.1-.78,1.02-.31,2.03-.67,3.01-1.08s1.95-.86,2.89-1.37c.94-.5,1.86-1.05,2.75-1.65,.89-.59,1.74-1.23,2.57-1.91,.83-.68,1.62-1.39,2.37-2.15,.76-.76,1.47-1.55,2.15-2.37,.68-.83,1.31-1.68,1.91-2.57,.59-.89,1.14-1.8,1.65-2.75,.5-.94,.96-1.91,1.37-2.89s.77-1.99,1.08-3.01,.57-2.06,.78-3.1c.21-1.05,.36-2.1,.47-3.17,.1-1.06,.16-2.13,.16-3.2V183.82c0-1.07-.05-2.13-.16-3.2-.1-1.06-.26-2.12-.47-3.17-.21-1.05-.47-2.08-.78-3.1-.31-1.02-.67-2.03-1.08-3.01s-.86-1.95-1.37-2.89c-.5-.94-1.05-1.86-1.65-2.75-.59-.89-1.23-1.74-1.91-2.57-.68-.83-1.39-1.62-2.15-2.37-.76-.76-1.55-1.47-2.37-2.15s-1.68-1.31-2.57-1.91c-.89-.59-1.8-1.14-2.75-1.65-.94-.5-1.91-.96-2.89-1.37s-1.99-.77-3.01-1.08c-1.02-.31-2.06-.57-3.1-.78-1.05-.21-2.1-.36-3.17-.47-1.06-.1-2.13-.16-3.2-.16h0Z"/></g><g/></g><g><path class="q" d="M287.26,91.58h-7.24v-5.29h21.12v5.29h-7.21v18.29h-6.67v-18.29Z"/><path class="q" d="M302.25,86.19c0-1.92,1.55-3.4,3.91-3.4s3.91,1.38,3.91,3.3c0,2.02-1.55,3.5-3.91,3.5s-3.91-1.48-3.91-3.4Zm.71,5.42h6.4v18.26h-6.4v-18.26Z"/><path class="q" d="M333.96,100.75c0,5.79-4.01,9.43-8.96,9.43-2.12,0-3.84-.64-5.09-1.92v8.15h-6.4v-24.8h6.1v1.82c1.21-1.45,3-2.12,5.39-2.12,4.95,0,8.96,3.64,8.96,9.43Zm-6.47,0c0-2.76-1.68-4.35-3.84-4.35s-3.84,1.58-3.84,4.35,1.68,4.35,3.84,4.35,3.84-1.58,3.84-4.35Z"/><path class="k" d="M345.38,107.76l2.19-4.92c2.09,1.38,5.05,2.32,7.78,2.32s3.84-.77,3.84-1.92c0-3.74-13.41-1.01-13.41-9.77,0-4.21,3.44-7.65,10.44-7.65,3.07,0,6.23,.71,8.56,2.06l-2.06,4.95c-2.26-1.21-4.48-1.82-6.54-1.82-2.8,0-3.81,.94-3.81,2.12,0,3.6,13.38,.91,13.38,9.6,0,4.11-3.44,7.61-10.44,7.61-3.87,0-7.72-1.04-9.94-2.59Z"/><path class="k" d="M385.64,99.74v10.14h-5.96v-2.36c-.91,1.75-2.73,2.66-5.39,2.66-4.38,0-6.81-2.46-6.81-5.63,0-3.37,2.46-5.46,8.12-5.46h3.64c-.1-1.85-1.35-2.9-3.87-2.9-1.75,0-3.71,.61-4.95,1.58l-2.16-4.35c2.09-1.38,5.19-2.12,8.05-2.12,5.93,0,9.33,2.63,9.33,8.42Zm-6.4,4.28v-1.58h-2.76c-2.06,0-2.8,.74-2.8,1.85s.88,1.85,2.39,1.85c1.42,0,2.66-.67,3.17-2.12Z"/><path class="k" d="M420.85,99.43v10.44h-6.4v-9.4c0-2.63-1.08-3.74-2.76-3.74-1.85,0-3.2,1.25-3.2,4.08v9.06h-6.4v-9.4c0-2.63-1.04-3.74-2.76-3.74-1.89,0-3.23,1.25-3.23,4.08v9.06h-6.4v-18.26h6.1v1.92c1.38-1.48,3.3-2.22,5.46-2.22,2.49,0,4.62,.91,5.9,2.86,1.45-1.82,3.71-2.86,6.33-2.86,4.25,0,7.38,2.46,7.38,8.12Z"/><path class="q" d="M445.92,110.18v3.74h-4.04v-3.6c-3.37-.24-6.57-1.21-8.52-2.56l2.19-4.92c2.09,1.38,5.05,2.32,7.78,2.32s3.84-.77,3.84-1.92c0-3.74-13.41-1.01-13.41-9.77,0-3.71,2.66-6.84,8.12-7.51v-3.71h4.04v3.64c2.49,.2,4.95,.88,6.84,1.99l-2.06,4.95c-2.26-1.21-4.48-1.82-6.54-1.82-2.8,0-3.81,.94-3.81,2.12,0,3.6,13.38,.91,13.38,9.6,0,3.57-2.56,6.67-7.82,7.45Z"/><path class="q" d="M455.59,98.09c0-7.78,4.38-12.26,10.41-12.26s10.38,4.48,10.38,12.26-4.38,12.26-10.38,12.26-10.41-4.48-10.41-12.26Zm14.08,0c0-4.95-1.55-6.81-3.67-6.81s-3.71,1.85-3.71,6.81,1.55,6.81,3.71,6.81,3.67-1.85,3.67-6.81Z"/><path class="q" d="M477.96,106.37c0-2.29,1.68-3.77,3.84-3.77s3.84,1.48,3.84,3.77-1.65,3.81-3.84,3.81-3.84-1.58-3.84-3.81Z"/><path class="q" d="M506.26,102.3c0,4.21-3.17,8.05-10.28,8.05-3.27,0-6.74-.81-9.13-2.32l2.39-5.02c1.92,1.28,4.28,1.95,6.54,1.95s3.77-.91,3.77-2.49c0-1.45-.98-2.39-4.58-2.39h-6.4l1.18-13.78h15.03v5.15h-9.5l-.3,3.44h1.58c6.97,0,9.7,3.23,9.7,7.41Z"/><path class="q" d="M508.18,98.09c0-7.78,4.38-12.26,10.41-12.26s10.38,4.48,10.38,12.26-4.38,12.26-10.38,12.26-10.41-4.48-10.41-12.26Zm14.08,0c0-4.95-1.55-6.81-3.67-6.81s-3.71,1.85-3.71,6.81,1.55,6.81,3.71,6.81,3.67-1.85,3.67-6.81Z"/></g><g><rect class="k" x="249.6" y="484.69" width="310.8" height="54.9" rx="7.59" ry="7.59"/><g><path class="h" d="M290.76,510.71c0-5.19,3.98-8.9,9.34-8.9,2.97,0,5.46,1.08,7.08,3.05l-2.56,2.36c-1.16-1.33-2.61-2.02-4.33-2.02-3.22,0-5.51,2.26-5.51,5.51s2.29,5.51,5.51,5.51c1.72,0,3.17-.69,4.33-2.04l2.56,2.36c-1.62,1.99-4.1,3.07-7.1,3.07-5.33,0-9.32-3.71-9.32-8.9Z"/><path class="h" d="M308.14,512.7c0-3.98,3.07-6.81,7.28-6.81s7.25,2.83,7.25,6.81-3.05,6.81-7.25,6.81-7.28-2.83-7.28-6.81Zm10.64,0c0-2.29-1.45-3.66-3.37-3.66s-3.39,1.38-3.39,3.66,1.48,3.66,3.39,3.66,3.37-1.38,3.37-3.66Z"/><path class="h" d="M339.63,512.7c0,4.15-2.88,6.81-6.59,6.81-1.65,0-3-.52-3.98-1.6v6.17h-3.83v-17.99h3.66v1.52c.96-1.16,2.38-1.72,4.15-1.72,3.71,0,6.59,2.65,6.59,6.81Zm-3.88,0c0-2.29-1.45-3.66-3.37-3.66s-3.37,1.38-3.37,3.66,1.45,3.66,3.37,3.66,3.37-1.38,3.37-3.66Z"/><path class="h" d="M354.94,506.09l-5.97,14.04c-1.28,3.2-3.1,4.15-5.48,4.15-1.35,0-2.83-.44-3.69-1.2l1.4-2.73c.59,.52,1.4,.84,2.16,.84,1.06,0,1.65-.47,2.16-1.65l.05-.12-5.73-13.32h3.96l3.71,8.97,3.74-8.97h3.69Z"/><path class="h" d="M372,518.68c-.79,.57-1.94,.84-3.12,.84-3.12,0-4.94-1.6-4.94-4.74v-5.43h-2.04v-2.95h2.04v-3.22h3.83v3.22h3.29v2.95h-3.29v5.38c0,1.13,.61,1.75,1.65,1.75,.57,0,1.13-.17,1.55-.49l1.03,2.7Z"/><path class="h" d="M372.76,512.7c0-3.98,3.07-6.81,7.28-6.81s7.25,2.83,7.25,6.81-3.05,6.81-7.25,6.81-7.28-2.83-7.28-6.81Zm10.64,0c0-2.29-1.45-3.66-3.37-3.66s-3.39,1.38-3.39,3.66,1.48,3.66,3.39,3.66,3.37-1.38,3.37-3.66Z"/><path class="h" d="M395.99,510.71c0-5.19,3.98-8.9,9.34-8.9,2.97,0,5.46,1.08,7.08,3.05l-2.56,2.36c-1.16-1.33-2.61-2.02-4.33-2.02-3.22,0-5.51,2.26-5.51,5.51s2.29,5.51,5.51,5.51c1.72,0,3.17-.69,4.33-2.04l2.56,2.36c-1.62,1.99-4.11,3.07-7.1,3.07-5.33,0-9.32-3.71-9.32-8.9Z"/><path class="h" d="M414.82,501.08h3.83v18.24h-3.83v-18.24Z"/><path class="h" d="M421.75,502.11c0-1.2,.96-2.14,2.38-2.14s2.38,.89,2.38,2.06c0,1.28-.96,2.21-2.38,2.21s-2.38-.93-2.38-2.14Zm.47,3.98h3.83v13.23h-3.83v-13.23Z"/><path class="h" d="M444.02,512.7c0,4.15-2.88,6.81-6.59,6.81-1.65,0-3-.52-3.98-1.6v6.17h-3.83v-17.99h3.66v1.52c.96-1.16,2.38-1.72,4.15-1.72,3.71,0,6.59,2.65,6.59,6.81Zm-3.88,0c0-2.29-1.45-3.66-3.37-3.66s-3.37,1.38-3.37,3.66,1.45,3.66,3.37,3.66,3.37-1.38,3.37-3.66Z"/><path class="h" d="M460.98,512.7c0,4.15-2.88,6.81-6.59,6.81-1.77,0-3.2-.57-4.15-1.72v1.52h-3.66v-18.24h3.83v6.42c.98-1.08,2.34-1.6,3.98-1.6,3.71,0,6.59,2.65,6.59,6.81Zm-3.88,0c0-2.29-1.45-3.66-3.37-3.66s-3.37,1.38-3.37,3.66,1.45,3.66,3.37,3.66,3.37-1.38,3.37-3.66Z"/><path class="h" d="M462.55,512.7c0-3.98,3.07-6.81,7.28-6.81s7.25,2.83,7.25,6.81-3.05,6.81-7.25,6.81-7.28-2.83-7.28-6.81Zm10.64,0c0-2.29-1.45-3.66-3.37-3.66s-3.39,1.38-3.39,3.66,1.47,3.66,3.39,3.66,3.37-1.38,3.37-3.66Z"/><path class="h" d="M491.12,511.77v7.55h-3.59v-1.65c-.71,1.2-2.09,1.84-4.03,1.84-3.1,0-4.94-1.72-4.94-4.01s1.65-3.96,5.68-3.96h3.05c0-1.65-.98-2.61-3.05-2.61-1.4,0-2.85,.47-3.81,1.23l-1.38-2.68c1.45-1.03,3.59-1.6,5.7-1.6,4.03,0,6.37,1.87,6.37,5.88Zm-3.83,3.37v-1.35h-2.63c-1.79,0-2.36,.66-2.36,1.55,0,.96,.81,1.6,2.16,1.6,1.28,0,2.38-.59,2.83-1.79Z"/><path class="h" d="M502.8,505.89v3.54c-.32-.02-.57-.05-.86-.05-2.11,0-3.52,1.16-3.52,3.69v6.24h-3.83v-13.23h3.66v1.75c.93-1.28,2.51-1.94,4.55-1.94Z"/><path class="h" d="M518.43,501.08v18.24h-3.66v-1.52c-.96,1.16-2.36,1.72-4.13,1.72-3.74,0-6.61-2.65-6.61-6.81s2.88-6.81,6.61-6.81c1.62,0,3,.52,3.96,1.6v-6.42h3.83Zm-3.76,11.63c0-2.29-1.47-3.66-3.37-3.66s-3.39,1.38-3.39,3.66,1.47,3.66,3.39,3.66,3.37-1.38,3.37-3.66Z"/></g></g><g><path class="r" d="M257.03,138.61c-.53,.38-1.3,.56-2.09,.56-2.09,0-3.3-1.07-3.3-3.17v-3.63h-1.36v-1.97h1.36v-2.15h2.56v2.15h2.2v1.97h-2.2v3.6c0,.76,.41,1.17,1.1,1.17,.38,0,.76-.12,1.04-.33l.69,1.81Z"/><path class="r" d="M267.51,133.98v5.06h-2.56v-4.67c0-1.43-.66-2.09-1.79-2.09-1.23,0-2.12,.76-2.12,2.38v4.37h-2.56v-12.19h2.56v4.27c.69-.69,1.68-1.05,2.81-1.05,2.09,0,3.66,1.22,3.66,3.91Z"/><path class="r" d="M278.53,135.34h-6.69c.25,1.1,1.18,1.77,2.53,1.77,.94,0,1.61-.28,2.22-.85l1.36,1.48c-.82,.94-2.05,1.43-3.65,1.43-3.06,0-5.04-1.92-5.04-4.55s2.02-4.55,4.72-4.55,4.6,1.74,4.6,4.58c0,.2-.03,.48-.05,.69Zm-6.72-1.5h4.36c-.18-1.12-1.02-1.84-2.17-1.84s-2,.71-2.19,1.84Z"/><path class="r" d="M289.33,133.98v5.06h-2.56v-4.67c0-1.43-.66-2.09-1.79-2.09-1.23,0-2.12,.76-2.12,2.38v4.37h-2.56v-8.84h2.45v1.04c.69-.76,1.73-1.17,2.92-1.17,2.09,0,3.67,1.22,3.67,3.91Z"/><path class="r" d="M303.8,139.04l-2.22-3.2h-2.45v3.2h-2.66v-11.5h4.98c3.07,0,5,1.59,5,4.17,0,1.73-.87,2.99-2.37,3.63l2.58,3.7h-2.86Zm-2.5-9.33h-2.17v4.01h2.17c1.63,0,2.45-.76,2.45-2s-.82-2-2.45-2Z"/><path class="r" d="M316.97,135.34h-6.69c.25,1.1,1.18,1.77,2.53,1.77,.94,0,1.61-.28,2.22-.85l1.36,1.48c-.82,.94-2.05,1.43-3.65,1.43-3.06,0-5.04-1.92-5.04-4.55s2.02-4.55,4.72-4.55,4.6,1.74,4.6,4.58c0,.2-.03,.48-.05,.69Zm-6.72-1.5h4.35c-.18-1.12-1.02-1.84-2.17-1.84s-2,.71-2.19,1.84Z"/><path class="r" d="M326.3,134v5.04h-2.4v-1.1c-.48,.81-1.4,1.23-2.7,1.23-2.07,0-3.3-1.15-3.3-2.68s1.1-2.65,3.8-2.65h2.04c0-1.1-.66-1.74-2.04-1.74-.94,0-1.91,.31-2.55,.82l-.92-1.79c.97-.69,2.4-1.07,3.81-1.07,2.7,0,4.26,1.25,4.26,3.93Zm-2.56,2.25v-.9h-1.76c-1.2,0-1.58,.44-1.58,1.04,0,.64,.54,1.07,1.45,1.07,.85,0,1.59-.39,1.89-1.2Z"/><path class="r" d="M328.06,134.62c0-2.66,2.05-4.55,4.93-4.55,1.86,0,3.32,.81,3.96,2.25l-1.99,1.07c-.48-.84-1.18-1.22-1.99-1.22-1.3,0-2.32,.9-2.32,2.45s1.02,2.45,2.32,2.45c.81,0,1.51-.36,1.99-1.22l1.99,1.08c-.64,1.41-2.1,2.23-3.96,2.23-2.88,0-4.93-1.89-4.93-4.55Z"/><path class="r" d="M347.39,133.98v5.06h-2.56v-4.67c0-1.43-.66-2.09-1.79-2.09-1.23,0-2.12,.76-2.12,2.38v4.37h-2.56v-12.19h2.56v4.27c.69-.69,1.68-1.05,2.81-1.05,2.09,0,3.66,1.22,3.66,3.91Z"/><path class="r" d="M358.42,135.34h-6.69c.25,1.1,1.18,1.77,2.53,1.77,.94,0,1.61-.28,2.22-.85l1.36,1.48c-.82,.94-2.05,1.43-3.65,1.43-3.06,0-5.04-1.92-5.04-4.55s2.02-4.55,4.72-4.55,4.6,1.74,4.6,4.58c0,.2-.03,.48-.05,.69Zm-6.72-1.5h4.35c-.18-1.12-1.02-1.84-2.17-1.84s-2,.71-2.19,1.84Z"/><path class="r" d="M365.66,130.07v2.37c-.21-.02-.38-.03-.58-.03-1.41,0-2.35,.77-2.35,2.46v4.17h-2.56v-8.84h2.45v1.17c.62-.85,1.68-1.3,3.04-1.3Z"/><path class="r" d="M386.1,130.2l-3.2,8.84h-2.46l-1.99-5.49-2.05,5.49h-2.46l-3.19-8.84h2.42l2.09,5.98,2.17-5.98h2.17l2.1,5.98,2.15-5.98h2.27Z"/><path class="r" d="M386.98,127.54c0-.81,.64-1.43,1.59-1.43s1.59,.59,1.59,1.38c0,.85-.64,1.48-1.59,1.48s-1.59-.62-1.59-1.43Zm.31,2.66h2.56v8.84h-2.56v-8.84Z"/><path class="r" d="M392.24,126.85h2.56v12.19h-2.56v-12.19Z"/><path class="r" d="M397.18,126.85h2.56v12.19h-2.56v-12.19Z"/><path class="r" d="M415.78,126.85v12.19h-2.45v-1.02c-.64,.77-1.58,1.15-2.76,1.15-2.5,0-4.42-1.77-4.42-4.55s1.92-4.55,4.42-4.55c1.08,0,2,.34,2.65,1.07v-4.29h2.56Zm-2.51,7.77c0-1.53-.99-2.45-2.25-2.45s-2.27,.92-2.27,2.45,.99,2.45,2.27,2.45,2.25-.92,2.25-2.45Z"/><path class="r" d="M426.75,135.34h-6.69c.25,1.1,1.18,1.77,2.53,1.77,.94,0,1.61-.28,2.22-.85l1.36,1.48c-.82,.94-2.05,1.43-3.65,1.43-3.06,0-5.04-1.92-5.04-4.55s2.02-4.55,4.72-4.55,4.6,1.74,4.6,4.58c0,.2-.03,.48-.05,.69Zm-6.72-1.5h4.36c-.18-1.12-1.02-1.84-2.17-1.84s-2,.71-2.19,1.84Z"/><path class="r" d="M428.51,126.85h2.56v12.19h-2.56v-12.19Z"/><path class="r" d="M433.14,127.54c0-.81,.64-1.43,1.59-1.43s1.59,.59,1.59,1.38c0,.85-.64,1.48-1.59,1.48s-1.59-.62-1.59-1.43Zm.31,2.66h2.56v8.84h-2.56v-8.84Z"/><path class="r" d="M447.17,130.2l-3.73,8.84h-2.65l-3.71-8.84h2.65l2.45,6.01,2.53-6.01h2.47Z"/><path class="r" d="M456.58,135.34h-6.69c.25,1.1,1.18,1.77,2.53,1.77,.94,0,1.61-.28,2.22-.85l1.36,1.48c-.82,.94-2.05,1.43-3.65,1.43-3.06,0-5.04-1.92-5.04-4.55s2.02-4.55,4.72-4.55,4.6,1.74,4.6,4.58c0,.2-.03,.48-.05,.69Zm-6.72-1.5h4.35c-.18-1.12-1.02-1.84-2.17-1.84s-2,.71-2.19,1.84Z"/><path class="r" d="M463.83,130.07v2.37c-.21-.02-.38-.03-.58-.03-1.41,0-2.35,.77-2.35,2.46v4.17h-2.56v-8.84h2.45v1.17c.62-.85,1.68-1.3,3.04-1.3Z"/><path class="r" d="M478.84,130.2l-3.99,9.38c-.85,2.14-2.07,2.78-3.67,2.78-.9,0-1.89-.3-2.46-.81l.94-1.82c.39,.34,.94,.56,1.45,.56,.71,0,1.1-.31,1.45-1.1l.03-.08-3.83-8.91h2.65l2.48,6,2.5-6h2.46Z"/><path class="r" d="M478.99,134.62c0-2.66,2.05-4.55,4.86-4.55s4.85,1.89,4.85,4.55-2.04,4.55-4.85,4.55-4.86-1.89-4.86-4.55Zm7.12,0c0-1.53-.97-2.45-2.25-2.45s-2.27,.92-2.27,2.45,.99,2.45,2.27,2.45,2.25-.92,2.25-2.45Z"/><path class="r" d="M499.31,130.2v8.84h-2.43v-1.05c-.67,.77-1.66,1.18-2.75,1.18-2.22,0-3.78-1.25-3.78-3.98v-5h2.56v4.62c0,1.48,.66,2.14,1.79,2.14s2.04-.76,2.04-2.38v-4.37h2.56Z"/><path class="r" d="M507.18,130.07v2.37c-.21-.02-.38-.03-.58-.03-1.41,0-2.35,.77-2.35,2.46v4.17h-2.56v-8.84h2.45v1.17c.62-.85,1.68-1.3,3.04-1.3Z"/><path class="r" d="M522.03,135.34h-6.69c.25,1.1,1.18,1.77,2.53,1.77,.94,0,1.61-.28,2.22-.85l1.36,1.48c-.82,.94-2.05,1.43-3.65,1.43-3.06,0-5.04-1.92-5.04-4.55s2.02-4.55,4.72-4.55,4.6,1.74,4.6,4.58c0,.2-.03,.48-.05,.69Zm-6.72-1.5h4.36c-.18-1.12-1.02-1.84-2.17-1.84s-2,.71-2.19,1.84Z"/><path class="r" d="M538.72,133.98v5.06h-2.56v-4.67c0-1.43-.64-2.09-1.68-2.09-1.15,0-1.96,.74-1.96,2.32v4.44h-2.56v-4.67c0-1.43-.61-2.09-1.68-2.09-1.13,0-1.94,.74-1.94,2.32v4.44h-2.56v-8.84h2.45v1.02c.66-.76,1.64-1.15,2.78-1.15,1.23,0,2.28,.48,2.91,1.45,.71-.9,1.86-1.45,3.19-1.45,2.1,0,3.62,1.22,3.62,3.91Z"/><path class="r" d="M548.84,134v5.04h-2.4v-1.1c-.48,.81-1.4,1.23-2.7,1.23-2.07,0-3.3-1.15-3.3-2.68s1.1-2.65,3.8-2.65h2.04c0-1.1-.66-1.74-2.04-1.74-.94,0-1.91,.31-2.55,.82l-.92-1.79c.97-.69,2.4-1.07,3.81-1.07,2.69,0,4.26,1.25,4.26,3.93Zm-2.56,2.25v-.9h-1.76c-1.2,0-1.58,.44-1.58,1.04,0,.64,.54,1.07,1.45,1.07,.85,0,1.59-.39,1.89-1.2Z"/><path class="r" d="M550.84,127.54c0-.81,.64-1.43,1.59-1.43s1.59,.59,1.59,1.38c0,.85-.64,1.48-1.59,1.48s-1.59-.62-1.59-1.43Zm.31,2.66h2.56v8.84h-2.56v-8.84Z"/><path class="r" d="M556.1,126.85h2.56v12.19h-2.56v-12.19Z"/></g><rect class="j" x=".5" y=".5" width="838" height="50.33"/><g><path class="r" d="M266.05,26.86v7.45h-3.78v-6.87c0-2.11-.97-3.07-2.64-3.07-1.81,0-3.12,1.11-3.12,3.51v6.44h-3.78V16.35h3.78v6.29c1.02-1.02,2.47-1.55,4.14-1.55,3.07,0,5.4,1.79,5.4,5.76Z"/><path class="r" d="M277.86,33.68c-.77,.56-1.91,.82-3.07,.82-3.07,0-4.86-1.57-4.86-4.67v-5.35h-2.01v-2.9h2.01v-3.17h3.78v3.17h3.24v2.9h-3.24v5.3c0,1.11,.6,1.72,1.62,1.72,.56,0,1.11-.17,1.52-.48l1.02,2.66Z"/><path class="r" d="M288.1,33.68c-.77,.56-1.91,.82-3.07,.82-3.07,0-4.86-1.57-4.86-4.67v-5.35h-2.01v-2.9h2.01v-3.17h3.78v3.17h3.24v2.9h-3.24v5.3c0,1.11,.6,1.72,1.62,1.72,.56,0,1.11-.17,1.52-.48l1.02,2.66Z"/><path class="r" d="M304.41,27.8c0,4.09-2.83,6.7-6.49,6.7-1.62,0-2.95-.51-3.92-1.57v6.07h-3.77V21.29h3.61v1.5c.94-1.14,2.35-1.69,4.09-1.69,3.65,0,6.49,2.61,6.49,6.7Zm-3.82,0c0-2.25-1.43-3.61-3.32-3.61s-3.32,1.35-3.32,3.61,1.43,3.61,3.32,3.61,3.32-1.36,3.32-3.61Z"/><path class="r" d="M305.67,33.1l1.26-2.71c1.16,.75,2.93,1.26,4.53,1.26,1.74,0,2.4-.46,2.4-1.19,0-2.13-7.86,.05-7.86-5.15,0-2.47,2.23-4.21,6.03-4.21,1.79,0,3.77,.41,5.01,1.14l-1.26,2.69c-1.28-.73-2.57-.97-3.75-.97-1.69,0-2.42,.53-2.42,1.21,0,2.23,7.87,.07,7.87,5.2,0,2.42-2.25,4.14-6.15,4.14-2.2,0-4.43-.61-5.64-1.4Z"/><path class="r" d="M318.86,23.44c0-1.4,1.04-2.32,2.35-2.32s2.35,.92,2.35,2.32-1.04,2.37-2.35,2.37-2.35-.99-2.35-2.37Zm0,8.69c0-1.4,1.04-2.32,2.35-2.32s2.35,.92,2.35,2.32-1.04,2.37-2.35,2.37-2.35-.99-2.35-2.37Z"/><path class="r" d="M332.85,13.93h3.36l-7.99,22.8h-3.36l7.99-22.8Z"/><path class="r" d="M340.57,13.93h3.36l-7.99,22.8h-3.36l7.99-22.8Z"/><path class="r" d="M364.8,21.29l-4.72,13.02h-3.63l-2.93-8.08-3.02,8.08h-3.63l-4.69-13.02h3.56l3.07,8.81,3.19-8.81h3.19l3.1,8.81,3.17-8.81h3.34Z"/><path class="r" d="M387.16,21.29l-4.72,13.02h-3.63l-2.93-8.08-3.02,8.08h-3.63l-4.69-13.02h3.56l3.07,8.81,3.19-8.81h3.19l3.1,8.81,3.17-8.81h3.34Z"/><path class="r" d="M409.52,21.29l-4.72,13.02h-3.63l-2.93-8.08-3.02,8.08h-3.63l-4.69-13.02h3.56l3.07,8.81,3.19-8.81h3.19l3.1,8.81,3.17-8.81h3.34Z"/><path class="r" d="M409.6,32.13c0-1.4,1.04-2.32,2.35-2.32s2.35,.92,2.35,2.32-1.04,2.37-2.35,2.37-2.35-.99-2.35-2.37Z"/><path class="r" d="M424.94,21.1v3.48c-.31-.02-.56-.05-.85-.05-2.08,0-3.46,1.14-3.46,3.63v6.15h-3.78v-13.02h3.61v1.72c.92-1.26,2.47-1.91,4.48-1.91Z"/><path class="r" d="M439.75,28.86h-9.85c.36,1.62,1.74,2.61,3.73,2.61,1.38,0,2.37-.41,3.27-1.26l2.01,2.18c-1.21,1.38-3.02,2.11-5.37,2.11-4.5,0-7.43-2.83-7.43-6.7s2.98-6.7,6.95-6.7,6.78,2.57,6.78,6.75c0,.29-.05,.7-.07,1.02Zm-9.9-2.2h6.41c-.27-1.65-1.5-2.71-3.19-2.71s-2.95,1.04-3.22,2.71Z"/><path class="r" d="M453.5,26.88v7.43h-3.53v-1.62c-.7,1.19-2.06,1.82-3.97,1.82-3.05,0-4.86-1.69-4.86-3.94s1.62-3.9,5.59-3.9h3c0-1.62-.97-2.56-3-2.56-1.38,0-2.81,.46-3.75,1.21l-1.35-2.64c1.43-1.02,3.53-1.57,5.61-1.57,3.97,0,6.27,1.84,6.27,5.78Zm-3.78,3.32v-1.33h-2.59c-1.77,0-2.32,.65-2.32,1.52,0,.94,.8,1.57,2.13,1.57,1.26,0,2.35-.58,2.78-1.77Z"/><path class="r" d="M456.09,27.8c0-3.92,3.03-6.7,7.26-6.7,2.74,0,4.89,1.19,5.83,3.32l-2.93,1.57c-.7-1.23-1.74-1.79-2.93-1.79-1.91,0-3.41,1.33-3.41,3.61s1.5,3.61,3.41,3.61c1.19,0,2.23-.53,2.93-1.79l2.93,1.6c-.94,2.08-3.1,3.29-5.83,3.29-4.23,0-7.26-2.78-7.26-6.7Z"/><path class="r" d="M484.58,26.86v7.45h-3.78v-6.87c0-2.11-.97-3.07-2.64-3.07-1.82,0-3.12,1.11-3.12,3.51v6.44h-3.78V16.35h3.78v6.29c1.02-1.02,2.47-1.55,4.14-1.55,3.07,0,5.4,1.79,5.4,5.76Z"/><path class="r" d="M500.82,28.86h-9.85c.36,1.62,1.74,2.61,3.73,2.61,1.38,0,2.37-.41,3.27-1.26l2.01,2.18c-1.21,1.38-3.02,2.11-5.37,2.11-4.5,0-7.43-2.83-7.43-6.7s2.98-6.7,6.95-6.7,6.78,2.57,6.78,6.75c0,.29-.05,.7-.07,1.02Zm-9.9-2.2h6.41c-.27-1.65-1.5-2.71-3.19-2.71s-2.95,1.04-3.22,2.71Z"/><path class="r" d="M511.49,21.1v3.48c-.31-.02-.56-.05-.85-.05-2.08,0-3.46,1.14-3.46,3.63v6.15h-3.78v-13.02h3.61v1.72c.92-1.26,2.47-1.91,4.48-1.91Z"/><path class="r" d="M512.68,32.13c0-1.4,1.04-2.32,2.35-2.32s2.35,.92,2.35,2.32-1.04,2.37-2.35,2.37-2.35-.99-2.35-2.37Z"/><path class="r" d="M541.93,26.86v7.45h-3.77v-6.87c0-2.11-.94-3.07-2.47-3.07-1.69,0-2.88,1.09-2.88,3.41v6.53h-3.78v-6.87c0-2.11-.9-3.07-2.47-3.07-1.67,0-2.86,1.09-2.86,3.41v6.53h-3.78v-13.02h3.61v1.5c.97-1.11,2.42-1.69,4.09-1.69,1.81,0,3.36,.7,4.28,2.13,1.04-1.33,2.73-2.13,4.7-2.13,3.1,0,5.32,1.79,5.32,5.76Z"/><path class="r" d="M558.15,28.86h-9.85c.36,1.62,1.74,2.61,3.73,2.61,1.38,0,2.37-.41,3.27-1.26l2.01,2.18c-1.21,1.38-3.02,2.11-5.37,2.11-4.5,0-7.43-2.83-7.43-6.7s2.98-6.7,6.95-6.7,6.78,2.57,6.78,6.75c0,.29-.05,.7-.07,1.02Zm-9.9-2.2h6.41c-.27-1.65-1.5-2.71-3.19-2.71s-2.95,1.04-3.22,2.71Z"/></g></g></g></g></svg>