<?xml version="1.0" encoding="UTF-8"?><svg xmlns="http://www.w3.org/2000/svg" viewBox="0 0 839 572"><defs><style>.e,.f{fill:#fff;}.g{fill:#1b73e7;}.f{stroke:gray;}.f,.h{stroke-miterlimit:10;}.h{fill:none;stroke:#e6e6e6;}.i{fill:#404040;}.j{fill:#666;}</style></defs><g id="a"/><g id="b"><g id="c"><g id="d"><path class="i" d="M838.5,24.73c0-13.66-11.07-24.73-24.73-24.73H25.23C11.57,0,.5,11.07,.5,24.73v59.47H838.5V24.73Z"/><g><path class="e" d="M64.44,33.38v23.34h-5.43l-10.3-12.44v12.44h-6.47v-23.34h5.43l10.3,12.44v-12.44h6.47Z"/><path class="e" d="M87.17,49.28h-13.14c.53,1.83,2.1,2.9,4.43,2.9,1.77,0,2.93-.5,4.17-1.57l3.33,3.47c-1.73,1.93-4.27,2.93-7.7,2.93-6.43,0-10.6-3.97-10.6-9.37s4.23-9.3,9.94-9.3c5.33,0,9.67,3.4,9.67,9.37,0,.47-.07,1.07-.1,1.57Zm-13.24-3.33h7.4c-.33-1.9-1.73-3.1-3.7-3.1s-3.33,1.2-3.7,3.1Z"/><path class="e" d="M119.81,38.64l-6.44,18.07h-6.13l-3.4-9.84-3.53,9.84h-6.13l-6.43-18.07h6l3.7,10.94,3.83-10.94h5.4l3.73,11.04,3.83-11.04h5.57Z"/><path class="e" d="M152.81,56.71l-.07-12.37-6,10.07h-2.93l-5.97-9.74v12.04h-6.1v-23.34h5.43l8.2,13.47,8-13.47h5.43l.07,23.34h-6.07Z"/><path class="e" d="M181.61,49.28h-13.14c.53,1.83,2.1,2.9,4.43,2.9,1.77,0,2.93-.5,4.17-1.57l3.33,3.47c-1.73,1.93-4.27,2.93-7.7,2.93-6.43,0-10.6-3.97-10.6-9.37s4.23-9.3,9.94-9.3c5.33,0,9.67,3.4,9.67,9.37,0,.47-.07,1.07-.1,1.57Zm-13.24-3.33h7.4c-.33-1.9-1.73-3.1-3.7-3.1s-3.33,1.2-3.7,3.1Z"/><path class="e" d="M183.21,55.15l1.9-4.33c1.67,1.03,4.1,1.67,6.3,1.67s2.83-.47,2.83-1.23c0-2.43-10.67,.33-10.67-6.9,0-3.4,3.13-6,8.8-6,2.53,0,5.33,.53,7.14,1.53l-1.9,4.3c-1.8-1-3.6-1.33-5.2-1.33-2.13,0-2.9,.6-2.9,1.27,0,2.5,10.64-.2,10.64,6.97,0,3.33-3.07,5.94-8.94,5.94-3.07,0-6.23-.77-8-1.87Z"/><path class="e" d="M201.44,55.15l1.9-4.33c1.67,1.03,4.1,1.67,6.3,1.67s2.83-.47,2.83-1.23c0-2.43-10.67,.33-10.67-6.9,0-3.4,3.13-6,8.8-6,2.53,0,5.33,.53,7.14,1.53l-1.9,4.3c-1.8-1-3.6-1.33-5.2-1.33-2.13,0-2.9,.6-2.9,1.27,0,2.5,10.64-.2,10.64,6.97,0,3.33-3.07,5.94-8.94,5.94-3.07,0-6.23-.77-8-1.87Z"/><path class="e" d="M238.05,46.68v10.04h-5.9v-2.33c-.9,1.73-2.7,2.63-5.33,2.63-4.33,0-6.73-2.43-6.73-5.57,0-3.33,2.43-5.4,8.04-5.4h3.6c-.1-1.83-1.33-2.87-3.83-2.87-1.73,0-3.67,.6-4.9,1.57l-2.13-4.3c2.07-1.37,5.13-2.1,7.97-2.1,5.87,0,9.24,2.6,9.24,8.33Zm-6.33,4.23v-1.57h-2.73c-2.03,0-2.77,.73-2.77,1.83s.87,1.83,2.37,1.83c1.4,0,2.63-.67,3.13-2.1Z"/><path class="e" d="M261.75,38.64v14.77c0,6.83-3.87,10.07-10.6,10.07-3.47,0-6.77-.8-8.97-2.37l2.3-4.43c1.5,1.2,3.97,1.93,6.1,1.93,3.4,0,4.83-1.53,4.83-4.37v-.6c-1.23,1.43-3.07,2.13-5.37,2.13-4.8,0-8.87-3.4-8.87-8.74s4.07-8.7,8.87-8.7c2.5,0,4.43,.8,5.67,2.5v-2.2h6.03Zm-6.27,8.4c0-2.2-1.67-3.67-3.93-3.67s-3.97,1.47-3.97,3.67,1.7,3.7,3.97,3.7,3.93-1.5,3.93-3.7Z"/><path class="e" d="M284.18,49.28h-13.14c.53,1.83,2.1,2.9,4.43,2.9,1.77,0,2.93-.5,4.17-1.57l3.33,3.47c-1.73,1.93-4.27,2.93-7.7,2.93-6.43,0-10.6-3.97-10.6-9.37s4.23-9.3,9.94-9.3c5.33,0,9.67,3.4,9.67,9.37,0,.47-.07,1.07-.1,1.57Zm-13.24-3.33h7.4c-.33-1.9-1.73-3.1-3.7-3.1s-3.33,1.2-3.7,3.1Z"/></g><rect class="f" x=".5" y="84.2" width="838" height="487.3"/><g><path class="j" d="M49.28,195.27h-7.24v-5.29h21.12v5.29h-7.21v18.29h-6.67v-18.29Z"/><path class="j" d="M62.35,204.4c0-5.49,4.35-9.4,10.31-9.4s10.31,3.91,10.31,9.4-4.28,9.47-10.31,9.47-10.31-3.94-10.31-9.47Zm14.15,0c0-2.76-1.65-4.31-3.84-4.31s-3.84,1.55-3.84,4.31,1.68,4.38,3.84,4.38,3.84-1.58,3.84-4.38Z"/><path class="j" d="M84.79,198.77c0-2.29,1.68-3.77,3.84-3.77s3.84,1.48,3.84,3.77-1.65,3.81-3.84,3.81-3.84-1.58-3.84-3.81Zm0,11.29c0-2.29,1.68-3.77,3.84-3.77s3.84,1.48,3.84,3.77-1.65,3.81-3.84,3.81-3.84-1.58-3.84-3.81Z"/><path d="M211.68,211.98l1.92-4.38c1.68,1.04,4.14,1.68,6.37,1.68s2.86-.47,2.86-1.25c0-2.46-10.78,.34-10.78-6.97,0-3.44,3.17-6.06,8.89-6.06,2.56,0,5.39,.54,7.21,1.55l-1.92,4.35c-1.82-1.01-3.64-1.35-5.26-1.35-2.16,0-2.93,.61-2.93,1.28,0,2.53,10.75-.2,10.75,7.04,0,3.37-3.1,6-9.03,6-3.1,0-6.3-.77-8.09-1.89Z"/><path d="M248.67,203.42v10.14h-5.96v-2.36c-.91,1.75-2.73,2.66-5.39,2.66-4.38,0-6.81-2.46-6.81-5.63,0-3.37,2.46-5.46,8.12-5.46h3.64c-.1-1.85-1.35-2.9-3.87-2.9-1.75,0-3.71,.61-4.95,1.58l-2.16-4.35c2.09-1.38,5.19-2.12,8.05-2.12,5.93,0,9.33,2.63,9.33,8.42Zm-6.4,4.28v-1.58h-2.76c-2.06,0-2.8,.74-2.8,1.85s.88,1.85,2.39,1.85c1.42,0,2.66-.67,3.17-2.12Z"/><path d="M283.88,203.12v10.44h-6.4v-9.4c0-2.63-1.08-3.74-2.76-3.74-1.85,0-3.2,1.25-3.2,4.08v9.06h-6.4v-9.4c0-2.63-1.04-3.74-2.76-3.74-1.89,0-3.23,1.25-3.23,4.08v9.06h-6.4v-18.26h6.1v1.92c1.38-1.48,3.3-2.22,5.46-2.22,2.49,0,4.62,.91,5.9,2.86,1.45-1.82,3.71-2.86,6.33-2.86,4.25,0,7.38,2.46,7.38,8.12Z"/><path d="M319.63,204.2c0,6.23-3.17,9.64-7.41,9.64-2.39,0-4.14-1.01-4.95-2.93-1.04,1.85-2.83,2.93-5.46,2.93-3.98,0-7.48-3.34-7.48-8.46s3.44-8.42,7.48-8.42c2.02,0,3.57,.67,4.68,1.92v-1.65h5.49v10.28c0,1.52,.67,2.02,1.48,2.02,1.25,0,2.12-1.38,2.12-5.22,0-6.47-4.82-10.98-12.03-10.98s-12.06,4.99-12.06,11.72,4.75,11.79,11.93,11.79c2.19,0,4.51-.44,6.7-1.48l1.25,3.6c-2.02,1.01-5.12,1.62-7.95,1.62-9.94,0-16.41-6.67-16.41-15.53s6.5-15.46,16.54-15.46,16.07,6.37,16.07,14.62Zm-13.04,1.18c0-2.49-1.42-3.84-3.34-3.84s-3.3,1.38-3.3,3.84,1.38,3.87,3.3,3.87,3.34-1.35,3.34-3.87Z"/><path d="M335.06,195v5.76c-.57-.07-.98-.1-1.45-.1-2.59,0-4.38,1.31-4.38,4.51v8.39h-6.4v-18.26h6.1v2.19c1.31-1.65,3.44-2.49,6.13-2.49Z"/><path d="M356.08,206.05h-13.27c.54,1.85,2.12,2.93,4.48,2.93,1.79,0,2.96-.51,4.21-1.58l3.37,3.5c-1.75,1.95-4.31,2.96-7.78,2.96-6.5,0-10.71-4.01-10.71-9.47s4.28-9.4,10.04-9.4c5.39,0,9.77,3.44,9.77,9.47,0,.47-.07,1.08-.1,1.58Zm-13.38-3.37h7.48c-.34-1.92-1.75-3.13-3.74-3.13s-3.37,1.21-3.74,3.13Z"/><path d="M375.76,203.42v10.14h-5.96v-2.36c-.91,1.75-2.73,2.66-5.39,2.66-4.38,0-6.81-2.46-6.81-5.63,0-3.37,2.46-5.46,8.12-5.46h3.64c-.1-1.85-1.35-2.9-3.87-2.9-1.75,0-3.71,.61-4.95,1.58l-2.16-4.35c2.09-1.38,5.19-2.12,8.05-2.12,5.93,0,9.33,2.63,9.33,8.42Zm-6.4,4.28v-1.58h-2.76c-2.06,0-2.8,.74-2.8,1.85s.88,1.85,2.39,1.85c1.42,0,2.66-.67,3.17-2.12Z"/><path d="M378.93,204.4c0-5.49,4.35-9.4,10.48-9.4,4.14,0,7.31,1.85,8.56,5.02l-4.95,2.53c-.88-1.72-2.16-2.46-3.64-2.46-2.22,0-3.98,1.55-3.98,4.31s1.75,4.38,3.98,4.38c1.48,0,2.76-.74,3.64-2.46l4.95,2.53c-1.25,3.17-4.41,5.02-8.56,5.02-6.13,0-10.48-3.91-10.48-9.47Z"/><path d="M419.76,203.12v10.44h-6.4v-9.4c0-2.63-1.14-3.74-3-3.74-2.05,0-3.64,1.28-3.64,4.31v8.83h-6.4v-25h6.4v8.42c1.42-1.31,3.34-1.99,5.49-1.99,4.28,0,7.55,2.46,7.55,8.12Z"/><path d="M442.61,206.05h-13.27c.54,1.85,2.12,2.93,4.48,2.93,1.79,0,2.96-.51,4.21-1.58l3.37,3.5c-1.75,1.95-4.31,2.96-7.78,2.96-6.5,0-10.71-4.01-10.71-9.47s4.28-9.4,10.04-9.4c5.39,0,9.77,3.44,9.77,9.47,0,.47-.07,1.08-.1,1.58Zm-13.38-3.37h7.48c-.34-1.92-1.75-3.13-3.74-3.13s-3.37,1.21-3.74,3.13Z"/><path d="M457.9,195v5.76c-.57-.07-.98-.1-1.45-.1-2.59,0-4.38,1.31-4.38,4.51v8.39h-6.4v-18.26h6.1v2.19c1.31-1.65,3.44-2.49,6.13-2.49Z"/><path d="M459.12,210.06c0-2.29,1.69-3.77,3.84-3.77s3.84,1.48,3.84,3.77-1.65,3.81-3.84,3.81-3.84-1.58-3.84-3.81Z"/><path d="M500.96,203.12v10.44h-6.4v-9.4c0-2.63-1.08-3.74-2.76-3.74-1.85,0-3.2,1.25-3.2,4.08v9.06h-6.4v-9.4c0-2.63-1.04-3.74-2.76-3.74-1.89,0-3.23,1.25-3.23,4.08v9.06h-6.4v-18.26h6.1v1.92c1.38-1.48,3.3-2.22,5.46-2.22,2.49,0,4.62,.91,5.9,2.86,1.45-1.82,3.71-2.86,6.33-2.86,4.25,0,7.38,2.46,7.38,8.12Z"/><path d="M523.84,206.05h-13.27c.54,1.85,2.12,2.93,4.48,2.93,1.79,0,2.96-.51,4.21-1.58l3.37,3.5c-1.75,1.95-4.31,2.96-7.78,2.96-6.5,0-10.71-4.01-10.71-9.47s4.28-9.4,10.04-9.4c5.39,0,9.77,3.44,9.77,9.47,0,.47-.07,1.08-.1,1.58Zm-13.38-3.37h7.48c-.34-1.92-1.75-3.13-3.74-3.13s-3.37,1.21-3.74,3.13Z"/></g><line class="h" x1="40.6" y1="238.4" x2="798.4" y2="238.4"/><g><path class="j" d="M50.93,122.13v5.19h10.41v5.15h-10.41v8.09h-6.67v-23.58h18.5v5.15h-11.83Z"/><path class="j" d="M77.48,122v5.76c-.57-.07-.98-.1-1.45-.1-2.59,0-4.38,1.31-4.38,4.51v8.39h-6.4v-18.26h6.1v2.19c1.31-1.65,3.44-2.49,6.13-2.49Z"/><path class="j" d="M78.8,131.4c0-5.49,4.35-9.4,10.31-9.4s10.31,3.91,10.31,9.4-4.28,9.47-10.31,9.47-10.31-3.94-10.31-9.47Zm14.15,0c0-2.76-1.65-4.31-3.84-4.31s-3.84,1.55-3.84,4.31,1.68,4.38,3.84,4.38,3.84-1.58,3.84-4.38Z"/><path class="j" d="M133.55,130.12v10.44h-6.4v-9.4c0-2.63-1.08-3.74-2.76-3.74-1.85,0-3.2,1.25-3.2,4.08v9.06h-6.4v-9.4c0-2.63-1.04-3.74-2.76-3.74-1.89,0-3.23,1.25-3.23,4.08v9.06h-6.4v-18.26h6.1v1.92c1.38-1.48,3.3-2.22,5.46-2.22,2.49,0,4.62,.91,5.9,2.86,1.45-1.82,3.71-2.86,6.33-2.86,4.25,0,7.38,2.46,7.38,8.12Z"/><path class="j" d="M136.45,125.77c0-2.29,1.68-3.77,3.84-3.77s3.84,1.48,3.84,3.77-1.65,3.81-3.84,3.81-3.84-1.58-3.84-3.81Zm0,11.29c0-2.29,1.68-3.77,3.84-3.77s3.84,1.48,3.84,3.77-1.65,3.81-3.84,3.81-3.84-1.58-3.84-3.81Z"/><path class="i" d="M213.16,137.53l3.03-3.64c1.28,1.72,2.7,2.59,4.38,2.59,2.19,0,3.34-1.31,3.34-3.91v-11.22h-8.29v-4.38h13.71v15.3c0,5.83-2.93,8.69-8.49,8.69-3.17,0-5.96-1.21-7.68-3.44Z"/><path class="i" d="M233.71,116.98c0-1.65,1.31-2.93,3.27-2.93s3.27,1.21,3.27,2.83c0,1.75-1.31,3.03-3.27,3.03s-3.27-1.28-3.27-2.93Zm.64,5.46h5.26v18.13h-5.26v-18.13Z"/><path class="i" d="M244.5,115.56h5.26v25h-5.26v-25Z"/><path class="i" d="M254.64,115.56h5.26v25h-5.26v-25Z"/><path class="i" d="M290.01,124.66l-11.22,4.11,11.22,4.08v4.21l-16.04-6.1v-4.38l16.04-6.1v4.18Z"/><path class="i" d="M288.94,146.36l1.42-3.81c.57,.4,1.35,.64,2.22,.64,1.31,0,2.16-.84,2.16-2.63v-18.13h5.26v18.09c0,4.18-2.46,6.84-6.84,6.84-1.62,0-3.2-.3-4.21-1.01Zm5.15-29.38c0-1.65,1.31-2.93,3.27-2.93s3.27,1.21,3.27,2.83c0,1.75-1.31,3.03-3.27,3.03s-3.27-1.28-3.27-2.93Z"/><path class="i" d="M304.2,116.98c0-1.65,1.31-2.93,3.27-2.93s3.27,1.21,3.27,2.83c0,1.75-1.31,3.03-3.27,3.03s-3.27-1.28-3.27-2.93Zm.64,5.46h5.26v18.13h-5.26v-18.13Z"/><path class="i" d="M314.98,115.56h5.26v25h-5.26v-25Z"/><path class="i" d="M325.12,115.56h5.26v25h-5.26v-25Z"/><path class="i" d="M366.39,131.33c0,6.03-2.76,9.47-6.91,9.47-2.29,0-3.91-1.01-4.62-2.93-1.18,1.89-3.1,2.93-5.76,2.93-4.35,0-7.78-3.44-7.78-8.52s3.4-8.49,7.78-8.49c2.22,0,3.98,.77,5.19,2.22v-1.99h4.58v10.92c0,1.62,.71,2.16,1.62,2.16,1.55,0,2.49-1.79,2.49-5.69,0-6.84-5.05-11.56-12.53-11.56s-12.53,5.12-12.53,12.16,4.92,12.26,12.4,12.26c2.12,0,4.51-.44,6.64-1.48l1.08,3.1c-2.06,1.04-5.05,1.62-7.72,1.62-9.74,0-16.17-6.6-16.17-15.5s6.5-15.36,16.31-15.36,15.94,6.23,15.94,14.69Zm-12.03,.94c0-2.93-1.79-4.58-4.21-4.58s-4.18,1.72-4.18,4.58,1.72,4.65,4.18,4.65,4.21-1.68,4.21-4.65Z"/><path class="i" d="M375.9,122.84h4.65v4.04h-4.51v13.68h-5.26v-13.68h-2.8v-4.04h2.8v-.81c0-4.08,2.49-6.74,7.01-6.74,1.48,0,3.03,.3,4.01,.98l-1.38,3.81c-.57-.4-1.31-.64-2.12-.64-1.55,0-2.39,.84-2.39,2.63v.77Z"/><path class="i" d="M398.87,130.22v10.34h-4.92v-2.26c-.98,1.65-2.86,2.53-5.53,2.53-4.25,0-6.77-2.36-6.77-5.49s2.26-5.42,7.78-5.42h4.18c0-2.26-1.35-3.57-4.18-3.57-1.92,0-3.91,.64-5.22,1.68l-1.89-3.67c1.99-1.42,4.92-2.19,7.82-2.19,5.53,0,8.73,2.56,8.73,8.05Zm-5.26,4.62v-1.85h-3.6c-2.46,0-3.23,.91-3.23,2.12,0,1.31,1.11,2.19,2.96,2.19,1.75,0,3.27-.81,3.87-2.46Z"/><path class="i" d="M411.41,133.46l-2.53,2.49v4.62h-5.26v-25h5.26v14.15l7.68-7.28h6.27l-7.55,7.68,8.22,10.44h-6.37l-5.73-7.11Z"/><path class="i" d="M442.74,132.98h-13.71c.51,2.26,2.43,3.64,5.19,3.64,1.92,0,3.3-.57,4.55-1.75l2.8,3.03c-1.68,1.92-4.21,2.93-7.48,2.93-6.27,0-10.34-3.94-10.34-9.33s4.14-9.33,9.67-9.33,9.43,3.57,9.43,9.4c0,.4-.07,.98-.1,1.42Zm-13.78-3.07h8.93c-.37-2.29-2.09-3.77-4.45-3.77s-4.11,1.45-4.48,3.77Z"/><path class="i" d="M465.05,122.44v15.09c0,6.74-3.64,9.84-10.17,9.84-3.44,0-6.77-.84-8.89-2.49l2.09-3.77c1.55,1.25,4.08,2.06,6.4,2.06,3.71,0,5.32-1.68,5.32-4.95v-.77c-1.38,1.52-3.37,2.26-5.73,2.26-5.02,0-9.06-3.47-9.06-8.76s4.04-8.76,9.06-8.76c2.53,0,4.62,.84,6,2.59v-2.32h4.99Zm-5.19,8.49c0-2.66-1.99-4.45-4.75-4.45s-4.78,1.79-4.78,4.45,2.02,4.45,4.78,4.45,4.75-1.79,4.75-4.45Z"/><path class="i" d="M500.56,130.19v10.38h-5.26v-9.57c0-2.93-1.31-4.28-3.44-4.28-2.36,0-4.01,1.52-4.01,4.75v9.1h-5.26v-9.57c0-2.93-1.25-4.28-3.44-4.28-2.33,0-3.98,1.52-3.98,4.75v9.1h-5.26v-18.13h5.02v2.09c1.35-1.55,3.37-2.36,5.69-2.36,2.53,0,4.68,.98,5.96,2.96,1.45-1.85,3.81-2.96,6.54-2.96,4.31,0,7.41,2.49,7.41,8.02Z"/><path class="i" d="M521.31,130.22v10.34h-4.92v-2.26c-.98,1.65-2.86,2.53-5.53,2.53-4.25,0-6.77-2.36-6.77-5.49s2.26-5.42,7.78-5.42h4.18c0-2.26-1.35-3.57-4.18-3.57-1.92,0-3.91,.64-5.22,1.68l-1.89-3.67c1.99-1.42,4.92-2.19,7.82-2.19,5.53,0,8.73,2.56,8.73,8.05Zm-5.26,4.62v-1.85h-3.61c-2.46,0-3.23,.91-3.23,2.12,0,1.31,1.11,2.19,2.96,2.19,1.75,0,3.27-.81,3.88-2.46Z"/><path class="i" d="M525.43,116.98c0-1.65,1.31-2.93,3.27-2.93s3.27,1.21,3.27,2.83c0,1.75-1.31,3.03-3.27,3.03s-3.27-1.28-3.27-2.93Zm.64,5.46h5.26v18.13h-5.26v-18.13Z"/><path class="i" d="M536.21,115.56h5.26v25h-5.26v-25Z"/><path class="i" d="M545.07,137.53c0-1.95,1.45-3.23,3.27-3.23s3.27,1.28,3.27,3.23-1.45,3.3-3.27,3.3-3.27-1.38-3.27-3.3Z"/><path class="i" d="M553.59,131.5c0-5.46,4.21-9.33,10.11-9.33,3.81,0,6.81,1.65,8.12,4.62l-4.08,2.19c-.98-1.72-2.43-2.49-4.08-2.49-2.66,0-4.75,1.85-4.75,5.02s2.09,5.02,4.75,5.02c1.65,0,3.1-.74,4.08-2.49l4.08,2.22c-1.31,2.9-4.31,4.58-8.12,4.58-5.9,0-10.11-3.87-10.11-9.33Z"/><path class="i" d="M573.27,131.5c0-5.46,4.21-9.33,9.97-9.33s9.94,3.87,9.94,9.33-4.18,9.33-9.94,9.33-9.97-3.87-9.97-9.33Zm14.59,0c0-3.13-1.99-5.02-4.62-5.02s-4.65,1.89-4.65,5.02,2.02,5.02,4.65,5.02,4.62-1.89,4.62-5.02Z"/><path class="i" d="M627.31,130.19v10.38h-5.26v-9.57c0-2.93-1.31-4.28-3.44-4.28-2.36,0-4.01,1.52-4.01,4.75v9.1h-5.26v-9.57c0-2.93-1.25-4.28-3.44-4.28-2.32,0-3.98,1.52-3.98,4.75v9.1h-5.26v-18.13h5.02v2.09c1.35-1.55,3.37-2.36,5.69-2.36,2.53,0,4.68,.98,5.96,2.96,1.45-1.85,3.81-2.96,6.54-2.96,4.31,0,7.41,2.49,7.41,8.02Z"/><path class="i" d="M647.73,126.58v4.38l-16.04,6.1v-4.21l11.22-4.08-11.22-4.11v-4.18l16.04,6.1Z"/></g><line class="h" x1="40.6" y1="165.4" x2="798.4" y2="165.4"/><g><path class="j" d="M42.61,284.62l2.19-4.92c2.09,1.38,5.05,2.32,7.78,2.32s3.84-.77,3.84-1.92c0-3.74-13.41-1.01-13.41-9.77,0-4.21,3.44-7.65,10.44-7.65,3.07,0,6.23,.71,8.56,2.06l-2.06,4.95c-2.26-1.21-4.48-1.82-6.54-1.82-2.8,0-3.81,.94-3.81,2.12,0,3.6,13.38,.91,13.38,9.6,0,4.11-3.44,7.61-10.44,7.61-3.87,0-7.72-1.04-9.94-2.59Z"/><path class="j" d="M84.96,268.48v18.26h-6.1v-1.95c-1.38,1.52-3.34,2.26-5.42,2.26-4.48,0-7.75-2.56-7.75-8.36v-10.21h6.4v9.16c0,2.83,1.11,3.94,3.03,3.94s3.44-1.25,3.44-4.31v-8.79h6.4Z"/><path class="j" d="M109.52,277.57c0,5.83-4.01,9.47-8.96,9.47-2.39,0-4.18-.67-5.39-2.12v1.82h-6.1v-25h6.4v8.32c1.25-1.28,2.96-1.89,5.09-1.89,4.95,0,8.96,3.6,8.96,9.4Zm-6.47,0c0-2.76-1.68-4.31-3.84-4.31s-3.84,1.55-3.84,4.31,1.68,4.38,3.84,4.38,3.84-1.58,3.84-4.38Z"/><path class="j" d="M107.27,292.63l1.62-4.55c.54,.34,1.25,.54,1.99,.54,1.11,0,1.89-.74,1.89-2.39v-17.76h6.4v17.79c0,4.45-2.73,7.31-7.45,7.31-1.68,0-3.34-.3-4.45-.94Zm4.78-29.58c0-1.92,1.55-3.4,3.91-3.4s3.91,1.38,3.91,3.3c0,2.02-1.55,3.5-3.91,3.5s-3.91-1.48-3.91-3.4Z"/><path class="j" d="M141.83,279.23h-13.27c.54,1.85,2.12,2.93,4.48,2.93,1.79,0,2.96-.51,4.21-1.58l3.37,3.5c-1.75,1.95-4.31,2.96-7.78,2.96-6.5,0-10.71-4.01-10.71-9.47s4.28-9.4,10.04-9.4c5.39,0,9.77,3.44,9.77,9.47,0,.47-.07,1.08-.1,1.58Zm-13.38-3.37h7.48c-.34-1.92-1.75-3.13-3.74-3.13s-3.37,1.21-3.74,3.13Z"/><path class="j" d="M143.76,277.57c0-5.49,4.35-9.4,10.48-9.4,4.14,0,7.31,1.85,8.56,5.02l-4.95,2.53c-.88-1.72-2.16-2.46-3.64-2.46-2.22,0-3.98,1.55-3.98,4.31s1.75,4.38,3.98,4.38c1.48,0,2.76-.74,3.64-2.46l4.95,2.53c-1.25,3.17-4.41,5.02-8.56,5.02-6.13,0-10.48-3.91-10.48-9.47Z"/><path class="j" d="M178.12,286c-1.11,.71-2.76,1.04-4.45,1.04-4.68,0-7.41-2.29-7.41-6.97v-6.13h-2.66v-4.78h2.66v-4.75h6.4v4.75h4.18v4.78h-4.18v6.06c0,1.35,.77,2.09,1.92,2.09,.71,0,1.42-.2,1.95-.57l1.58,4.48Z"/><path class="j" d="M179.44,271.95c0-2.29,1.68-3.77,3.84-3.77s3.84,1.48,3.84,3.77-1.65,3.81-3.84,3.81-3.84-1.58-3.84-3.81Zm0,11.29c0-2.29,1.68-3.77,3.84-3.77s3.84,1.48,3.84,3.77-1.65,3.81-3.84,3.81-3.84-1.58-3.84-3.81Z"/><path class="i" d="M246.11,263.15l-7.72,23.58h-5.86l-5.19-15.97-5.36,15.97h-5.83l-7.75-23.58h5.66l5.32,16.58,5.56-16.58h5.05l5.39,16.71,5.49-16.71h5.22Z"/><path class="i" d="M263.46,276.4v10.34h-4.92v-2.26c-.98,1.65-2.86,2.53-5.53,2.53-4.25,0-6.77-2.36-6.77-5.49s2.26-5.42,7.78-5.42h4.18c0-2.26-1.35-3.57-4.18-3.57-1.92,0-3.91,.64-5.22,1.68l-1.89-3.67c1.99-1.42,4.92-2.19,7.82-2.19,5.53,0,8.73,2.56,8.73,8.05Zm-5.26,4.62v-1.85h-3.6c-2.46,0-3.23,.91-3.23,2.12,0,1.31,1.11,2.19,2.96,2.19,1.75,0,3.27-.81,3.87-2.46Z"/><path class="i" d="M286.75,276.36v10.38h-5.26v-9.57c0-2.93-1.35-4.28-3.67-4.28-2.53,0-4.35,1.55-4.35,4.89v8.96h-5.26v-18.13h5.02v2.12c1.42-1.55,3.54-2.39,6-2.39,4.28,0,7.51,2.49,7.51,8.02Z"/><path class="i" d="M303.19,285.86c-1.08,.77-2.66,1.15-4.28,1.15-4.28,0-6.77-2.19-6.77-6.5v-7.45h-2.8v-4.04h2.8v-4.41h5.26v4.41h4.51v4.04h-4.51v7.38c0,1.55,.84,2.39,2.26,2.39,.77,0,1.55-.24,2.12-.67l1.42,3.71Z"/><path class="i" d="M323.24,279.16h-13.71c.51,2.26,2.43,3.64,5.19,3.64,1.92,0,3.3-.57,4.55-1.75l2.8,3.03c-1.68,1.92-4.21,2.93-7.48,2.93-6.27,0-10.34-3.94-10.34-9.33s4.14-9.33,9.67-9.33,9.43,3.57,9.43,9.4c0,.4-.07,.98-.1,1.42Zm-13.78-3.07h8.93c-.37-2.29-2.09-3.77-4.45-3.77s-4.11,1.45-4.48,3.77Z"/><path class="i" d="M345.3,261.74v25h-5.02v-2.09c-1.31,1.58-3.23,2.36-5.66,2.36-5.12,0-9.06-3.64-9.06-9.33s3.94-9.33,9.06-9.33c2.22,0,4.11,.71,5.42,2.19v-8.79h5.26Zm-5.15,15.94c0-3.13-2.02-5.02-4.62-5.02s-4.65,1.89-4.65,5.02,2.02,5.02,4.65,5.02,4.62-1.89,4.62-5.02Z"/><path class="i" d="M371.38,285.86c-1.08,.77-2.66,1.15-4.28,1.15-4.28,0-6.77-2.19-6.77-6.5v-7.45h-2.8v-4.04h2.8v-4.41h5.26v4.41h4.51v4.04h-4.51v7.38c0,1.55,.84,2.39,2.26,2.39,.77,0,1.55-.24,2.12-.67l1.42,3.71Z"/><path class="i" d="M372.43,277.68c0-5.46,4.21-9.33,9.97-9.33s9.94,3.87,9.94,9.33-4.18,9.33-9.94,9.33-9.97-3.87-9.97-9.33Zm14.59,0c0-3.13-1.99-5.02-4.62-5.02s-4.65,1.89-4.65,5.02,2.02,5.02,4.65,5.02,4.62-1.89,4.62-5.02Z"/><path class="i" d="M416.63,268.34v4.85c-.44-.03-.78-.07-1.18-.07-2.9,0-4.82,1.58-4.82,5.05v8.56h-5.26v-18.13h5.02v2.39c1.28-1.75,3.44-2.66,6.23-2.66Z"/><path class="i" d="M437.25,279.16h-13.71c.5,2.26,2.43,3.64,5.19,3.64,1.92,0,3.3-.57,4.55-1.75l2.8,3.03c-1.69,1.92-4.21,2.93-7.48,2.93-6.27,0-10.34-3.94-10.34-9.33s4.14-9.33,9.67-9.33,9.43,3.57,9.43,9.4c0,.4-.07,.98-.1,1.42Zm-13.78-3.07h8.93c-.37-2.29-2.09-3.77-4.45-3.77s-4.11,1.45-4.48,3.77Z"/><path class="i" d="M456.39,276.4v10.34h-4.92v-2.26c-.98,1.65-2.86,2.53-5.53,2.53-4.25,0-6.77-2.36-6.77-5.49s2.26-5.42,7.78-5.42h4.18c0-2.26-1.35-3.57-4.18-3.57-1.92,0-3.91,.64-5.22,1.68l-1.89-3.67c1.99-1.42,4.92-2.19,7.82-2.19,5.53,0,8.73,2.56,8.73,8.05Zm-5.26,4.62v-1.85h-3.61c-2.46,0-3.23,.91-3.23,2.12,0,1.31,1.11,2.19,2.96,2.19,1.75,0,3.27-.81,3.88-2.46Z"/><path class="i" d="M460,277.68c0-5.46,4.21-9.33,10.11-9.33,3.81,0,6.81,1.65,8.12,4.62l-4.08,2.19c-.98-1.72-2.43-2.49-4.08-2.49-2.66,0-4.75,1.85-4.75,5.02s2.09,5.02,4.75,5.02c1.65,0,3.1-.74,4.08-2.49l4.08,2.22c-1.31,2.9-4.31,4.58-8.12,4.58-5.9,0-10.11-3.87-10.11-9.33Z"/><path class="i" d="M499.65,276.36v10.38h-5.26v-9.57c0-2.93-1.35-4.28-3.67-4.28-2.53,0-4.35,1.55-4.35,4.89v8.96h-5.26v-25h5.26v8.76c1.42-1.42,3.44-2.16,5.76-2.16,4.28,0,7.51,2.49,7.51,8.02Z"/><path class="i" d="M512.59,277.68c0-5.46,4.21-9.33,9.97-9.33s9.94,3.87,9.94,9.33-4.18,9.33-9.94,9.33-9.97-3.87-9.97-9.33Zm14.59,0c0-3.13-1.99-5.02-4.62-5.02s-4.65,1.89-4.65,5.02,2.02,5.02,4.65,5.02,4.62-1.89,4.62-5.02Z"/><path class="i" d="M554.27,268.61v18.13h-4.99v-2.16c-1.38,1.58-3.4,2.43-5.63,2.43-4.55,0-7.75-2.56-7.75-8.15v-10.24h5.26v9.47c0,3.03,1.35,4.38,3.67,4.38s4.18-1.55,4.18-4.89v-8.96h5.26Z"/><path class="i" d="M570.85,285.86c-1.08,.77-2.66,1.15-4.28,1.15-4.28,0-6.77-2.19-6.77-6.5v-7.45h-2.8v-4.04h2.8v-4.41h5.26v4.41h4.51v4.04h-4.51v7.38c0,1.55,.84,2.39,2.26,2.39,.77,0,1.55-.24,2.12-.67l1.42,3.71Z"/></g><g><path class="j" d="M44.31,342.62h9.22c6.64,0,11.2,4,11.2,10.15s-4.55,10.15-11.2,10.15h-9.22v-20.3Zm8.99,16.45c4.03,0,6.67-2.41,6.67-6.29s-2.64-6.29-6.67-6.29h-4.29v12.59h4.29Z"/><path class="j" d="M83.14,356.39h-11.81c.44,1.94,2.09,3.13,4.47,3.13,1.65,0,2.84-.49,3.92-1.51l2.41,2.61c-1.45,1.65-3.63,2.52-6.44,2.52-5.4,0-8.91-3.39-8.91-8.03s3.57-8.04,8.33-8.04,8.12,3.07,8.12,8.09c0,.35-.06,.84-.09,1.22Zm-11.86-2.64h7.69c-.32-1.97-1.8-3.25-3.83-3.25s-3.54,1.25-3.86,3.25Z"/><path class="j" d="M99.62,354.02v8.91h-4.24v-1.94c-.84,1.42-2.47,2.18-4.76,2.18-3.65,0-5.83-2.03-5.83-4.73s1.94-4.67,6.7-4.67h3.6c0-1.94-1.16-3.07-3.6-3.07-1.65,0-3.36,.55-4.5,1.45l-1.62-3.16c1.71-1.22,4.23-1.89,6.73-1.89,4.76,0,7.51,2.2,7.51,6.93Zm-4.53,3.97v-1.6h-3.1c-2.12,0-2.78,.78-2.78,1.83,0,1.13,.96,1.89,2.55,1.89,1.51,0,2.81-.7,3.34-2.12Z"/><path class="j" d="M113.39,347.08v4.18c-.38-.03-.67-.06-1.02-.06-2.49,0-4.15,1.36-4.15,4.35v7.37h-4.53v-15.61h4.32v2.06c1.1-1.51,2.96-2.29,5.37-2.29Z"/><path class="j" d="M123.13,360.92l1.6-3.54c1.71,1.25,4.26,2.12,6.7,2.12,2.78,0,3.92-.93,3.92-2.18,0-3.8-11.81-1.19-11.81-8.73,0-3.45,2.78-6.32,8.56-6.32,2.55,0,5.16,.61,7.05,1.8l-1.45,3.57c-1.89-1.07-3.83-1.6-5.63-1.6-2.78,0-3.86,1.04-3.86,2.32,0,3.74,11.81,1.16,11.81,8.62,0,3.39-2.81,6.29-8.62,6.29-3.22,0-6.47-.96-8.27-2.35Z"/><path class="j" d="M156.72,354.02v8.91h-4.24v-1.94c-.84,1.42-2.47,2.18-4.76,2.18-3.66,0-5.83-2.03-5.83-4.73s1.94-4.67,6.7-4.67h3.6c0-1.94-1.16-3.07-3.6-3.07-1.65,0-3.36,.55-4.5,1.45l-1.62-3.16c1.71-1.22,4.23-1.89,6.73-1.89,4.76,0,7.51,2.2,7.51,6.93Zm-4.53,3.97v-1.6h-3.1c-2.12,0-2.78,.78-2.78,1.83,0,1.13,.96,1.89,2.55,1.89,1.51,0,2.81-.7,3.34-2.12Z"/><path class="j" d="M187.17,353.99v8.93h-4.53v-8.24c0-2.52-1.13-3.68-2.96-3.68-2.03,0-3.45,1.31-3.45,4.09v7.83h-4.52v-8.24c0-2.52-1.07-3.68-2.96-3.68-2,0-3.42,1.31-3.42,4.09v7.83h-4.53v-15.61h4.32v1.8c1.16-1.33,2.9-2.03,4.9-2.03,2.18,0,4.03,.84,5.13,2.55,1.25-1.6,3.28-2.55,5.63-2.55,3.71,0,6.38,2.15,6.38,6.9Z"/><path class="j" d="M195.75,360.31c0,.75-.12,1.31-.78,2.9l-1.65,4.18h-2.87l1.28-4.61c-.96-.38-1.57-1.28-1.57-2.47,0-1.68,1.22-2.78,2.81-2.78s2.78,1.13,2.78,2.78Z"/><path class="j" d="M62.79,415.04l-.03-12.18-5.98,10.04h-2.12l-5.95-9.78v11.92h-4.41v-20.3h3.89l7.6,12.62,7.48-12.62h3.86l.06,20.3h-4.41Z"/><path class="j" d="M87.18,399.44l-7.05,16.56c-1.51,3.77-3.65,4.9-6.47,4.9-1.6,0-3.34-.52-4.35-1.42l1.65-3.22c.7,.61,1.65,.99,2.55,.99,1.25,0,1.94-.55,2.55-1.94l.06-.15-6.76-15.72h4.67l4.38,10.59,4.41-10.59h4.35Z"/><path class="j" d="M113.19,406.11v8.93h-4.53v-8.24c0-2.52-1.16-3.68-3.16-3.68-2.18,0-3.74,1.33-3.74,4.21v7.72h-4.53v-15.61h4.32v1.83c1.22-1.33,3.05-2.06,5.16-2.06,3.68,0,6.47,2.15,6.47,6.9Z"/><path class="j" d="M131.08,406.14v8.91h-4.24v-1.94c-.84,1.42-2.47,2.18-4.76,2.18-3.66,0-5.83-2.03-5.83-4.73s1.94-4.67,6.7-4.67h3.6c0-1.94-1.16-3.07-3.6-3.07-1.65,0-3.36,.55-4.5,1.45l-1.62-3.16c1.71-1.22,4.23-1.89,6.73-1.89,4.76,0,7.51,2.2,7.51,6.93Zm-4.53,3.97v-1.6h-3.1c-2.12,0-2.78,.78-2.78,1.83,0,1.13,.96,1.89,2.55,1.89,1.51,0,2.81-.7,3.34-2.12Z"/><path class="j" d="M161.53,406.11v8.93h-4.53v-8.24c0-2.52-1.13-3.68-2.96-3.68-2.03,0-3.45,1.31-3.45,4.09v7.83h-4.52v-8.24c0-2.52-1.07-3.68-2.96-3.68-2,0-3.42,1.31-3.42,4.09v7.83h-4.53v-15.61h4.32v1.8c1.16-1.33,2.9-2.03,4.9-2.03,2.18,0,4.03,.84,5.13,2.55,1.25-1.6,3.28-2.55,5.63-2.55,3.71,0,6.38,2.15,6.38,6.9Z"/><path class="j" d="M180.96,408.52h-11.81c.44,1.94,2.09,3.13,4.47,3.13,1.65,0,2.84-.49,3.92-1.51l2.41,2.61c-1.45,1.65-3.63,2.52-6.44,2.52-5.4,0-8.91-3.39-8.91-8.03s3.57-8.04,8.33-8.04,8.12,3.07,8.12,8.09c0,.35-.06,.84-.09,1.22Zm-11.86-2.64h7.69c-.32-1.97-1.8-3.25-3.83-3.25s-3.54,1.25-3.86,3.25Z"/><path class="j" d="M191.71,394.74c0-1.42,1.13-2.52,2.81-2.52s2.81,1.04,2.81,2.44c0,1.51-1.13,2.61-2.81,2.61s-2.81-1.1-2.81-2.52Zm.55,4.7h4.53v15.61h-4.53v-15.61Z"/><path class="j" d="M199.49,413.59l1.51-3.25c1.39,.9,3.51,1.51,5.42,1.51,2.09,0,2.87-.55,2.87-1.42,0-2.55-9.43,.06-9.43-6.18,0-2.96,2.67-5.05,7.22-5.05,2.15,0,4.52,.49,6,1.36l-1.51,3.22c-1.54-.87-3.08-1.16-4.5-1.16-2.03,0-2.9,.64-2.9,1.45,0,2.67,9.43,.09,9.43,6.24,0,2.9-2.7,4.96-7.37,4.96-2.64,0-5.31-.73-6.76-1.68Z"/><path class="j" d="M222.05,412.43l2.61-3.13c1.1,1.48,2.32,2.23,3.77,2.23,1.89,0,2.87-1.13,2.87-3.36v-9.66h-7.14v-3.77h11.81v13.17c0,5.02-2.52,7.48-7.31,7.48-2.73,0-5.13-1.04-6.61-2.96Z"/><path class="j" d="M239.74,394.74c0-1.42,1.13-2.52,2.81-2.52s2.81,1.04,2.81,2.44c0,1.51-1.13,2.61-2.81,2.61s-2.81-1.1-2.81-2.52Zm.55,4.7h4.53v15.61h-4.53v-15.61Z"/><path class="j" d="M249.02,393.52h4.53v21.52h-4.53v-21.52Z"/><path class="j" d="M257.75,393.52h4.53v21.52h-4.53v-21.52Z"/><path class="j" d="M265.37,412.43c0-1.68,1.25-2.78,2.81-2.78s2.81,1.1,2.81,2.78-1.25,2.84-2.81,2.84-2.81-1.19-2.81-2.84Z"/><path class="j" d="M282.6,394.74h4.7v20.3h-4.7v-20.3Z"/><path class="j" d="M315.95,406.11v8.93h-4.53v-8.24c0-2.52-1.16-3.68-3.16-3.68-2.18,0-3.74,1.33-3.74,4.21v7.72h-4.53v-21.52h4.53v7.54c1.22-1.22,2.96-1.86,4.96-1.86,3.68,0,6.47,2.15,6.47,6.9Z"/><path class="j" d="M319.05,407.24c0-4.7,3.63-8.04,8.59-8.04s8.56,3.34,8.56,8.04-3.6,8.03-8.56,8.03-8.59-3.34-8.59-8.03Zm12.56,0c0-2.7-1.71-4.32-3.97-4.32s-4,1.62-4,4.32,1.74,4.32,4,4.32,3.97-1.62,3.97-4.32Z"/><path class="j" d="M356.2,407.24c0,4.9-3.39,8.03-7.77,8.03-1.94,0-3.54-.61-4.7-1.89v7.28h-4.53v-21.23h4.32v1.8c1.13-1.36,2.81-2.03,4.9-2.03,4.38,0,7.77,3.13,7.77,8.04Zm-4.58,0c0-2.7-1.71-4.32-3.97-4.32s-3.97,1.62-3.97,4.32,1.71,4.32,3.97,4.32,3.97-1.62,3.97-4.32Z"/><path class="j" d="M374.42,408.52h-11.81c.44,1.94,2.09,3.13,4.47,3.13,1.65,0,2.84-.49,3.92-1.51l2.41,2.61c-1.45,1.65-3.63,2.52-6.44,2.52-5.4,0-8.91-3.39-8.91-8.03s3.57-8.04,8.33-8.04,8.12,3.07,8.12,8.09c0,.35-.06,.84-.09,1.22Zm-11.86-2.64h7.69c-.32-1.97-1.8-3.25-3.83-3.25s-3.54,1.25-3.86,3.25Z"/><path class="j" d="M401.21,399.44l-7.05,16.56c-1.51,3.77-3.65,4.9-6.47,4.9-1.6,0-3.34-.52-4.35-1.42l1.65-3.22c.7,.61,1.65,.99,2.55,.99,1.25,0,1.94-.55,2.55-1.94l.06-.15-6.76-15.72h4.67l4.38,10.59,4.41-10.59h4.35Z"/><path class="j" d="M401.47,407.24c0-4.7,3.63-8.04,8.59-8.04s8.56,3.34,8.56,8.04-3.6,8.03-8.56,8.03-8.59-3.34-8.59-8.03Zm12.56,0c0-2.7-1.71-4.32-3.97-4.32s-4,1.62-4,4.32,1.74,4.32,4,4.32,3.97-1.62,3.97-4.32Z"/><path class="j" d="M437.34,399.44v15.61h-4.29v-1.86c-1.19,1.36-2.93,2.09-4.84,2.09-3.92,0-6.67-2.2-6.67-7.02v-8.82h4.52v8.15c0,2.61,1.16,3.77,3.16,3.77s3.6-1.33,3.6-4.21v-7.72h4.53Z"/><path class="j" d="M463.56,406.14v8.91h-4.23v-1.94c-.84,1.42-2.47,2.18-4.76,2.18-3.65,0-5.83-2.03-5.83-4.73s1.94-4.67,6.7-4.67h3.6c0-1.94-1.16-3.07-3.6-3.07-1.65,0-3.36,.55-4.5,1.45l-1.62-3.16c1.71-1.22,4.24-1.89,6.73-1.89,4.76,0,7.51,2.2,7.51,6.93Zm-4.52,3.97v-1.6h-3.1c-2.12,0-2.78,.78-2.78,1.83,0,1.13,.96,1.89,2.55,1.89,1.51,0,2.81-.7,3.34-2.12Z"/><path class="j" d="M477.33,399.21v4.18c-.38-.03-.67-.06-1.01-.06-2.5,0-4.15,1.36-4.15,4.35v7.37h-4.52v-15.61h4.32v2.06c1.1-1.51,2.96-2.29,5.37-2.29Z"/><path class="j" d="M495.08,408.52h-11.81c.43,1.94,2.09,3.13,4.47,3.13,1.65,0,2.84-.49,3.92-1.51l2.41,2.61c-1.45,1.65-3.62,2.52-6.44,2.52-5.39,0-8.91-3.39-8.91-8.03s3.57-8.04,8.33-8.04,8.12,3.07,8.12,8.09c0,.35-.06,.84-.09,1.22Zm-11.86-2.64h7.69c-.32-1.97-1.8-3.25-3.83-3.25s-3.54,1.25-3.86,3.25Z"/><path class="j" d="M522.29,393.52v21.52h-4.32v-1.8c-1.13,1.36-2.78,2.03-4.87,2.03-4.41,0-7.8-3.13-7.8-8.03s3.39-8.04,7.8-8.04c1.91,0,3.54,.61,4.67,1.89v-7.57h4.53Zm-4.44,13.72c0-2.7-1.74-4.32-3.97-4.32s-4,1.62-4,4.32,1.74,4.32,4,4.32,3.97-1.62,3.97-4.32Z"/><path class="j" d="M525.3,407.24c0-4.7,3.62-8.04,8.59-8.04s8.56,3.34,8.56,8.04-3.6,8.03-8.56,8.03-8.59-3.34-8.59-8.03Zm12.56,0c0-2.7-1.71-4.32-3.97-4.32s-4,1.62-4,4.32,1.74,4.32,4,4.32,3.97-1.62,3.97-4.32Z"/><path class="j" d="M544.9,394.74c0-1.42,1.13-2.52,2.81-2.52s2.81,1.04,2.81,2.44c0,1.51-1.13,2.61-2.81,2.61s-2.81-1.1-2.81-2.52Zm.55,4.7h4.52v15.61h-4.52v-15.61Z"/><path class="j" d="M570.13,406.11v8.93h-4.52v-8.24c0-2.52-1.16-3.68-3.16-3.68-2.18,0-3.74,1.33-3.74,4.21v7.72h-4.52v-15.61h4.32v1.83c1.22-1.33,3.05-2.06,5.16-2.06,3.68,0,6.47,2.15,6.47,6.9Z"/><path class="j" d="M590.49,399.44v13c0,5.8-3.13,8.47-8.76,8.47-2.96,0-5.83-.73-7.66-2.15l1.8-3.25c1.33,1.07,3.51,1.77,5.51,1.77,3.19,0,4.58-1.45,4.58-4.26v-.67c-1.19,1.31-2.9,1.94-4.93,1.94-4.32,0-7.8-2.99-7.8-7.54s3.48-7.54,7.8-7.54c2.17,0,3.97,.73,5.16,2.23v-2h4.29Zm-4.47,7.31c0-2.29-1.71-3.83-4.09-3.83s-4.12,1.54-4.12,3.83,1.74,3.83,4.12,3.83,4.09-1.54,4.09-3.83Z"/><path class="j" d="M627.96,399.44l-5.66,15.61h-4.35l-3.51-9.69-3.62,9.69h-4.35l-5.63-15.61h4.26l3.68,10.56,3.83-10.56h3.83l3.71,10.56,3.8-10.56h4Z"/><path class="j" d="M644.84,408.52h-11.81c.43,1.94,2.09,3.13,4.47,3.13,1.65,0,2.84-.49,3.92-1.51l2.41,2.61c-1.45,1.65-3.62,2.52-6.44,2.52-5.39,0-8.91-3.39-8.91-8.03s3.57-8.04,8.33-8.04,8.12,3.07,8.12,8.09c0,.35-.06,.84-.09,1.22Zm-11.86-2.64h7.69c-.32-1.97-1.8-3.25-3.83-3.25s-3.54,1.25-3.86,3.25Z"/><path class="j" d="M647.94,393.52h4.52v21.52h-4.52v-21.52Z"/><path class="j" d="M656.67,393.52h4.52v21.52h-4.52v-21.52Z"/><path class="j" d="M664.29,412.43c0-1.68,1.25-2.78,2.81-2.78s2.81,1.1,2.81,2.78-1.25,2.84-2.81,2.84-2.81-1.19-2.81-2.84Z"/><path class="j" d="M671.89,412.43c0-1.68,1.25-2.78,2.81-2.78s2.81,1.1,2.81,2.78-1.25,2.84-2.81,2.84-2.81-1.19-2.81-2.84Z"/><path class="j" d="M679.49,412.43c0-1.68,1.25-2.78,2.81-2.78s2.81,1.1,2.81,2.78-1.25,2.84-2.81,2.84-2.81-1.19-2.81-2.84Z"/></g><line class="h" x1="40.6" y1="311.57" x2="798.4" y2="311.57"/><line class="h" x1="40.6" y1="449.57" x2="798.4" y2="449.57"/><g><rect class="g" x="33.6" y="472.04" width="176.42" height="74.18" rx="7.59" ry="7.59"/><g><path class="e" d="M78.43,520.88l2.13-4.78c2.03,1.34,4.91,2.26,7.56,2.26s3.73-.75,3.73-1.87c0-3.63-13.03-.98-13.03-9.5,0-4.09,3.34-7.43,10.15-7.43,2.98,0,6.06,.69,8.32,2l-2,4.81c-2.19-1.18-4.36-1.77-6.35-1.77-2.72,0-3.7,.92-3.7,2.06,0,3.5,13,.88,13,9.33,0,3.99-3.34,7.4-10.15,7.4-3.77,0-7.5-1.02-9.66-2.52Z"/><path class="e" d="M118.97,515.64h-12.9c.52,1.8,2.06,2.85,4.35,2.85,1.74,0,2.88-.49,4.09-1.54l3.27,3.41c-1.7,1.9-4.19,2.88-7.56,2.88-6.32,0-10.41-3.9-10.41-9.2s4.16-9.14,9.76-9.14c5.24,0,9.5,3.34,9.5,9.2,0,.46-.07,1.05-.1,1.54Zm-13-3.27h7.27c-.33-1.87-1.7-3.05-3.63-3.05s-3.27,1.18-3.63,3.05Z"/><path class="e" d="M140.85,512.79v10.15h-6.22v-9.14c0-2.55-1.11-3.63-2.91-3.63-2,0-3.54,1.24-3.54,4.19v8.58h-6.22v-17.75h5.93v1.93c1.41-1.47,3.41-2.23,5.63-2.23,4.16,0,7.33,2.39,7.33,7.89Z"/><path class="e" d="M163.87,498.64v24.3h-5.93v-1.77c-1.18,1.41-2.91,2.06-5.21,2.06-4.85,0-8.74-3.54-8.74-9.2s3.9-9.14,8.74-9.14c2.06,0,3.73,.59,4.91,1.83v-8.09h6.22Zm-6.12,15.39c0-2.69-1.6-4.19-3.7-4.19s-3.73,1.51-3.73,4.19,1.6,4.26,3.73,4.26,3.7-1.54,3.7-4.26Z"/></g></g></g></g></g></svg>