<?xml version="1.0" encoding="UTF-8"?><svg xmlns="http://www.w3.org/2000/svg" viewBox="0 0 839 488.3"><defs><style>.e,.f{fill:#fff;}.g{fill:#1b73e7;}.f{stroke:gray;}.f,.h{stroke-miterlimit:10;}.h{fill:none;stroke:#e6e6e6;}.i{fill:#404040;}.j{fill:#666;}</style></defs><g id="a"/><g id="b"><g id="c"><g id="d"><rect class="f" x=".5" y=".5" width="838" height="487.3"/><g><path class="j" d="M49.28,111.57h-7.24v-5.29h21.12v5.29h-7.21v18.29h-6.67v-18.29Z"/><path class="j" d="M62.35,120.7c0-5.49,4.35-9.4,10.31-9.4s10.31,3.91,10.31,9.4-4.28,9.47-10.31,9.47-10.31-3.94-10.31-9.47Zm14.15,0c0-2.76-1.65-4.31-3.84-4.31s-3.84,1.55-3.84,4.31,1.68,4.38,3.84,4.38,3.84-1.58,3.84-4.38Z"/><path class="j" d="M84.79,115.07c0-2.29,1.68-3.77,3.84-3.77s3.84,1.48,3.84,3.77-1.65,3.81-3.84,3.81-3.84-1.58-3.84-3.81Zm0,11.29c0-2.29,1.68-3.77,3.84-3.77s3.84,1.48,3.84,3.77-1.65,3.81-3.84,3.81-3.84-1.58-3.84-3.81Z"/><path class="i" d="M210.53,126.83l3.03-3.64c1.28,1.72,2.7,2.59,4.38,2.59,2.19,0,3.34-1.31,3.34-3.91v-11.22h-8.29v-4.38h13.71v15.3c0,5.83-2.93,8.69-8.49,8.69-3.17,0-5.96-1.21-7.68-3.44Z"/><path class="i" d="M231.08,106.28c0-1.65,1.31-2.93,3.27-2.93s3.27,1.21,3.27,2.83c0,1.75-1.31,3.03-3.27,3.03s-3.27-1.28-3.27-2.93Zm.64,5.46h5.26v18.13h-5.26v-18.13Z"/><path class="i" d="M241.86,104.86h5.26v25h-5.26v-25Z"/><path class="i" d="M252.01,104.86h5.26v25h-5.26v-25Z"/><path class="i" d="M287.38,113.96l-11.22,4.11,11.22,4.08v4.21l-16.04-6.1v-4.38l16.04-6.1v4.18Z"/><path class="i" d="M286.3,135.66l1.42-3.81c.57,.4,1.35,.64,2.22,.64,1.31,0,2.16-.84,2.16-2.63v-18.13h5.26v18.09c0,4.18-2.46,6.84-6.84,6.84-1.62,0-3.2-.3-4.21-1.01Zm5.15-29.38c0-1.65,1.31-2.93,3.27-2.93s3.27,1.21,3.27,2.83c0,1.75-1.31,3.03-3.27,3.03s-3.27-1.28-3.27-2.93Z"/><path class="i" d="M301.57,106.28c0-1.65,1.31-2.93,3.27-2.93s3.27,1.21,3.27,2.83c0,1.75-1.31,3.03-3.27,3.03s-3.27-1.28-3.27-2.93Zm.64,5.46h5.26v18.13h-5.26v-18.13Z"/><path class="i" d="M312.35,104.86h5.26v25h-5.26v-25Z"/><path class="i" d="M322.49,104.86h5.26v25h-5.26v-25Z"/><path class="i" d="M363.76,120.63c0,6.03-2.76,9.47-6.91,9.47-2.29,0-3.91-1.01-4.62-2.93-1.18,1.89-3.1,2.93-5.76,2.93-4.35,0-7.78-3.44-7.78-8.52s3.4-8.49,7.78-8.49c2.22,0,3.98,.77,5.19,2.22v-1.99h4.58v10.92c0,1.62,.71,2.16,1.62,2.16,1.55,0,2.49-1.79,2.49-5.69,0-6.84-5.05-11.56-12.53-11.56s-12.53,5.12-12.53,12.16,4.92,12.26,12.4,12.26c2.12,0,4.51-.44,6.64-1.48l1.08,3.1c-2.06,1.04-5.05,1.62-7.72,1.62-9.74,0-16.17-6.6-16.17-15.5s6.5-15.36,16.31-15.36,15.94,6.23,15.94,14.69Zm-12.03,.94c0-2.93-1.79-4.58-4.21-4.58s-4.18,1.72-4.18,4.58,1.72,4.65,4.18,4.65,4.21-1.68,4.21-4.65Z"/><path class="i" d="M373.27,112.14h4.65v4.04h-4.51v13.68h-5.26v-13.68h-2.8v-4.04h2.8v-.81c0-4.08,2.49-6.74,7.01-6.74,1.48,0,3.03,.3,4.01,.98l-1.38,3.81c-.57-.4-1.31-.64-2.12-.64-1.55,0-2.39,.84-2.39,2.63v.77Z"/><path class="i" d="M396.24,119.52v10.34h-4.92v-2.26c-.98,1.65-2.86,2.53-5.53,2.53-4.25,0-6.77-2.36-6.77-5.49s2.26-5.42,7.78-5.42h4.18c0-2.26-1.35-3.57-4.18-3.57-1.92,0-3.91,.64-5.22,1.68l-1.89-3.67c1.99-1.42,4.92-2.19,7.82-2.19,5.53,0,8.73,2.56,8.73,8.05Zm-5.26,4.62v-1.85h-3.6c-2.46,0-3.23,.91-3.23,2.12,0,1.31,1.11,2.19,2.96,2.19,1.75,0,3.27-.81,3.87-2.46Z"/><path class="i" d="M408.78,122.75l-2.53,2.49v4.62h-5.26v-25h5.26v14.15l7.68-7.28h6.27l-7.55,7.68,8.22,10.44h-6.37l-5.73-7.11Z"/><path class="i" d="M440.11,122.28h-13.71c.51,2.26,2.43,3.64,5.19,3.64,1.92,0,3.3-.57,4.55-1.75l2.8,3.03c-1.68,1.92-4.21,2.93-7.48,2.93-6.27,0-10.34-3.94-10.34-9.33s4.14-9.33,9.67-9.33,9.43,3.57,9.43,9.4c0,.4-.07,.98-.1,1.42Zm-13.78-3.07h8.93c-.37-2.29-2.09-3.77-4.45-3.77s-4.11,1.45-4.48,3.77Z"/><path class="i" d="M462.42,111.74v15.09c0,6.74-3.64,9.84-10.17,9.84-3.44,0-6.77-.84-8.89-2.49l2.09-3.77c1.55,1.25,4.08,2.06,6.4,2.06,3.71,0,5.32-1.68,5.32-4.95v-.77c-1.38,1.52-3.37,2.26-5.73,2.26-5.02,0-9.06-3.47-9.06-8.76s4.04-8.76,9.06-8.76c2.53,0,4.62,.84,6,2.59v-2.32h4.99Zm-5.19,8.49c0-2.66-1.99-4.45-4.75-4.45s-4.78,1.79-4.78,4.45,2.02,4.45,4.78,4.45,4.75-1.79,4.75-4.45Z"/><path class="i" d="M497.93,119.49v10.38h-5.26v-9.57c0-2.93-1.31-4.28-3.44-4.28-2.36,0-4.01,1.52-4.01,4.75v9.1h-5.26v-9.57c0-2.93-1.25-4.28-3.44-4.28-2.33,0-3.98,1.52-3.98,4.75v9.1h-5.26v-18.13h5.02v2.09c1.35-1.55,3.37-2.36,5.69-2.36,2.53,0,4.68,.98,5.96,2.96,1.45-1.85,3.81-2.96,6.54-2.96,4.31,0,7.41,2.49,7.41,8.02Z"/><path class="i" d="M518.68,119.52v10.34h-4.92v-2.26c-.98,1.65-2.86,2.53-5.53,2.53-4.25,0-6.77-2.36-6.77-5.49s2.26-5.42,7.78-5.42h4.18c0-2.26-1.35-3.57-4.18-3.57-1.92,0-3.91,.64-5.22,1.68l-1.89-3.67c1.99-1.42,4.92-2.19,7.82-2.19,5.53,0,8.73,2.56,8.73,8.05Zm-5.26,4.62v-1.85h-3.61c-2.46,0-3.23,.91-3.23,2.12,0,1.31,1.11,2.19,2.96,2.19,1.75,0,3.27-.81,3.88-2.46Z"/><path class="i" d="M522.8,106.28c0-1.65,1.31-2.93,3.27-2.93s3.27,1.21,3.27,2.83c0,1.75-1.31,3.03-3.27,3.03s-3.27-1.28-3.27-2.93Zm.64,5.46h5.26v18.13h-5.26v-18.13Z"/><path class="i" d="M533.58,104.86h5.26v25h-5.26v-25Z"/><path class="i" d="M542.44,126.83c0-1.95,1.45-3.23,3.27-3.23s3.27,1.28,3.27,3.23-1.45,3.3-3.27,3.3-3.27-1.38-3.27-3.3Z"/><path class="i" d="M550.96,120.8c0-5.46,4.21-9.33,10.11-9.33,3.81,0,6.81,1.65,8.12,4.62l-4.08,2.19c-.98-1.72-2.43-2.49-4.08-2.49-2.66,0-4.75,1.85-4.75,5.02s2.09,5.02,4.75,5.02c1.65,0,3.1-.74,4.08-2.49l4.08,2.22c-1.31,2.9-4.31,4.58-8.12,4.58-5.9,0-10.11-3.87-10.11-9.33Z"/><path class="i" d="M570.64,120.8c0-5.46,4.21-9.33,9.97-9.33s9.94,3.87,9.94,9.33-4.18,9.33-9.94,9.33-9.97-3.87-9.97-9.33Zm14.59,0c0-3.13-1.99-5.02-4.62-5.02s-4.65,1.89-4.65,5.02,2.02,5.02,4.65,5.02,4.62-1.89,4.62-5.02Z"/><path class="i" d="M624.68,119.49v10.38h-5.26v-9.57c0-2.93-1.31-4.28-3.44-4.28-2.36,0-4.01,1.52-4.01,4.75v9.1h-5.26v-9.57c0-2.93-1.25-4.28-3.44-4.28-2.33,0-3.98,1.52-3.98,4.75v9.1h-5.26v-18.13h5.02v2.09c1.35-1.55,3.37-2.36,5.69-2.36,2.53,0,4.68,.98,5.96,2.96,1.45-1.85,3.81-2.96,6.54-2.96,4.31,0,7.41,2.49,7.41,8.02Z"/><path class="i" d="M645.1,115.88v4.38l-16.04,6.1v-4.21l11.22-4.08-11.22-4.11v-4.18l16.04,6.1Z"/></g><line class="h" x1="40.6" y1="154.7" x2="798.4" y2="154.7"/><g><path class="j" d="M50.93,38.43v5.19h10.41v5.15h-10.41v8.09h-6.67v-23.58h18.5v5.15h-11.83Z"/><path class="j" d="M77.48,38.3v5.76c-.57-.07-.98-.1-1.45-.1-2.59,0-4.38,1.31-4.38,4.51v8.39h-6.4v-18.26h6.1v2.19c1.31-1.65,3.44-2.49,6.13-2.49Z"/><path class="j" d="M78.8,47.7c0-5.49,4.35-9.4,10.31-9.4s10.31,3.91,10.31,9.4-4.28,9.47-10.31,9.47-10.31-3.94-10.31-9.47Zm14.15,0c0-2.76-1.65-4.31-3.84-4.31s-3.84,1.55-3.84,4.31,1.68,4.38,3.84,4.38,3.84-1.58,3.84-4.38Z"/><path class="j" d="M133.55,46.42v10.44h-6.4v-9.4c0-2.63-1.08-3.74-2.76-3.74-1.85,0-3.2,1.25-3.2,4.08v9.06h-6.4v-9.4c0-2.63-1.04-3.74-2.76-3.74-1.89,0-3.23,1.25-3.23,4.08v9.06h-6.4v-18.26h6.1v1.92c1.38-1.48,3.3-2.22,5.46-2.22,2.49,0,4.62,.91,5.9,2.86,1.45-1.82,3.71-2.86,6.33-2.86,4.25,0,7.38,2.46,7.38,8.12Z"/><path class="j" d="M136.45,42.07c0-2.29,1.68-3.77,3.84-3.77s3.84,1.48,3.84,3.77-1.65,3.81-3.84,3.81-3.84-1.58-3.84-3.81Zm0,11.29c0-2.29,1.68-3.77,3.84-3.77s3.84,1.48,3.84,3.77-1.65,3.81-3.84,3.81-3.84-1.58-3.84-3.81Z"/><path class="i" d="M231.52,56.86l-4.55-6.57h-5.02v6.57h-5.46v-23.58h10.21c6.3,0,10.24,3.27,10.24,8.56,0,3.54-1.79,6.13-4.85,7.45l5.29,7.58h-5.86Zm-5.12-19.14h-4.45v8.22h4.45c3.34,0,5.02-1.55,5.02-4.11s-1.68-4.11-5.02-4.11Z"/><path class="i" d="M258.54,49.28h-13.71c.51,2.26,2.43,3.64,5.19,3.64,1.92,0,3.3-.57,4.55-1.75l2.8,3.03c-1.68,1.92-4.21,2.93-7.48,2.93-6.27,0-10.34-3.94-10.34-9.33s4.14-9.33,9.67-9.33,9.43,3.57,9.43,9.4c0,.4-.07,.98-.1,1.42Zm-13.78-3.07h8.93c-.37-2.29-2.09-3.77-4.45-3.77s-4.11,1.45-4.48,3.77Z"/><path class="i" d="M277.68,46.52v10.34h-4.92v-2.26c-.98,1.65-2.86,2.53-5.53,2.53-4.25,0-6.77-2.36-6.77-5.49s2.26-5.42,7.78-5.42h4.18c0-2.26-1.35-3.57-4.18-3.57-1.92,0-3.91,.64-5.22,1.68l-1.89-3.67c1.99-1.42,4.92-2.19,7.82-2.19,5.53,0,8.73,2.56,8.73,8.05Zm-5.26,4.62v-1.85h-3.6c-2.46,0-3.23,.91-3.23,2.12,0,1.31,1.11,2.19,2.96,2.19,1.75,0,3.27-.81,3.87-2.46Z"/><path class="i" d="M281.29,47.8c0-5.46,4.21-9.33,10.11-9.33,3.81,0,6.81,1.65,8.12,4.62l-4.08,2.19c-.98-1.72-2.43-2.49-4.08-2.49-2.66,0-4.75,1.85-4.75,5.02s2.09,5.02,4.75,5.02c1.65,0,3.1-.74,4.08-2.49l4.08,2.22c-1.31,2.9-4.31,4.58-8.12,4.58-5.9,0-10.11-3.87-10.11-9.33Z"/><path class="i" d="M320.94,46.49v10.38h-5.26v-9.57c0-2.93-1.35-4.28-3.67-4.28-2.53,0-4.35,1.55-4.35,4.89v8.96h-5.26V31.86h5.26v8.76c1.42-1.42,3.44-2.16,5.76-2.16,4.28,0,7.51,2.49,7.51,8.02Z"/><path class="i" d="M343.55,49.28h-13.71c.51,2.26,2.43,3.64,5.19,3.64,1.92,0,3.3-.57,4.55-1.75l2.8,3.03c-1.68,1.92-4.21,2.93-7.48,2.93-6.27,0-10.34-3.94-10.34-9.33s4.14-9.33,9.67-9.33,9.43,3.57,9.43,9.4c0,.4-.07,.98-.1,1.42Zm-13.78-3.07h8.93c-.37-2.29-2.09-3.77-4.45-3.77s-4.11,1.45-4.48,3.77Z"/><path class="i" d="M358.41,38.47v4.85c-.44-.03-.77-.07-1.18-.07-2.9,0-4.82,1.58-4.82,5.05v8.56h-5.26v-18.13h5.02v2.39c1.28-1.75,3.44-2.66,6.23-2.66Z"/><path class="i" d="M386.91,40.96l-11.22,4.11,11.22,4.08v4.21l-16.04-6.1v-4.38l16.04-6.1v4.18Z"/><path class="i" d="M389.64,55.18l1.75-3.77c1.62,1.04,4.08,1.75,6.3,1.75,2.43,0,3.33-.64,3.33-1.65,0-2.96-10.95,.07-10.95-7.18,0-3.44,3.1-5.86,8.39-5.86,2.49,0,5.26,.57,6.97,1.58l-1.75,3.74c-1.79-1.01-3.57-1.35-5.22-1.35-2.36,0-3.37,.74-3.37,1.68,0,3.1,10.95,.1,10.95,7.24,0,3.37-3.13,5.76-8.56,5.76-3.07,0-6.17-.84-7.85-1.95Z"/><path class="i" d="M425.32,46.52v10.34h-4.92v-2.26c-.98,1.65-2.86,2.53-5.53,2.53-4.25,0-6.77-2.36-6.77-5.49s2.26-5.42,7.78-5.42h4.18c0-2.26-1.35-3.57-4.18-3.57-1.92,0-3.91,.64-5.22,1.68l-1.89-3.67c1.99-1.42,4.92-2.19,7.82-2.19,5.53,0,8.73,2.56,8.73,8.05Zm-5.26,4.62v-1.85h-3.61c-2.46,0-3.23,.91-3.23,2.12,0,1.31,1.11,2.19,2.96,2.19,1.75,0,3.27-.81,3.88-2.46Z"/><path class="i" d="M460.7,46.49v10.38h-5.26v-9.57c0-2.93-1.31-4.28-3.44-4.28-2.36,0-4.01,1.52-4.01,4.75v9.1h-5.26v-9.57c0-2.93-1.25-4.28-3.44-4.28-2.32,0-3.98,1.52-3.98,4.75v9.1h-5.26v-18.13h5.02v2.09c1.35-1.55,3.37-2.36,5.69-2.36,2.53,0,4.68,.98,5.96,2.96,1.45-1.85,3.81-2.96,6.54-2.96,4.31,0,7.41,2.49,7.41,8.02Z"/><path class="i" d="M496.55,47.63c0,6.03-2.76,9.47-6.91,9.47-2.29,0-3.91-1.01-4.62-2.93-1.18,1.89-3.1,2.93-5.76,2.93-4.35,0-7.78-3.44-7.78-8.52s3.4-8.49,7.78-8.49c2.22,0,3.98,.77,5.19,2.22v-1.99h4.58v10.92c0,1.62,.71,2.16,1.62,2.16,1.55,0,2.49-1.79,2.49-5.69,0-6.84-5.05-11.56-12.53-11.56s-12.53,5.12-12.53,12.16,4.92,12.26,12.4,12.26c2.12,0,4.52-.44,6.64-1.48l1.08,3.1c-2.06,1.04-5.05,1.62-7.72,1.62-9.74,0-16.17-6.6-16.17-15.5s6.5-15.36,16.31-15.36,15.94,6.23,15.94,14.69Zm-12.03,.94c0-2.93-1.79-4.58-4.21-4.58s-4.18,1.72-4.18,4.58,1.72,4.65,4.18,4.65,4.21-1.68,4.21-4.65Z"/><path class="i" d="M511.54,38.47v4.85c-.44-.03-.77-.07-1.18-.07-2.9,0-4.82,1.58-4.82,5.05v8.56h-5.26v-18.13h5.02v2.39c1.28-1.75,3.44-2.66,6.23-2.66Z"/><path class="i" d="M532.17,49.28h-13.71c.5,2.26,2.43,3.64,5.19,3.64,1.92,0,3.3-.57,4.55-1.75l2.8,3.03c-1.69,1.92-4.21,2.93-7.48,2.93-6.27,0-10.34-3.94-10.34-9.33s4.14-9.33,9.67-9.33,9.43,3.57,9.43,9.4c0,.4-.07,.98-.1,1.42Zm-13.78-3.07h8.93c-.37-2.29-2.09-3.77-4.45-3.77s-4.11,1.45-4.48,3.77Z"/><path class="i" d="M551.3,46.52v10.34h-4.92v-2.26c-.98,1.65-2.86,2.53-5.53,2.53-4.25,0-6.77-2.36-6.77-5.49s2.26-5.42,7.78-5.42h4.18c0-2.26-1.35-3.57-4.18-3.57-1.92,0-3.91,.64-5.22,1.68l-1.89-3.67c1.99-1.42,4.92-2.19,7.82-2.19,5.53,0,8.73,2.56,8.73,8.05Zm-5.26,4.62v-1.85h-3.61c-2.46,0-3.23,.91-3.23,2.12,0,1.31,1.11,2.19,2.96,2.19,1.75,0,3.27-.81,3.88-2.46Z"/><path class="i" d="M554.91,47.8c0-5.46,4.21-9.33,10.11-9.33,3.81,0,6.81,1.65,8.12,4.62l-4.08,2.19c-.98-1.72-2.43-2.49-4.08-2.49-2.66,0-4.75,1.85-4.75,5.02s2.09,5.02,4.75,5.02c1.65,0,3.1-.74,4.08-2.49l4.08,2.22c-1.31,2.9-4.31,4.58-8.12,4.58-5.9,0-10.11-3.87-10.11-9.33Z"/><path class="i" d="M594.56,46.49v10.38h-5.26v-9.57c0-2.93-1.35-4.28-3.67-4.28-2.53,0-4.35,1.55-4.35,4.89v8.96h-5.26V31.86h5.26v8.76c1.42-1.42,3.44-2.16,5.76-2.16,4.28,0,7.51,2.49,7.51,8.02Z"/><path class="i" d="M617.17,49.28h-13.71c.51,2.26,2.43,3.64,5.19,3.64,1.92,0,3.3-.57,4.55-1.75l2.8,3.03c-1.68,1.92-4.21,2.93-7.48,2.93-6.27,0-10.34-3.94-10.34-9.33s4.14-9.33,9.67-9.33,9.43,3.57,9.43,9.4c0,.4-.07,.98-.1,1.42Zm-13.78-3.07h8.93c-.37-2.29-2.09-3.77-4.45-3.77s-4.11,1.45-4.48,3.77Z"/><path class="i" d="M632.03,38.47v4.85c-.44-.03-.77-.07-1.18-.07-2.9,0-4.82,1.58-4.82,5.05v8.56h-5.26v-18.13h5.02v2.39c1.28-1.75,3.44-2.66,6.23-2.66Z"/><path class="i" d="M633.68,53.83c0-1.95,1.45-3.23,3.27-3.23s3.27,1.28,3.27,3.23-1.45,3.3-3.27,3.3-3.27-1.38-3.27-3.3Z"/><path class="i" d="M674.42,46.49v10.38h-5.26v-9.57c0-2.93-1.31-4.28-3.44-4.28-2.36,0-4.01,1.52-4.01,4.75v9.1h-5.26v-9.57c0-2.93-1.25-4.28-3.44-4.28-2.32,0-3.98,1.52-3.98,4.75v9.1h-5.26v-18.13h5.02v2.09c1.35-1.55,3.37-2.36,5.69-2.36,2.53,0,4.68,.98,5.96,2.96,1.45-1.85,3.81-2.96,6.54-2.96,4.31,0,7.41,2.49,7.41,8.02Z"/><path class="i" d="M696.99,49.28h-13.71c.51,2.26,2.43,3.64,5.19,3.64,1.92,0,3.3-.57,4.55-1.75l2.8,3.03c-1.68,1.92-4.21,2.93-7.48,2.93-6.27,0-10.34-3.94-10.34-9.33s4.14-9.33,9.67-9.33,9.43,3.57,9.43,9.4c0,.4-.07,.98-.1,1.42Zm-13.78-3.07h8.93c-.37-2.29-2.09-3.77-4.45-3.77s-4.11,1.45-4.48,3.77Z"/><path class="i" d="M716.3,42.88v4.38l-16.04,6.1v-4.21l11.22-4.08-11.22-4.11v-4.18l16.04,6.1Z"/></g><line class="h" x1="40.6" y1="81.7" x2="798.4" y2="81.7"/><g><path class="j" d="M42.61,200.92l2.19-4.92c2.09,1.38,5.05,2.32,7.78,2.32s3.84-.77,3.84-1.92c0-3.74-13.41-1.01-13.41-9.77,0-4.21,3.44-7.65,10.44-7.65,3.07,0,6.23,.71,8.56,2.06l-2.06,4.95c-2.26-1.21-4.48-1.82-6.54-1.82-2.8,0-3.81,.94-3.81,2.12,0,3.6,13.38,.91,13.38,9.6,0,4.11-3.44,7.61-10.44,7.61-3.87,0-7.72-1.04-9.94-2.59Z"/><path class="j" d="M84.96,184.78v18.26h-6.1v-1.95c-1.38,1.52-3.34,2.26-5.42,2.26-4.48,0-7.75-2.56-7.75-8.36v-10.21h6.4v9.16c0,2.83,1.11,3.94,3.03,3.94s3.44-1.25,3.44-4.31v-8.79h6.4Z"/><path class="j" d="M109.52,193.87c0,5.83-4.01,9.47-8.96,9.47-2.39,0-4.18-.67-5.39-2.12v1.82h-6.1v-25h6.4v8.32c1.25-1.28,2.96-1.89,5.09-1.89,4.95,0,8.96,3.6,8.96,9.4Zm-6.47,0c0-2.76-1.68-4.31-3.84-4.31s-3.84,1.55-3.84,4.31,1.68,4.38,3.84,4.38,3.84-1.58,3.84-4.38Z"/><path class="j" d="M107.27,208.93l1.62-4.55c.54,.34,1.25,.54,1.99,.54,1.11,0,1.89-.74,1.89-2.39v-17.76h6.4v17.79c0,4.45-2.73,7.31-7.45,7.31-1.68,0-3.34-.3-4.45-.94Zm4.78-29.58c0-1.92,1.55-3.4,3.91-3.4s3.91,1.38,3.91,3.3c0,2.02-1.55,3.5-3.91,3.5s-3.91-1.48-3.91-3.4Z"/><path class="j" d="M141.83,195.52h-13.27c.54,1.85,2.12,2.93,4.48,2.93,1.79,0,2.96-.51,4.21-1.58l3.37,3.5c-1.75,1.95-4.31,2.96-7.78,2.96-6.5,0-10.71-4.01-10.71-9.47s4.28-9.4,10.04-9.4c5.39,0,9.77,3.44,9.77,9.47,0,.47-.07,1.08-.1,1.58Zm-13.38-3.37h7.48c-.34-1.92-1.75-3.13-3.74-3.13s-3.37,1.21-3.74,3.13Z"/><path class="j" d="M143.76,193.87c0-5.49,4.35-9.4,10.48-9.4,4.14,0,7.31,1.85,8.56,5.02l-4.95,2.53c-.88-1.72-2.16-2.46-3.64-2.46-2.22,0-3.98,1.55-3.98,4.31s1.75,4.38,3.98,4.38c1.48,0,2.76-.74,3.64-2.46l4.95,2.53c-1.25,3.17-4.41,5.02-8.56,5.02-6.13,0-10.48-3.91-10.48-9.47Z"/><path class="j" d="M178.12,202.3c-1.11,.71-2.76,1.04-4.45,1.04-4.68,0-7.41-2.29-7.41-6.97v-6.13h-2.66v-4.78h2.66v-4.75h6.4v4.75h4.18v4.78h-4.18v6.06c0,1.35,.77,2.09,1.92,2.09,.71,0,1.42-.2,1.95-.57l1.58,4.48Z"/><path class="j" d="M179.44,188.25c0-2.29,1.68-3.77,3.84-3.77s3.84,1.48,3.84,3.77-1.65,3.81-3.84,3.81-3.84-1.58-3.84-3.81Zm0,11.29c0-2.29,1.68-3.77,3.84-3.77s3.84,1.48,3.84,3.77-1.65,3.81-3.84,3.81-3.84-1.58-3.84-3.81Z"/><path class="i" d="M221.79,194.68v8.36h-5.46v-8.42l-9.13-15.16h5.79l6.3,10.48,6.3-10.48h5.36l-9.16,15.23Z"/><path class="i" d="M229.5,193.97c0-5.46,4.21-9.33,9.97-9.33s9.94,3.87,9.94,9.33-4.18,9.33-9.94,9.33-9.97-3.87-9.97-9.33Zm14.59,0c0-3.13-1.99-5.02-4.62-5.02s-4.65,1.89-4.65,5.02,2.02,5.02,4.65,5.02,4.62-1.89,4.62-5.02Z"/><path class="i" d="M271.18,184.91v18.13h-4.99v-2.16c-1.38,1.58-3.4,2.43-5.63,2.43-4.55,0-7.75-2.56-7.75-8.15v-10.24h5.26v9.47c0,3.03,1.35,4.38,3.67,4.38s4.18-1.55,4.18-4.89v-8.96h5.26Z"/><path class="i" d="M287.32,184.64v4.85c-.44-.03-.77-.07-1.18-.07-2.9,0-4.82,1.58-4.82,5.05v8.56h-5.26v-18.13h5.02v2.39c1.28-1.75,3.44-2.66,6.23-2.66Z"/><path class="i" d="M330.75,192.66v10.38h-5.26v-9.57c0-2.93-1.31-4.28-3.44-4.28-2.36,0-4.01,1.52-4.01,4.75v9.1h-5.26v-9.57c0-2.93-1.25-4.28-3.44-4.28-2.32,0-3.98,1.52-3.98,4.75v9.1h-5.26v-18.13h5.02v2.09c1.35-1.55,3.37-2.36,5.69-2.36,2.53,0,4.68,.98,5.96,2.96,1.45-1.85,3.81-2.96,6.54-2.96,4.31,0,7.41,2.49,7.41,8.02Z"/><path class="i" d="M353.32,195.46h-13.71c.51,2.26,2.43,3.64,5.19,3.64,1.92,0,3.3-.57,4.55-1.75l2.8,3.03c-1.68,1.92-4.21,2.93-7.48,2.93-6.27,0-10.34-3.94-10.34-9.33s4.14-9.33,9.67-9.33,9.43,3.57,9.43,9.4c0,.4-.07,.98-.1,1.42Zm-13.78-3.07h8.93c-.37-2.29-2.09-3.77-4.45-3.77s-4.11,1.45-4.48,3.77Z"/><path class="i" d="M355.18,201.35l1.75-3.77c1.62,1.04,4.08,1.75,6.3,1.75,2.43,0,3.34-.64,3.34-1.65,0-2.96-10.95,.07-10.95-7.18,0-3.44,3.1-5.86,8.39-5.86,2.49,0,5.26,.57,6.97,1.58l-1.75,3.74c-1.79-1.01-3.57-1.35-5.22-1.35-2.36,0-3.37,.74-3.37,1.68,0,3.1,10.95,.1,10.95,7.24,0,3.37-3.13,5.76-8.56,5.76-3.07,0-6.17-.84-7.85-1.95Z"/><path class="i" d="M373.07,201.35l1.75-3.77c1.62,1.04,4.08,1.75,6.3,1.75,2.43,0,3.34-.64,3.34-1.65,0-2.96-10.95,.07-10.95-7.18,0-3.44,3.1-5.86,8.39-5.86,2.49,0,5.26,.57,6.97,1.58l-1.75,3.74c-1.79-1.01-3.57-1.35-5.22-1.35-2.36,0-3.37,.74-3.37,1.68,0,3.1,10.95,.1,10.95,7.24,0,3.37-3.13,5.76-8.56,5.76-3.07,0-6.17-.84-7.85-1.95Z"/><path class="i" d="M408.75,192.69v10.34h-4.92v-2.26c-.98,1.65-2.86,2.53-5.53,2.53-4.25,0-6.77-2.36-6.77-5.49s2.26-5.42,7.78-5.42h4.18c0-2.26-1.35-3.57-4.18-3.57-1.92,0-3.91,.64-5.22,1.68l-1.89-3.67c1.99-1.42,4.92-2.19,7.82-2.19,5.53,0,8.73,2.56,8.73,8.05Zm-5.26,4.62v-1.85h-3.61c-2.46,0-3.23,.91-3.23,2.12,0,1.31,1.11,2.19,2.96,2.19,1.75,0,3.27-.81,3.88-2.46Z"/><path class="i" d="M432.4,184.91v15.09c0,6.74-3.64,9.84-10.18,9.84-3.44,0-6.77-.84-8.89-2.49l2.09-3.77c1.55,1.25,4.08,2.06,6.4,2.06,3.71,0,5.32-1.68,5.32-4.95v-.77c-1.38,1.52-3.37,2.26-5.73,2.26-5.02,0-9.06-3.47-9.06-8.76s4.04-8.76,9.06-8.76c2.53,0,4.62,.84,6,2.59v-2.32h4.99Zm-5.19,8.49c0-2.66-1.99-4.45-4.75-4.45s-4.78,1.79-4.78,4.45,2.02,4.45,4.78,4.45,4.75-1.79,4.75-4.45Z"/><path class="i" d="M454.94,195.46h-13.71c.51,2.26,2.43,3.64,5.19,3.64,1.92,0,3.3-.57,4.55-1.75l2.8,3.03c-1.68,1.92-4.21,2.93-7.48,2.93-6.27,0-10.34-3.94-10.34-9.33s4.14-9.33,9.67-9.33,9.43,3.57,9.43,9.4c0,.4-.07,.98-.1,1.42Zm-13.78-3.07h8.93c-.37-2.29-2.09-3.77-4.45-3.77s-4.11,1.45-4.48,3.77Z"/><path class="i" d="M479.77,202.16c-1.08,.77-2.66,1.15-4.28,1.15-4.28,0-6.77-2.19-6.77-6.5v-7.45h-2.8v-4.04h2.8v-4.41h5.26v4.41h4.51v4.04h-4.51v7.38c0,1.55,.84,2.39,2.26,2.39,.77,0,1.55-.24,2.12-.67l1.42,3.71Z"/><path class="i" d="M480.82,193.97c0-5.46,4.21-9.33,9.97-9.33s9.94,3.87,9.94,9.33-4.18,9.33-9.94,9.33-9.97-3.87-9.97-9.33Zm14.59,0c0-3.13-1.99-5.02-4.62-5.02s-4.65,1.89-4.65,5.02,2.02,5.02,4.65,5.02,4.62-1.89,4.62-5.02Z"/><path d="M512.29,200.71l1.85-4.11c1.99,1.45,4.95,2.46,7.78,2.46,3.23,0,4.55-1.08,4.55-2.53,0-4.41-13.71-1.38-13.71-10.14,0-4.01,3.23-7.34,9.94-7.34,2.96,0,6,.71,8.19,2.09l-1.68,4.14c-2.19-1.25-4.45-1.85-6.54-1.85-3.23,0-4.48,1.21-4.48,2.7,0,4.35,13.71,1.35,13.71,10.01,0,3.94-3.27,7.31-10.01,7.31-3.74,0-7.51-1.11-9.6-2.73Z"/><path d="M551.3,192.69v10.34h-4.92v-2.26c-.98,1.65-2.86,2.53-5.53,2.53-4.25,0-6.77-2.36-6.77-5.49s2.26-5.42,7.78-5.42h4.18c0-2.26-1.35-3.57-4.18-3.57-1.92,0-3.91,.64-5.22,1.68l-1.89-3.67c1.99-1.42,4.92-2.19,7.82-2.19,5.53,0,8.73,2.56,8.73,8.05Zm-5.26,4.62v-1.85h-3.61c-2.46,0-3.23,.91-3.23,2.12,0,1.31,1.11,2.19,2.96,2.19,1.75,0,3.27-.81,3.88-2.46Z"/><path d="M586.68,192.66v10.38h-5.26v-9.57c0-2.93-1.31-4.28-3.44-4.28-2.36,0-4.01,1.52-4.01,4.75v9.1h-5.26v-9.57c0-2.93-1.25-4.28-3.44-4.28-2.32,0-3.98,1.52-3.98,4.75v9.1h-5.26v-18.13h5.02v2.09c1.35-1.55,3.37-2.36,5.69-2.36,2.53,0,4.68,.98,5.96,2.96,1.45-1.85,3.81-2.96,6.54-2.96,4.31,0,7.41,2.49,7.41,8.02Z"/></g><g><path class="j" d="M62.93,258.91v20.3h-4.7v-8.33h-9.22v8.33h-4.7v-20.3h4.7v8.01h9.22v-8.01h4.7Z"/><path class="j" d="M82.62,272.69h-11.81c.44,1.94,2.09,3.13,4.47,3.13,1.65,0,2.84-.49,3.92-1.51l2.41,2.61c-1.45,1.65-3.63,2.52-6.44,2.52-5.4,0-8.91-3.39-8.91-8.03s3.57-8.04,8.33-8.04,8.12,3.07,8.12,8.09c0,.35-.06,.84-.09,1.22Zm-11.86-2.64h7.69c-.32-1.97-1.8-3.25-3.83-3.25s-3.54,1.25-3.86,3.25Z"/><path class="j" d="M100.92,263.61l-7.05,16.56c-1.51,3.77-3.65,4.9-6.47,4.9-1.6,0-3.34-.52-4.35-1.42l1.65-3.22c.7,.61,1.65,.99,2.55,.99,1.25,0,1.94-.55,2.55-1.94l.06-.15-6.76-15.72h4.67l4.38,10.59,4.41-10.59h4.35Z"/><path class="j" d="M121.05,278.47c-.93,.67-2.29,.99-3.68,.99-3.68,0-5.83-1.89-5.83-5.6v-6.41h-2.41v-3.48h2.41v-3.8h4.52v3.8h3.89v3.48h-3.89v6.35c0,1.33,.73,2.06,1.94,2.06,.67,0,1.33-.2,1.83-.58l1.22,3.19Z"/><path class="j" d="M139.55,270.29v8.93h-4.53v-8.24c0-2.52-1.16-3.68-3.16-3.68-2.18,0-3.74,1.33-3.74,4.21v7.72h-4.53v-21.52h4.53v7.54c1.22-1.22,2.96-1.86,4.96-1.86,3.68,0,6.47,2.15,6.47,6.9Z"/><path class="j" d="M159.01,272.69h-11.81c.44,1.94,2.09,3.13,4.47,3.13,1.65,0,2.84-.49,3.92-1.51l2.41,2.61c-1.45,1.65-3.63,2.52-6.44,2.52-5.4,0-8.91-3.39-8.91-8.03s3.57-8.04,8.33-8.04,8.12,3.07,8.12,8.09c0,.35-.06,.84-.09,1.22Zm-11.86-2.64h7.69c-.32-1.97-1.8-3.25-3.83-3.25s-3.54,1.25-3.86,3.25Z"/><path class="j" d="M171.8,263.38v4.18c-.38-.03-.67-.06-1.02-.06-2.49,0-4.15,1.36-4.15,4.35v7.37h-4.53v-15.61h4.32v2.06c1.1-1.51,2.96-2.29,5.37-2.29Z"/><path class="j" d="M189.54,272.69h-11.81c.44,1.94,2.09,3.13,4.47,3.13,1.65,0,2.84-.49,3.92-1.51l2.41,2.61c-1.45,1.65-3.63,2.52-6.44,2.52-5.4,0-8.91-3.39-8.91-8.03s3.57-8.04,8.33-8.04,8.12,3.07,8.12,8.09c0,.35-.06,.84-.09,1.22Zm-11.86-2.64h7.69c-.32-1.97-1.8-3.25-3.83-3.25s-3.54,1.25-3.86,3.25Z"/><path class="j" d="M197.17,276.61c0,.75-.12,1.31-.78,2.9l-1.65,4.18h-2.87l1.28-4.61c-.96-.38-1.57-1.28-1.57-2.47,0-1.68,1.22-2.78,2.81-2.78s2.78,1.13,2.78,2.78Z"/><path class="j" d="M75,311.04l-6.64,20.3h-5.05l-4.47-13.75-4.61,13.75h-5.02l-6.67-20.3h4.87l4.58,14.27,4.79-14.27h4.35l4.64,14.39,4.73-14.39h4.5Z"/><path class="j" d="M91.32,324.82h-11.81c.44,1.94,2.09,3.13,4.47,3.13,1.65,0,2.84-.49,3.92-1.51l2.41,2.61c-1.45,1.65-3.63,2.52-6.44,2.52-5.4,0-8.91-3.39-8.91-8.03s3.57-8.04,8.33-8.04,8.12,3.07,8.12,8.09c0,.35-.06,.84-.09,1.22Zm-11.86-2.64h7.69c-.32-1.97-1.8-3.25-3.83-3.25s-3.54,1.25-3.86,3.25Z"/><path class="j" d="M101.12,329.89l1.51-3.25c1.39,.9,3.51,1.51,5.42,1.51,2.09,0,2.87-.55,2.87-1.42,0-2.55-9.43,.06-9.43-6.18,0-2.96,2.67-5.05,7.22-5.05,2.15,0,4.52,.49,6,1.36l-1.51,3.22c-1.54-.87-3.08-1.16-4.5-1.16-2.03,0-2.9,.64-2.9,1.45,0,2.67,9.43,.09,9.43,6.24,0,2.9-2.7,4.96-7.37,4.96-2.64,0-5.31-.73-6.76-1.68Z"/><path class="j" d="M133.23,324.82h-11.81c.44,1.94,2.09,3.13,4.47,3.13,1.65,0,2.84-.49,3.92-1.51l2.41,2.61c-1.45,1.65-3.63,2.52-6.44,2.52-5.4,0-8.91-3.39-8.91-8.03s3.57-8.04,8.33-8.04,8.12,3.07,8.12,8.09c0,.35-.06,.84-.09,1.22Zm-11.86-2.64h7.69c-.32-1.97-1.8-3.25-3.83-3.25s-3.54,1.25-3.86,3.25Z"/><path class="j" d="M151.53,324.82h-11.81c.44,1.94,2.09,3.13,4.47,3.13,1.65,0,2.84-.49,3.92-1.51l2.41,2.61c-1.45,1.65-3.63,2.52-6.44,2.52-5.4,0-8.91-3.39-8.91-8.03s3.57-8.04,8.33-8.04,8.12,3.07,8.12,8.09c0,.35-.06,.84-.09,1.22Zm-11.86-2.64h7.69c-.32-1.97-1.8-3.25-3.83-3.25s-3.54,1.25-3.86,3.25Z"/><path class="j" d="M178.32,315.74l-7.05,16.56c-1.51,3.77-3.65,4.9-6.47,4.9-1.6,0-3.34-.52-4.35-1.42l1.65-3.22c.7,.61,1.65,.99,2.55,.99,1.25,0,1.94-.55,2.55-1.94l.06-.15-6.76-15.72h4.67l4.38,10.59,4.41-10.59h4.35Z"/><path class="j" d="M178.58,323.54c0-4.7,3.63-8.04,8.59-8.04s8.56,3.34,8.56,8.04-3.6,8.03-8.56,8.03-8.59-3.34-8.59-8.03Zm12.56,0c0-2.7-1.71-4.32-3.97-4.32s-4,1.62-4,4.32,1.74,4.32,4,4.32,3.97-1.62,3.97-4.32Z"/><path class="j" d="M214.45,315.74v15.61h-4.29v-1.86c-1.19,1.36-2.93,2.09-4.84,2.09-3.92,0-6.67-2.2-6.67-7.02v-8.82h4.52v8.15c0,2.61,1.16,3.77,3.16,3.77s3.6-1.33,3.6-4.21v-7.72h4.52Z"/><path class="j" d="M251.92,315.74l-5.66,15.61h-4.35l-3.51-9.69-3.63,9.69h-4.35l-5.63-15.61h4.26l3.68,10.56,3.83-10.56h3.83l3.71,10.56,3.8-10.56h4Z"/><path class="j" d="M267.32,322.44v8.91h-4.24v-1.94c-.84,1.42-2.47,2.18-4.76,2.18-3.65,0-5.83-2.03-5.83-4.73s1.94-4.67,6.7-4.67h3.6c0-1.94-1.16-3.07-3.6-3.07-1.65,0-3.36,.55-4.5,1.45l-1.62-3.16c1.71-1.22,4.23-1.89,6.73-1.89,4.76,0,7.51,2.2,7.51,6.93Zm-4.53,3.97v-1.6h-3.1c-2.12,0-2.78,.78-2.78,1.83,0,1.13,.96,1.89,2.55,1.89,1.51,0,2.81-.7,3.34-2.12Z"/><path class="j" d="M287.36,322.41v8.93h-4.53v-8.24c0-2.52-1.16-3.68-3.16-3.68-2.18,0-3.74,1.33-3.74,4.21v7.72h-4.53v-15.61h4.32v1.83c1.22-1.33,3.05-2.06,5.16-2.06,3.68,0,6.47,2.15,6.47,6.9Z"/><path class="j" d="M301.51,330.59c-.93,.67-2.29,.99-3.68,.99-3.68,0-5.83-1.89-5.83-5.6v-6.41h-2.41v-3.48h2.41v-3.8h4.52v3.8h3.89v3.48h-3.89v6.35c0,1.33,.73,2.06,1.94,2.06,.67,0,1.33-.2,1.83-.58l1.22,3.19Z"/><path class="j" d="M318.77,324.82h-11.81c.44,1.94,2.09,3.13,4.47,3.13,1.65,0,2.84-.49,3.92-1.51l2.41,2.61c-1.45,1.65-3.63,2.52-6.44,2.52-5.4,0-8.91-3.39-8.91-8.03s3.57-8.04,8.33-8.04,8.12,3.07,8.12,8.09c0,.35-.06,.84-.09,1.22Zm-11.86-2.64h7.69c-.32-1.97-1.8-3.25-3.83-3.25s-3.54,1.25-3.86,3.25Z"/><path class="j" d="M337.76,309.82v21.52h-4.32v-1.8c-1.13,1.36-2.78,2.03-4.87,2.03-4.41,0-7.8-3.13-7.8-8.03s3.39-8.04,7.8-8.04c1.91,0,3.54,.61,4.67,1.89v-7.57h4.53Zm-4.44,13.72c0-2.7-1.74-4.32-3.97-4.32s-4,1.62-4,4.32,1.74,4.32,4,4.32,3.97-1.62,3.97-4.32Z"/><path class="j" d="M360.21,330.59c-.93,.67-2.29,.99-3.68,.99-3.68,0-5.83-1.89-5.83-5.6v-6.41h-2.41v-3.48h2.41v-3.8h4.52v3.8h3.89v3.48h-3.89v6.35c0,1.33,.73,2.06,1.94,2.06,.67,0,1.33-.2,1.83-.58l1.22,3.19Z"/><path class="j" d="M361.1,323.54c0-4.7,3.63-8.04,8.59-8.04s8.56,3.34,8.56,8.04-3.6,8.03-8.56,8.03-8.59-3.34-8.59-8.03Zm12.56,0c0-2.7-1.71-4.32-3.97-4.32s-4,1.62-4,4.32,1.74,4.32,4,4.32,3.97-1.62,3.97-4.32Z"/><path class="j" d="M399.15,315.51v4.18c-.38-.03-.67-.06-1.01-.06-2.5,0-4.15,1.36-4.15,4.35v7.37h-4.53v-15.61h4.32v2.06c1.1-1.51,2.96-2.29,5.37-2.29Z"/><path class="j" d="M416.9,324.82h-11.81c.43,1.94,2.09,3.13,4.47,3.13,1.65,0,2.84-.49,3.92-1.51l2.41,2.61c-1.45,1.65-3.62,2.52-6.44,2.52-5.39,0-8.9-3.39-8.9-8.03s3.57-8.04,8.32-8.04,8.12,3.07,8.12,8.09c0,.35-.06,.84-.09,1.22Zm-11.86-2.64h7.69c-.32-1.97-1.8-3.25-3.83-3.25s-3.54,1.25-3.86,3.25Z"/><path class="j" d="M433.37,322.44v8.91h-4.23v-1.94c-.84,1.42-2.47,2.18-4.76,2.18-3.65,0-5.83-2.03-5.83-4.73s1.94-4.67,6.7-4.67h3.6c0-1.94-1.16-3.07-3.6-3.07-1.65,0-3.36,.55-4.5,1.45l-1.62-3.16c1.71-1.22,4.24-1.89,6.73-1.89,4.76,0,7.51,2.2,7.51,6.93Zm-4.52,3.97v-1.6h-3.1c-2.12,0-2.78,.78-2.78,1.83,0,1.13,.96,1.89,2.55,1.89,1.51,0,2.81-.7,3.34-2.12Z"/><path class="j" d="M436.47,323.54c0-4.7,3.63-8.04,8.7-8.04,3.28,0,5.86,1.42,6.99,3.97l-3.51,1.89c-.84-1.48-2.09-2.15-3.51-2.15-2.29,0-4.09,1.6-4.09,4.32s1.8,4.32,4.09,4.32c1.42,0,2.67-.64,3.51-2.15l3.51,1.91c-1.13,2.49-3.71,3.94-6.99,3.94-5.08,0-8.7-3.34-8.7-8.03Z"/><path class="j" d="M470.61,322.41v8.93h-4.52v-8.24c0-2.52-1.16-3.68-3.16-3.68-2.18,0-3.74,1.33-3.74,4.21v7.72h-4.52v-21.52h4.52v7.54c1.22-1.22,2.96-1.86,4.96-1.86,3.68,0,6.47,2.15,6.47,6.9Z"/><path class="j" d="M481.63,329.34l1.59-3.54c1.71,1.25,4.26,2.12,6.7,2.12,2.78,0,3.92-.93,3.92-2.18,0-3.8-11.81-1.19-11.81-8.73,0-3.45,2.78-6.32,8.56-6.32,2.55,0,5.16,.61,7.05,1.8l-1.45,3.57c-1.89-1.07-3.83-1.6-5.63-1.6-2.78,0-3.86,1.04-3.86,2.32,0,3.74,11.81,1.16,11.81,8.62,0,3.39-2.81,6.29-8.62,6.29-3.22,0-6.47-.96-8.27-2.35Z"/><path class="j" d="M515.21,322.44v8.91h-4.23v-1.94c-.84,1.42-2.47,2.18-4.76,2.18-3.65,0-5.83-2.03-5.83-4.73s1.94-4.67,6.7-4.67h3.6c0-1.94-1.16-3.07-3.6-3.07-1.65,0-3.36,.55-4.5,1.45l-1.62-3.16c1.71-1.22,4.24-1.89,6.73-1.89,4.76,0,7.51,2.2,7.51,6.93Zm-4.52,3.97v-1.6h-3.1c-2.12,0-2.78,.78-2.78,1.83,0,1.13,.96,1.89,2.55,1.89,1.51,0,2.81-.7,3.34-2.12Z"/><path class="j" d="M545.66,322.41v8.93h-4.53v-8.24c0-2.52-1.13-3.68-2.96-3.68-2.03,0-3.45,1.31-3.45,4.09v7.83h-4.53v-8.24c0-2.52-1.07-3.68-2.96-3.68-2,0-3.42,1.31-3.42,4.09v7.83h-4.52v-15.61h4.32v1.8c1.16-1.33,2.9-2.03,4.9-2.03,2.18,0,4.03,.84,5.13,2.55,1.25-1.6,3.28-2.55,5.63-2.55,3.71,0,6.38,2.15,6.38,6.9Z"/><path class="j" d="M548.61,328.73c0-1.68,1.25-2.78,2.81-2.78s2.81,1.1,2.81,2.78-1.25,2.84-2.81,2.84-2.81-1.19-2.81-2.84Z"/><path class="j" d="M556.21,328.73c0-1.68,1.25-2.78,2.81-2.78s2.81,1.1,2.81,2.78-1.25,2.84-2.81,2.84-2.81-1.19-2.81-2.84Z"/><path class="j" d="M563.81,328.73c0-1.68,1.25-2.78,2.81-2.78s2.81,1.1,2.81,2.78-1.25,2.84-2.81,2.84-2.81-1.19-2.81-2.84Z"/></g><line class="h" x1="40.6" y1="227.87" x2="798.4" y2="227.87"/><g><rect class="g" x="224.6" y="381.92" width="341.38" height="74.18" rx="7.59" ry="7.59"/><g><path class="e" d="M330.99,424.08h-9.69l-1.8,4.45h-6.61l10.12-22.92h6.39l10.15,22.92h-6.75l-1.8-4.45Zm-1.9-4.78l-2.95-7.33-2.95,7.33h5.89Z"/><path class="e" d="M359.77,404.24v24.3h-5.93v-1.77c-1.18,1.41-2.91,2.06-5.21,2.06-4.85,0-8.74-3.54-8.74-9.2s3.9-9.14,8.74-9.14c2.06,0,3.73,.59,4.91,1.83v-8.09h6.22Zm-6.12,15.39c0-2.69-1.6-4.19-3.7-4.19s-3.73,1.51-3.73,4.19,1.6,4.26,3.73,4.26,3.7-1.54,3.7-4.26Z"/><path class="e" d="M382.63,404.24v24.3h-5.93v-1.77c-1.18,1.41-2.91,2.06-5.21,2.06-4.85,0-8.74-3.54-8.74-9.2s3.9-9.14,8.74-9.14c2.06,0,3.73,.59,4.91,1.83v-8.09h6.22Zm-6.12,15.39c0-2.69-1.6-4.19-3.7-4.19s-3.73,1.51-3.73,4.19,1.6,4.26,3.73,4.26,3.7-1.54,3.7-4.26Z"/><path class="e" d="M412.79,418.68v9.86h-5.8v-2.29c-.88,1.7-2.65,2.59-5.24,2.59-4.26,0-6.62-2.39-6.62-5.47,0-3.27,2.39-5.3,7.89-5.3h3.54c-.1-1.8-1.31-2.82-3.77-2.82-1.7,0-3.6,.59-4.81,1.54l-2.1-4.22c2.03-1.34,5.04-2.06,7.83-2.06,5.76,0,9.07,2.55,9.07,8.19Zm-6.22,4.16v-1.54h-2.69c-2,0-2.72,.72-2.72,1.8s.85,1.8,2.33,1.8c1.38,0,2.59-.65,3.08-2.06Z"/><path class="e" d="M431.43,410.75h-7.04v-5.14h20.53v5.14h-7.01v17.78h-6.48v-17.78Z"/><path class="e" d="M446,405.51c0-1.87,1.51-3.31,3.8-3.31s3.8,1.34,3.8,3.21c0,1.96-1.51,3.41-3.8,3.41s-3.8-1.44-3.8-3.31Zm.69,5.27h6.22v17.75h-6.22v-17.75Z"/><path class="e" d="M476.81,419.66c0,5.63-3.9,9.17-8.71,9.17-2.06,0-3.73-.62-4.94-1.87v7.92h-6.22v-24.1h5.93v1.77c1.18-1.41,2.92-2.06,5.24-2.06,4.81,0,8.71,3.54,8.71,9.17Zm-6.29,0c0-2.69-1.64-4.22-3.73-4.22s-3.73,1.54-3.73,4.22,1.64,4.22,3.73,4.22,3.73-1.54,3.73-4.22Z"/></g></g></g></g></g></svg>